<svg width="262" height="53" viewBox="0 0 262 53" fill="none" xmlns="http://www.w3.org/2000/svg">
<g filter="url(#filter0_d_220_50)">
<path d="M11.2 38.75C9.76667 38.75 9.05 38 9.05 36.5C9.05 35.7667 9.18333 34.9667 9.45 34.1C8.85 33.9667 8.15 33.7667 7.35 33.5C6.58333 33.2333 5.83333 32.9 5.1 32.5C4.36667 32.0667 3.75 31.55 3.25 30.95C2.78333 30.35 2.55 29.6667 2.55 28.9C2.55 28.0333 2.83333 27.2167 3.4 26.45C3.96667 25.6833 4.55 25.0333 5.15 24.5C6.15 23.5667 7.36667 22.7333 8.8 22C10.2333 21.2667 11.7167 20.6333 13.25 20.1C14.8167 19.5667 16.25 19.1333 17.55 18.8C18.45 17.4333 19.3667 16.0833 20.3 14.75C21.2667 13.3833 22.2167 12.0333 23.15 10.7C23.6833 10 24.2 9.3 24.7 8.6C25.2333 7.86666 25.7833 7.18333 26.35 6.55C26.3167 6.28333 26.4333 5.93333 26.7 5.5C27 5.06667 27.3167 4.65 27.65 4.25C28.0167 3.81667 28.2833 3.5 28.45 3.3C27.95 3.26667 27.45 3.25 26.95 3.25C26.4833 3.21667 26 3.2 25.5 3.2C24.1667 3.2 22.8333 3.26667 21.5 3.4C20.1667 3.5 18.85 3.66666 17.55 3.9C16.4833 4.1 15.25 4.41667 13.85 4.85C12.45 5.28333 11.0833 5.85 9.75 6.55C8.45 7.25 7.36667 8.11667 6.5 9.15C5.66667 10.1833 5.25 11.3833 5.25 12.75C5.25 13.5833 5.41667 14.35 5.75 15.05C6.11667 15.7167 6.51667 16.3 6.95 16.8C7.41667 17.3 7.81667 17.7 8.15 18C8.51667 18.3 8.7 18.5 8.7 18.6C8.7 18.6667 8.63333 18.7 8.5 18.7C8.36667 18.7 8.23333 18.6667 8.1 18.6C7.96667 18.5333 7.85 18.4833 7.75 18.45C7.05 17.9833 6.31667 17.4 5.55 16.7C4.78333 16 4.13333 15.2333 3.6 14.4C3.1 13.5333 2.85 12.6333 2.85 11.7C2.85 10.5667 3.2 9.56667 3.9 8.7C4.6 7.8 5.51667 7.01667 6.65 6.35C7.78333 5.68333 9 5.11667 10.3 4.65C11.6 4.18333 12.85 3.81666 14.05 3.55C15.2833 3.25 16.3167 3.03333 17.15 2.9C18.55 2.66666 19.9667 2.5 21.4 2.4C22.8333 2.26666 24.2667 2.2 25.7 2.2C26.9 2.2 28.0667 2.25 29.2 2.35C29.4 1.95 29.8 1.66667 30.4 1.5C31.0333 1.33333 31.5333 1.25 31.9 1.25C32.0667 1.25 32.3 1.28333 32.6 1.35C32.9 1.38333 33.05 1.51667 33.05 1.75C33.05 1.88333 32.95 2.05 32.75 2.25C32.55 2.45 32.4 2.6 32.3 2.7C33.8667 2.96666 35.5167 3.4 37.25 4C38.9833 4.56667 40.6167 5.35 42.15 6.35C43.6833 7.31667 44.9167 8.5 45.85 9.9C46.8167 11.3 47.3 12.9333 47.3 14.8C47.3 16.4333 46.9167 17.9833 46.15 19.45C45.4167 20.8833 44.4167 22.2167 43.15 23.45C41.9167 24.6833 40.55 25.8167 39.05 26.85C37.55 27.85 36.0333 28.75 34.5 29.55C33 30.3167 31.6 30.9833 30.3 31.55C27.9667 32.5167 25.4667 33.2833 22.8 33.85C20.1667 34.45 17.5833 34.75 15.05 34.75C14.1833 34.75 13.3 34.7 12.4 34.6C12.3667 34.9 12.3167 35.1833 12.25 35.45C12.2167 35.75 12.2 36.0333 12.2 36.3C12.2 36.5667 12.25 36.8667 12.35 37.2C12.45 37.5667 12.6833 37.75 13.05 37.75C13.5167 37.75 13.9667 37.5667 14.4 37.2C14.8333 36.8667 15.2167 36.5167 15.55 36.15C15.8833 35.8167 16.1167 35.65 16.25 35.65C16.3167 35.65 16.35 35.7 16.35 35.8C16.35 35.8333 16.3333 35.85 16.3 35.85C16.3 35.8833 16.3 35.9167 16.3 35.95C16.2333 36.3167 16.0333 36.6833 15.7 37.05C15.3667 37.45 15.0167 37.7333 14.65 37.9C14.2167 38.1 13.6667 38.2833 13 38.45C12.3333 38.65 11.7333 38.75 11.2 38.75ZM12.65 33.55H12.95C14.6833 33.55 16.5 33.3667 18.4 33C20.3 32.6 22.1667 32.1 24 31.5C25.8333 30.8667 27.5167 30.2 29.05 29.5C30.15 29 31.4 28.3833 32.8 27.65C34.2333 26.8833 35.6667 26.0333 37.1 25.1C38.5333 24.1333 39.85 23.0833 41.05 21.95C42.2833 20.7833 43.2667 19.55 44 18.25C44.7667 16.9167 45.15 15.5167 45.15 14.05C45.15 12.4167 44.7 11 43.8 9.8C42.9 8.56666 41.7333 7.53333 40.3 6.7C38.9 5.86667 37.4167 5.2 35.85 4.7C34.2833 4.2 32.8333 3.85 31.5 3.65C29.5333 5.95 27.6167 8.3 25.75 10.7C23.9167 13.1 22.1667 15.55 20.5 18.05C22.5667 17.5833 24.6833 17.2167 26.85 16.95C29.05 16.65 31.2167 16.5 33.35 16.5C33.35 16.5 33.4167 16.5 33.55 16.5C33.7167 16.5 33.8 16.5333 33.8 16.6C33.8 16.7 33.7167 16.7667 33.55 16.8C33.3833 16.8333 33.2833 16.85 33.25 16.85C28.6833 17.1833 24.1333 18.0333 19.6 19.4C18.2667 21.4333 16.9333 23.7 15.6 26.2C14.3 28.7 13.3167 31.15 12.65 33.55ZM9.75 33.2C10.5167 30.9333 11.5167 28.7333 12.75 26.6C14.0167 24.4667 15.2833 22.3833 16.55 20.35C15.75 20.65 14.7 21.0667 13.4 21.6C12.1 22.1 10.8 22.7167 9.5 23.45C8.23333 24.1833 7.15 25 6.25 25.9C5.38333 26.8 4.95 27.7667 4.95 28.8C4.95 29.6 5.2 30.3 5.7 30.9C6.23333 31.5 6.86667 32 7.6 32.4C8.36667 32.7667 9.08333 33.0333 9.75 33.2ZM58.1637 33.4C57.2637 33.4 56.6637 33.05 56.3637 32.35C56.0637 31.6167 55.9137 30.8833 55.9137 30.15C55.9137 29.3167 55.9803 28.4833 56.1137 27.65C56.247 26.8167 56.397 26 56.5637 25.2C56.2303 25.7667 55.697 26.5 54.9637 27.4C54.2303 28.3 53.4137 29.2167 52.5137 30.15C51.6137 31.05 50.697 31.8167 49.7637 32.45C48.8637 33.05 48.0637 33.35 47.3637 33.35C46.9637 33.35 46.697 33.2167 46.5637 32.95C46.4637 32.6833 46.4137 32.3833 46.4137 32.05C46.4137 31.35 46.5803 30.4667 46.9137 29.4C47.247 28.3333 47.7137 27.2167 48.3137 26.05C48.9137 24.85 49.5803 23.75 50.3137 22.75C51.0803 21.75 51.8637 20.95 52.6637 20.35C53.497 19.7167 54.3303 19.4333 55.1637 19.5C55.5303 19.3 55.9303 19.1167 56.3637 18.95C56.797 18.7833 57.2303 18.7 57.6637 18.7C57.997 18.7 58.3303 18.7333 58.6637 18.8C59.0303 18.8333 59.3803 18.8833 59.7137 18.95C59.8803 18.8833 60.0637 18.8167 60.2637 18.75C60.4637 18.6833 60.6637 18.65 60.8637 18.65C61.2303 18.65 61.4137 18.8167 61.4137 19.15C61.4137 19.3167 61.3137 19.65 61.1137 20.15C60.947 20.6167 60.747 21.0667 60.5137 21.5C60.3137 21.9 60.147 22.1333 60.0137 22.2C59.7137 22.8 59.4303 23.5833 59.1637 24.55C58.897 25.4833 58.6803 26.45 58.5137 27.45C58.347 28.45 58.2637 29.3 58.2637 30C58.2637 30.3667 58.3137 30.7833 58.4137 31.25C58.547 31.6833 58.8637 31.9 59.3637 31.9C59.9303 31.9 60.497 31.6833 61.0637 31.25C61.6637 30.7833 62.1803 30.3333 62.6137 29.9C63.047 29.4333 63.297 29.2 63.3637 29.2C63.4303 29.2 63.4637 29.2333 63.4637 29.3C63.4637 29.6 63.297 29.95 62.9637 30.35C62.6303 30.75 62.2637 31.1333 61.8637 31.5C61.4637 31.8333 61.1637 32.0833 60.9637 32.25C60.5637 32.55 60.1137 32.8167 59.6137 33.05C59.147 33.2833 58.6637 33.4 58.1637 33.4ZM49.1137 31.65C49.2803 31.65 49.4803 31.5833 49.7137 31.45C49.947 31.2833 50.1303 31.15 50.2637 31.05C52.2637 29.6167 53.8303 27.9667 54.9637 26.1C56.097 24.2333 57.197 22.2333 58.2637 20.1C58.1303 20.0333 57.9803 19.9833 57.8137 19.95C57.647 19.9167 57.4803 19.9 57.3137 19.9C56.6803 19.9 56.047 20.0667 55.4137 20.4C54.8137 20.7333 54.3137 21.1333 53.9137 21.6C53.2803 22.2667 52.6303 23.15 51.9637 24.25C51.3303 25.3167 50.747 26.4333 50.2137 27.6C49.6803 28.7333 49.2803 29.75 49.0137 30.65C48.9803 30.75 48.947 30.85 48.9137 30.95C48.8803 31.05 48.8637 31.1667 48.8637 31.3C48.8637 31.5333 48.947 31.65 49.1137 31.65ZM63.0805 33.75C62.8471 33.75 62.7471 33.6667 62.7805 33.5C63.7138 31.9 64.5638 30.2667 65.3305 28.6C66.1305 26.9333 66.8805 25.25 67.5805 23.55C67.5805 23.4833 67.6471 23.3 67.7805 23C67.9138 22.6667 67.9805 22.4833 67.9805 22.45C67.9805 22.35 67.8971 22.3167 67.7305 22.35C67.5638 22.3833 67.4805 22.3333 67.4805 22.2C67.4805 22.1333 67.6138 21.8833 67.8805 21.45C68.1471 20.9833 68.4305 20.5167 68.7305 20.05C69.0305 19.55 69.2138 19.25 69.2805 19.15C69.4471 18.95 69.7638 18.75 70.2305 18.55C70.6971 18.35 71.0471 18.25 71.2805 18.25C71.6138 18.25 71.7805 18.4 71.7805 18.7C71.7805 18.8 71.6638 19.1333 71.4305 19.7C71.1971 20.2667 70.8971 20.9333 70.5305 21.7C70.1638 22.4667 69.7971 23.25 69.4305 24.05C69.0638 24.85 68.7305 25.55 68.4305 26.15C68.1305 26.75 67.9305 27.15 67.8305 27.35C68.0971 27.0167 68.5305 26.5333 69.1305 25.9C69.7638 25.2333 70.4638 24.5167 71.2305 23.75C72.0305 22.9833 72.8305 22.25 73.6305 21.55C74.4305 20.8167 75.1471 20.2333 75.7805 19.8C76.4471 19.3333 76.9638 19.1 77.3305 19.1C77.5971 19.1 77.7471 19.2 77.7805 19.4C77.8471 19.6 77.8805 19.7833 77.8805 19.95C77.8805 20.3833 77.8305 20.8333 77.7305 21.3C77.6305 21.7667 77.5138 22.2167 77.3805 22.65C77.1138 23.65 76.7805 24.8333 76.3805 26.2C76.0138 27.5333 75.8305 28.7 75.8305 29.7C75.8305 30.2 75.9138 30.6667 76.0805 31.1C76.2805 31.5 76.6805 31.7 77.2805 31.7C77.7471 31.7 78.2305 31.55 78.7305 31.25C79.2638 30.95 79.7471 30.6 80.1805 30.2C80.6471 29.7667 81.0471 29.4 81.3805 29.1C81.7471 28.8 81.9805 28.65 82.0805 28.65C82.1138 28.65 82.1305 28.6833 82.1305 28.75C82.1305 28.85 82.0971 28.9833 82.0305 29.15C81.9971 29.2833 81.9471 29.3833 81.8805 29.45C81.3471 30.2833 80.5638 31.0833 79.5305 31.85C78.5305 32.6167 77.5305 33 76.5305 33C75.4971 33 74.7138 32.7 74.1805 32.1C73.6805 31.4667 73.4305 30.65 73.4305 29.65C73.4305 28.7833 73.5805 27.8167 73.8805 26.75C74.2138 25.6833 74.4971 24.7167 74.7305 23.85C74.7971 23.5833 74.8805 23.2667 74.9805 22.9C75.1138 22.5333 75.1805 22.2167 75.1805 21.95C75.1805 21.8833 75.1638 21.8 75.1305 21.7C75.0971 21.6 75.0305 21.55 74.9305 21.55C74.7638 21.55 74.5471 21.65 74.2805 21.85C74.0471 22.0167 73.8638 22.15 73.7305 22.25C73.0971 22.7833 72.3805 23.4667 71.5805 24.3C70.8138 25.1333 70.0471 26.05 69.2805 27.05C68.5138 28.0167 67.8138 28.9667 67.1805 29.9C66.5471 30.8333 66.0471 31.6667 65.6805 32.4C65.6138 32.5667 65.3971 32.7667 65.0305 33C64.6971 33.2 64.3305 33.3667 63.9305 33.5C63.5638 33.6667 63.2805 33.75 63.0805 33.75ZM86.9027 16.8C86.8027 16.8 86.7361 16.6833 86.7027 16.45C86.7027 16.1833 86.7027 16.0167 86.7027 15.95C86.7027 15.85 86.7194 15.6333 86.7527 15.3C86.7861 14.9667 86.8861 14.7833 87.0527 14.75C87.5194 14.6833 87.9861 14.6 88.4527 14.5C88.9194 14.4 89.3861 14.2833 89.8527 14.15C89.9194 14.1167 90.0194 14.1 90.1527 14.1C90.3194 14.1 90.4027 14.1833 90.4027 14.35C90.4027 14.7167 90.1694 15.1 89.7027 15.5C89.2694 15.8667 88.7694 16.1833 88.2027 16.45C87.6694 16.6833 87.2361 16.8 86.9027 16.8ZM82.8527 33C81.2194 33 80.4027 32.1667 80.4027 30.5C80.4027 29.8 80.5027 29.0833 80.7027 28.35C80.9361 27.6167 81.1861 26.9333 81.4527 26.3C81.7527 25.5667 82.0861 24.85 82.4527 24.15C82.8194 23.45 83.1861 22.75 83.5527 22.05C83.7194 21.75 83.8694 21.45 84.0027 21.15C84.1694 20.8167 84.3361 20.5 84.5027 20.2C84.6694 19.9667 84.9861 19.7667 85.4527 19.6C85.9194 19.4333 86.2861 19.35 86.5527 19.35C86.5861 19.35 86.5861 19.3667 86.5527 19.4C86.5194 19.4 86.5027 19.4 86.5027 19.4C86.5361 19.4 86.5527 19.4167 86.5527 19.45C86.6194 19.3833 86.7027 19.35 86.8027 19.35C86.9361 19.35 87.0194 19.4167 87.0527 19.55C87.0861 19.65 87.1027 19.75 87.1027 19.85C87.1027 20.0833 87.0027 20.4333 86.8027 20.9C86.6361 21.3667 86.4194 21.8167 86.1527 22.25C85.9194 22.65 85.6861 22.9 85.4527 23C85.1527 23.7 84.7527 24.4667 84.2527 25.3C83.7861 26.1333 83.3527 26.9833 82.9527 27.85C82.5527 28.6833 82.3527 29.5 82.3527 30.3C82.3527 31.2333 82.8527 31.7 83.8527 31.7C84.3194 31.7 84.8194 31.55 85.3527 31.25C85.9194 30.95 86.4694 30.6 87.0027 30.2C87.5361 29.7667 87.9861 29.4 88.3527 29.1C88.7527 28.8 89.0027 28.65 89.1027 28.65C89.1361 28.65 89.1527 28.6667 89.1527 28.7C89.1527 28.8333 89.1027 28.9833 89.0027 29.15C88.9027 29.2833 88.8194 29.3833 88.7527 29.45C88.3527 29.9833 87.8194 30.5333 87.1527 31.1C86.4861 31.6333 85.7694 32.0833 85.0027 32.45C84.2694 32.8167 83.5527 33 82.8527 33ZM89.4328 33.35C88.6995 33.35 88.2161 33.2333 87.9828 33C87.7495 32.7667 87.6328 32.2833 87.6328 31.55C87.6328 30.75 87.8161 29.8333 88.1828 28.8C88.5828 27.7667 88.9495 26.9 89.2828 26.2C89.2828 26.1667 89.2661 26.15 89.2328 26.15C89.2328 26.1167 89.2328 26.0833 89.2328 26.05C89.2328 25.8833 89.2828 25.75 89.3828 25.65C89.5161 25.55 89.6161 25.45 89.6828 25.35C89.8495 25.0833 89.9995 24.8167 90.1328 24.55C90.2661 24.2833 90.3995 24.0333 90.5328 23.8C91.0995 22.9 91.7828 22.0333 92.5828 21.2C93.4161 20.3667 94.3495 19.8 95.3828 19.5C95.7495 19.4 96.0995 19.35 96.4328 19.35C96.4995 19.35 96.5661 19.3667 96.6328 19.4C96.7328 19.4 96.7828 19.4333 96.7828 19.5C96.7828 19.6 96.6828 19.7167 96.4828 19.85C96.3161 19.9833 96.1995 20.0833 96.1328 20.15C95.5995 20.5833 95.0161 21.25 94.3828 22.15C93.7828 23.05 93.2995 23.7833 92.9328 24.35C93.6995 24.2167 94.4495 24.1167 95.1828 24.05C95.9495 23.9833 96.6995 23.9833 97.4328 24.05C97.7995 23.5167 98.1328 22.8667 98.4328 22.1C98.7661 21.3 98.9328 20.5667 98.9328 19.9C98.9328 19.5333 98.8828 19.3167 98.7828 19.25C98.7161 19.1833 98.5328 19.15 98.2328 19.15C98.1661 19.15 98.0661 19.1333 97.9328 19.1C97.7995 19.0667 97.7328 19 97.7328 18.9C97.7328 18.7667 97.8828 18.65 98.1828 18.55C98.4828 18.45 98.7995 18.3833 99.1328 18.35C99.4661 18.2833 99.6828 18.25 99.7828 18.25C100.683 18.25 101.133 18.6667 101.133 19.5C101.133 19.9667 100.983 20.5333 100.683 21.2C100.416 21.8333 100.066 22.4333 99.6328 23C99.2328 23.5333 98.8328 23.9167 98.4328 24.15C98.5328 24.15 98.7328 24.2 99.0328 24.3C99.3661 24.3667 99.6661 24.45 99.9328 24.55C100.233 24.65 100.383 24.7667 100.383 24.9C100.383 25 100.283 25.0667 100.083 25.1C99.8828 25.1 99.7495 25.1 99.6828 25.1C99.3828 25.1 99.0828 25.0833 98.7828 25.05C98.4828 24.9833 98.1828 24.95 97.8828 24.95C96.9495 24.95 95.9995 25.0167 95.0328 25.15C94.0995 25.2833 93.1661 25.45 92.2328 25.65C91.8995 26.25 91.5161 27.0167 91.0828 27.95C90.6828 28.8833 90.4828 29.7167 90.4828 30.45C90.4828 31.6167 91.0828 32.2 92.2828 32.2C93.1495 32.2 93.9828 31.9667 94.7828 31.5C95.6161 31.0333 96.3828 30.4833 97.0828 29.85C97.7828 29.2167 98.3495 28.6667 98.7828 28.2C99.2161 27.7333 99.4661 27.5 99.5328 27.5C99.6328 27.5 99.6828 27.5667 99.6828 27.7C99.6828 28.1 99.4495 28.5833 98.9828 29.15C98.5161 29.6833 98.1328 30.0667 97.8328 30.3C96.6661 31.2 95.3495 31.9333 93.8828 32.5C92.4495 33.0667 90.9661 33.35 89.4328 33.35ZM101.59 33.1C100.657 33.1 100.19 32.6167 100.19 31.65C100.19 31.2167 100.257 30.75 100.39 30.25C100.557 29.75 100.707 29.3 100.84 28.9C101.74 26.5667 102.84 24.1333 104.14 21.6C105.44 19.0333 106.823 16.5333 108.29 14.1C109.757 11.6333 111.19 9.36667 112.59 7.3C112.523 7.03333 112.49 6.8 112.49 6.6C112.49 6.43333 112.507 6.3 112.54 6.2C112.64 6.06667 112.823 5.78333 113.09 5.35C113.357 4.91666 113.623 4.5 113.89 4.1C114.19 3.66667 114.373 3.41667 114.44 3.35C114.607 3.15 114.923 3 115.39 2.9C115.89 2.8 116.273 2.75 116.54 2.75C116.707 2.75 116.957 2.78333 117.29 2.85C117.657 2.88333 117.84 3.01666 117.84 3.25C117.84 3.35 117.823 3.4 117.79 3.4C117.257 4.16667 116.707 4.95 116.14 5.75C115.607 6.51667 115.073 7.28333 114.54 8.05C112.607 10.95 110.79 13.9167 109.09 16.95C107.423 19.95 105.823 23 104.29 26.1C103.99 26.6667 103.657 27.3833 103.29 28.25C102.957 29.1167 102.79 29.8667 102.79 30.5C102.79 31.1333 103.04 31.45 103.54 31.45C103.973 31.45 104.457 31.3 104.99 31C105.523 30.7 106.023 30.3667 106.49 30C106.99 29.6 107.407 29.25 107.74 28.95C108.107 28.65 108.34 28.5 108.44 28.5C108.507 28.5 108.54 28.5667 108.54 28.7C108.54 28.8333 108.473 29.0167 108.34 29.25C108.24 29.45 108.14 29.6167 108.04 29.75C107.44 30.45 106.59 31.1167 105.49 31.75C104.39 32.3833 103.407 32.8 102.54 33C102.407 33.0333 102.257 33.05 102.09 33.05C101.923 33.0833 101.757 33.1 101.59 33.1ZM115.791 49.7C114.891 49.7 113.958 49.5333 112.991 49.2C112.025 48.9 111.208 48.4 110.541 47.7C109.875 47.0333 109.541 46.1667 109.541 45.1C109.541 44.1333 109.825 43.25 110.391 42.45C110.925 41.65 111.625 40.9167 112.491 40.25C113.325 39.6167 114.208 39.05 115.141 38.55C116.075 38.05 116.908 37.65 117.641 37.35C119.508 36.5833 121.541 36 123.741 35.6C125.975 35.2 128.091 34.9333 130.091 34.8C130.691 33.2667 131.291 31.7333 131.891 30.2C132.525 28.6667 133.008 27.0833 133.341 25.45L133.541 24.5C133.108 25.0667 132.508 25.8333 131.741 26.8C131.008 27.7667 130.191 28.75 129.291 29.75C128.425 30.75 127.541 31.6 126.641 32.3C125.741 32.9667 124.941 33.3 124.241 33.3C123.675 33.3 123.291 33.0667 123.091 32.6C122.891 32.1 122.791 31.6167 122.791 31.15C122.791 29.8833 123.075 28.6833 123.641 27.55C124.208 26.3833 124.775 25.2667 125.341 24.2L125.191 24.25C124.991 24.25 124.891 24.15 124.891 23.95C124.891 23.9167 124.925 23.8333 124.991 23.7C125.425 22.9 125.791 22.2167 126.091 21.65C126.391 21.0833 126.791 20.65 127.291 20.35C127.791 20.05 128.558 19.9 129.591 19.9C129.791 19.9 129.891 19.9833 129.891 20.15C129.891 20.4167 129.708 20.8667 129.341 21.5C128.975 22.1333 128.575 22.7833 128.141 23.45C127.708 24.0833 127.408 24.5333 127.241 24.8C126.975 25.2 126.658 25.7833 126.291 26.55C125.925 27.3167 125.608 28.0833 125.341 28.85C125.075 29.5833 124.941 30.1833 124.941 30.65C124.941 30.8167 124.975 30.9833 125.041 31.15C125.108 31.2833 125.241 31.35 125.441 31.35C125.875 31.35 126.425 31.1 127.091 30.6C127.758 30.0667 128.458 29.4 129.191 28.6C129.925 27.8 130.641 26.9667 131.341 26.1C132.041 25.2 132.641 24.3833 133.141 23.65C133.675 22.8833 134.058 22.2833 134.291 21.85C134.558 21.3833 134.741 20.9 134.841 20.4C134.941 19.8667 135.258 19.4333 135.791 19.1C136.025 18.9667 136.325 18.8333 136.691 18.7C137.058 18.5333 137.358 18.45 137.591 18.45C137.925 18.45 138.091 18.6167 138.091 18.95C138.091 19.4167 137.925 19.9 137.591 20.4C137.291 20.8667 137.025 21.3 136.791 21.7C136.491 22.2667 136.208 22.95 135.941 23.75C135.708 24.5167 135.491 25.2333 135.291 25.9C134.758 27.3667 134.241 28.85 133.741 30.35C133.275 31.8167 132.708 33.2833 132.041 34.75H133.041C133.308 34.75 133.558 34.7667 133.791 34.8C134.058 34.8333 134.191 34.9333 134.191 35.1C134.191 35.2667 134.008 35.3667 133.641 35.4C133.308 35.4333 132.941 35.4333 132.541 35.4C132.175 35.4 131.925 35.4 131.791 35.4C131.125 37 130.275 38.6333 129.241 40.3C128.241 42 127.058 43.55 125.691 44.95C124.358 46.3833 122.875 47.5333 121.241 48.4C119.575 49.2667 117.758 49.7 115.791 49.7ZM115.591 48.65C117.225 48.65 118.775 48.2 120.241 47.3C121.675 46.4333 122.991 45.3167 124.191 43.95C125.425 42.5833 126.508 41.1333 127.441 39.6C128.408 38.1 129.191 36.7167 129.791 35.45C127.925 35.5833 125.925 35.8667 123.791 36.3C121.658 36.7667 119.758 37.4333 118.091 38.3C117.258 38.7 116.341 39.25 115.341 39.95C114.308 40.65 113.425 41.45 112.691 42.35C111.925 43.2833 111.541 44.2833 111.541 45.35C111.541 46.4833 111.975 47.3167 112.841 47.85C113.675 48.3833 114.591 48.65 115.591 48.65ZM157.513 38.9C156.046 38.9 155.313 38.15 155.313 36.65C155.313 35.5833 155.63 34.25 156.263 32.65C156.896 31.0167 157.746 29.2333 158.813 27.3C159.88 25.3667 161.046 23.4 162.313 21.4C163.613 19.3667 164.913 17.4 166.213 15.5C167.513 13.6 168.713 11.8833 169.813 10.35C170.946 8.81667 171.88 7.58333 172.613 6.65C172.58 6.38333 172.696 6.05 172.963 5.65C173.23 5.25 173.53 4.86667 173.863 4.5C174.196 4.13333 174.43 3.85 174.563 3.65C174.296 3.61667 174.03 3.6 173.763 3.6C173.496 3.6 173.23 3.6 172.963 3.6C170.863 3.6 168.696 3.81667 166.463 4.25C164.263 4.65 162.163 5.33333 160.163 6.3C158.163 7.26667 156.43 8.56667 154.963 10.2C154.43 10.8333 153.88 11.6167 153.313 12.55C152.78 13.4833 152.513 14.3833 152.513 15.25C152.513 15.7833 152.613 16.2 152.813 16.5C153.046 16.7667 153.263 16.9667 153.463 17.1C153.696 17.2333 153.813 17.3833 153.813 17.55C153.813 17.6167 153.746 17.65 153.613 17.65C152.68 17.65 151.996 17.2333 151.563 16.4C151.13 15.5667 150.913 14.7667 150.913 14C150.913 13.2 151.063 12.4333 151.363 11.7C151.696 10.9333 152.113 10.2333 152.613 9.6C153.78 8.16667 155.28 7 157.113 6.1C158.98 5.16666 160.996 4.43333 163.163 3.9C165.33 3.36666 167.48 3 169.613 2.8C171.78 2.6 173.713 2.51667 175.413 2.55C175.446 2.51667 175.496 2.45 175.563 2.35C175.663 2.21666 175.713 2.13333 175.713 2.1C176.046 1.83333 176.463 1.63333 176.963 1.5C177.496 1.36667 177.963 1.3 178.363 1.3C178.463 1.3 178.646 1.33333 178.913 1.4C179.213 1.43333 179.363 1.55 179.363 1.75C179.363 1.88333 179.263 2.05 179.063 2.25C178.863 2.45 178.73 2.6 178.663 2.7C179.463 2.76667 180.413 2.9 181.513 3.1C182.646 3.26666 183.746 3.56666 184.813 4C185.88 4.4 186.763 4.96667 187.463 5.7C188.196 6.4 188.563 7.31667 188.563 8.45C188.563 9.51667 188.246 10.5833 187.613 11.65C187.013 12.7167 186.196 13.7333 185.163 14.7C184.163 15.6333 183.063 16.4833 181.863 17.25C180.663 18.0167 179.463 18.6333 178.263 19.1C177.063 19.5667 175.98 19.8333 175.013 19.9C175.613 19.9333 176.18 20 176.713 20.1C177.28 20.1667 177.846 20.3333 178.413 20.6C179.28 21 180.08 21.5333 180.813 22.2C181.546 22.8333 181.913 23.6833 181.913 24.75C181.913 25.15 181.83 25.6 181.663 26.1C182.263 26.5 182.563 27.1167 182.563 27.95C182.563 28.0167 182.53 28.2 182.463 28.5C182.43 28.7667 182.33 28.9 182.163 28.9C182.096 28.9 182.046 28.8333 182.013 28.7C182.013 28.5667 181.996 28.4833 181.963 28.45C181.93 28.15 181.863 27.9 181.763 27.7C181.696 27.4667 181.53 27.25 181.263 27.05C180.663 28.1833 179.713 29.3167 178.413 30.45C177.113 31.5833 175.646 32.6 174.013 33.5C172.38 34.4 170.746 35.1167 169.113 35.65C167.48 36.2167 166.013 36.5 164.713 36.5C163.98 36.5 163.246 36.35 162.513 36.05C161.78 35.75 161.413 35.1667 161.413 34.3C161.413 33.5333 161.646 32.8 162.113 32.1C162.613 31.4 163.23 30.75 163.963 30.15C164.696 29.55 165.446 29.0333 166.213 28.6C166.98 28.1333 167.646 27.7667 168.213 27.5C169.08 27.1 170.13 26.75 171.363 26.45C172.596 26.1167 173.846 25.85 175.113 25.65C176.38 25.4167 177.463 25.3 178.363 25.3C178.43 25.1333 178.48 24.95 178.513 24.75C178.546 24.55 178.563 24.35 178.563 24.15C178.563 23.25 178.313 22.55 177.813 22.05C177.346 21.55 176.746 21.1833 176.013 20.95C175.28 20.6833 174.546 20.5167 173.813 20.45C172.68 20.95 171.446 21.2 170.113 21.2C169.98 21.2 169.696 21.1833 169.263 21.15C168.863 21.1167 168.463 21.05 168.063 20.95C167.696 20.8167 167.513 20.6333 167.513 20.4C167.513 20.1333 167.78 19.9333 168.313 19.8C168.846 19.6667 169.413 19.5667 170.013 19.5C170.613 19.4333 170.98 19.4 171.113 19.4C172.046 19.3333 172.963 19.2 173.863 19C174.796 18.7667 175.696 18.4833 176.563 18.15C177.396 17.8167 178.313 17.3667 179.313 16.8C180.346 16.2 181.33 15.5167 182.263 14.75C183.196 13.9833 183.963 13.1333 184.563 12.2C185.163 11.2667 185.463 10.3 185.463 9.3C185.463 8.36666 185.196 7.58333 184.663 6.95C184.13 6.28333 183.446 5.75 182.613 5.35C181.78 4.95 180.913 4.63333 180.013 4.4C179.113 4.16666 178.313 4 177.613 3.9C175.946 5.83333 174.18 8.01666 172.313 10.45C170.446 12.85 168.613 15.3667 166.813 18C165.046 20.6333 163.463 23.2833 162.063 25.95C160.696 28.6167 159.663 31.1667 158.963 33.6C158.83 34.0333 158.696 34.5 158.563 35C158.463 35.5333 158.413 36.0333 158.413 36.5C158.413 36.7667 158.463 37.0667 158.563 37.4C158.663 37.7667 158.896 37.95 159.263 37.95C159.563 37.95 159.846 37.9 160.113 37.8C160.413 37.7333 160.713 37.7 161.013 37.7C161.013 37.7 161.063 37.7 161.163 37.7C161.296 37.7 161.363 37.7333 161.363 37.8C161.363 37.9333 161.08 38.0833 160.513 38.25C159.98 38.45 159.396 38.6 158.763 38.7C158.13 38.8333 157.713 38.9 157.513 38.9ZM165.713 35.25C166.78 35.25 167.93 34.9667 169.163 34.4C170.396 33.8333 171.613 33.1 172.813 32.2C174.013 31.2667 175.063 30.2833 175.963 29.25C176.896 28.1833 177.58 27.1833 178.013 26.25C177.113 26.25 176.046 26.3667 174.813 26.6C173.58 26.8333 172.363 27.1333 171.163 27.5C169.963 27.8667 168.963 28.2833 168.163 28.75C167.663 29.05 167.063 29.4667 166.363 30C165.663 30.5333 165.046 31.1333 164.513 31.8C163.98 32.4667 163.713 33.1333 163.713 33.8C163.713 34.3333 163.93 34.7 164.363 34.9C164.796 35.1333 165.246 35.25 165.713 35.25ZM184.418 33.75C184.185 33.75 184.085 33.6667 184.118 33.5C184.985 31.9667 185.752 30.4 186.418 28.8C187.085 27.1667 187.735 25.5333 188.368 23.9L188.918 22.45C188.918 22.35 188.835 22.3167 188.668 22.35C188.502 22.3833 188.418 22.3333 188.418 22.2C188.418 22.1333 188.552 21.8833 188.818 21.45C189.085 20.9833 189.368 20.5167 189.668 20.05C189.968 19.55 190.152 19.25 190.218 19.15C190.352 18.95 190.652 18.75 191.118 18.55C191.585 18.35 191.935 18.25 192.168 18.25C192.535 18.25 192.718 18.4 192.718 18.7C192.718 18.8 192.702 18.9 192.668 19C192.635 19.1 192.602 19.1833 192.568 19.25C192.068 20.45 191.518 21.65 190.918 22.85C190.352 24.0167 189.885 25.2333 189.518 26.5C190.485 25.3333 191.535 24.2 192.668 23.1C193.835 21.9667 195.018 20.9333 196.218 20C196.552 19.7333 196.918 19.4833 197.318 19.25C197.752 19.0167 198.185 18.9 198.618 18.9C199.152 18.9 199.485 19.1 199.618 19.5C199.752 19.8667 199.818 20.25 199.818 20.65C199.818 21.1833 199.652 21.75 199.318 22.35C198.985 22.95 198.502 23.25 197.868 23.25C197.602 23.25 197.468 23.15 197.468 22.95C197.468 22.7833 197.485 22.65 197.518 22.55C197.552 22.4167 197.568 22.2833 197.568 22.15C197.568 21.9833 197.502 21.7833 197.368 21.55C197.235 21.3167 197.085 21.2 196.918 21.2C196.485 21.2 195.902 21.4667 195.168 22C194.435 22.5333 193.668 23.1833 192.868 23.95C192.102 24.7167 191.402 25.4667 190.768 26.2C190.168 26.9 189.735 27.4167 189.468 27.75C189.102 28.2833 188.785 28.8333 188.518 29.4C188.252 29.9333 188.035 30.4833 187.868 31.05C187.802 31.25 187.735 31.4667 187.668 31.7C187.602 31.9 187.535 32.0833 187.468 32.25C187.402 32.4167 187.152 32.6333 186.718 32.9C186.285 33.1333 185.835 33.3333 185.368 33.5C184.935 33.6667 184.618 33.75 184.418 33.75ZM204.774 16.8C204.674 16.8 204.607 16.6833 204.574 16.45C204.574 16.1833 204.574 16.0167 204.574 15.95C204.574 15.85 204.59 15.6333 204.624 15.3C204.657 14.9667 204.757 14.7833 204.924 14.75C205.39 14.6833 205.857 14.6 206.324 14.5C206.79 14.4 207.257 14.2833 207.724 14.15C207.79 14.1167 207.89 14.1 208.024 14.1C208.19 14.1 208.274 14.1833 208.274 14.35C208.274 14.7167 208.04 15.1 207.574 15.5C207.14 15.8667 206.64 16.1833 206.074 16.45C205.54 16.6833 205.107 16.8 204.774 16.8ZM200.724 33C199.09 33 198.274 32.1667 198.274 30.5C198.274 29.8 198.374 29.0833 198.574 28.35C198.807 27.6167 199.057 26.9333 199.324 26.3C199.624 25.5667 199.957 24.85 200.324 24.15C200.69 23.45 201.057 22.75 201.424 22.05C201.59 21.75 201.74 21.45 201.874 21.15C202.04 20.8167 202.207 20.5 202.374 20.2C202.54 19.9667 202.857 19.7667 203.324 19.6C203.79 19.4333 204.157 19.35 204.424 19.35C204.457 19.35 204.457 19.3667 204.424 19.4C204.39 19.4 204.374 19.4 204.374 19.4C204.407 19.4 204.424 19.4167 204.424 19.45C204.49 19.3833 204.574 19.35 204.674 19.35C204.807 19.35 204.89 19.4167 204.924 19.55C204.957 19.65 204.974 19.75 204.974 19.85C204.974 20.0833 204.874 20.4333 204.674 20.9C204.507 21.3667 204.29 21.8167 204.024 22.25C203.79 22.65 203.557 22.9 203.324 23C203.024 23.7 202.624 24.4667 202.124 25.3C201.657 26.1333 201.224 26.9833 200.824 27.85C200.424 28.6833 200.224 29.5 200.224 30.3C200.224 31.2333 200.724 31.7 201.724 31.7C202.19 31.7 202.69 31.55 203.224 31.25C203.79 30.95 204.34 30.6 204.874 30.2C205.407 29.7667 205.857 29.4 206.224 29.1C206.624 28.8 206.874 28.65 206.974 28.65C207.007 28.65 207.024 28.6667 207.024 28.7C207.024 28.8333 206.974 28.9833 206.874 29.15C206.774 29.2833 206.69 29.3833 206.624 29.45C206.224 29.9833 205.69 30.5333 205.024 31.1C204.357 31.6333 203.64 32.0833 202.874 32.45C202.14 32.8167 201.424 33 200.724 33ZM208.854 33C207.221 33 206.404 32.1667 206.404 30.5C206.404 29.5 206.637 28.3833 207.104 27.15C207.604 25.8833 208.171 24.6333 208.804 23.4C209.471 22.1667 210.021 21.1167 210.454 20.25C209.987 20.2833 209.437 20.3667 208.804 20.5C208.204 20.6 207.687 20.65 207.254 20.65C207.121 20.65 206.987 20.6333 206.854 20.6C206.754 20.5333 206.704 20.4333 206.704 20.3C206.704 20.1 206.804 19.9667 207.004 19.9C207.237 19.7333 207.471 19.5833 207.704 19.45C207.971 19.3167 208.221 19.1833 208.454 19.05C209.121 18.6167 209.754 18.15 210.354 17.65C210.987 17.1167 211.587 16.5667 212.154 16C212.287 15.7333 212.404 15.5 212.504 15.3C212.637 15.0667 212.871 14.9 213.204 14.8C213.471 14.7333 213.854 14.5833 214.354 14.35C214.854 14.1167 215.221 14 215.454 14C215.621 14 215.704 14.0667 215.704 14.2C215.704 14.3 215.587 14.5667 215.354 15C215.154 15.4333 214.904 15.9333 214.604 16.5C214.304 17.0333 214.021 17.5333 213.754 18C213.521 18.4333 213.371 18.7 213.304 18.8C213.504 18.8 213.854 18.8 214.354 18.8C214.887 18.8 215.454 18.8167 216.054 18.85C216.654 18.8833 217.171 18.95 217.604 19.05C218.037 19.15 218.254 19.2833 218.254 19.45C218.254 19.5833 218.154 19.6833 217.954 19.75C217.787 19.7833 217.604 19.8 217.404 19.8C216.604 19.8 215.804 19.8167 215.004 19.85C214.237 19.85 213.471 19.9 212.704 20C212.371 20.6 211.971 21.35 211.504 22.25C211.071 23.1167 210.621 24.05 210.154 25.05C209.721 26.0167 209.354 26.9667 209.054 27.9C208.754 28.8 208.604 29.5833 208.604 30.25C208.604 30.6833 208.687 31.0333 208.854 31.3C209.054 31.5667 209.387 31.7 209.854 31.7C210.321 31.7 210.837 31.55 211.404 31.25C211.971 30.95 212.504 30.6 213.004 30.2C213.537 29.7667 213.987 29.4 214.354 29.1C214.754 28.8 215.004 28.65 215.104 28.65C215.137 28.65 215.154 28.6667 215.154 28.7C215.154 28.8333 215.104 28.9833 215.004 29.15C214.937 29.2833 214.871 29.3833 214.804 29.45C214.371 29.9833 213.821 30.5333 213.154 31.1C212.487 31.6333 211.771 32.0833 211.004 32.45C210.271 32.8167 209.554 33 208.854 33ZM209.354 19.1C209.654 19.0333 209.937 19 210.204 19C210.504 18.9667 210.787 18.9333 211.054 18.9C211.154 18.6667 211.237 18.4333 211.304 18.2C211.371 17.9667 211.437 17.7333 211.504 17.5C211.137 17.7333 210.771 18 210.404 18.3C210.071 18.5667 209.721 18.8333 209.354 19.1ZM214.692 33.75C214.458 33.75 214.358 33.6667 214.392 33.5C215.325 31.9 216.175 30.2667 216.942 28.6C217.742 26.9333 218.492 25.25 219.192 23.55C219.192 23.4833 219.258 23.3 219.392 23C219.525 22.6667 219.592 22.4833 219.592 22.45C219.592 22.35 219.508 22.3167 219.342 22.35C219.175 22.3833 219.092 22.3333 219.092 22.2C219.092 22.1333 219.225 21.8833 219.492 21.45C219.758 20.9833 220.042 20.5167 220.342 20.05C220.642 19.55 220.825 19.25 220.892 19.15C221.058 18.95 221.375 18.75 221.842 18.55C222.308 18.35 222.658 18.25 222.892 18.25C223.225 18.25 223.392 18.4 223.392 18.7C223.392 18.8 223.275 19.1333 223.042 19.7C222.808 20.2667 222.508 20.9333 222.142 21.7C221.775 22.4667 221.408 23.25 221.042 24.05C220.675 24.85 220.342 25.55 220.042 26.15C219.742 26.75 219.542 27.15 219.442 27.35C219.708 27.0167 220.142 26.5333 220.742 25.9C221.375 25.2333 222.075 24.5167 222.842 23.75C223.642 22.9833 224.442 22.25 225.242 21.55C226.042 20.8167 226.758 20.2333 227.392 19.8C228.058 19.3333 228.575 19.1 228.942 19.1C229.208 19.1 229.358 19.2 229.392 19.4C229.458 19.6 229.492 19.7833 229.492 19.95C229.492 20.3833 229.442 20.8333 229.342 21.3C229.242 21.7667 229.125 22.2167 228.992 22.65C228.725 23.65 228.392 24.8333 227.992 26.2C227.625 27.5333 227.442 28.7 227.442 29.7C227.442 30.2 227.525 30.6667 227.692 31.1C227.892 31.5 228.292 31.7 228.892 31.7C229.358 31.7 229.842 31.55 230.342 31.25C230.875 30.95 231.358 30.6 231.792 30.2C232.258 29.7667 232.658 29.4 232.992 29.1C233.358 28.8 233.592 28.65 233.692 28.65C233.725 28.65 233.742 28.6833 233.742 28.75C233.742 28.85 233.708 28.9833 233.642 29.15C233.608 29.2833 233.558 29.3833 233.492 29.45C232.958 30.2833 232.175 31.0833 231.142 31.85C230.142 32.6167 229.142 33 228.142 33C227.108 33 226.325 32.7 225.792 32.1C225.292 31.4667 225.042 30.65 225.042 29.65C225.042 28.7833 225.192 27.8167 225.492 26.75C225.825 25.6833 226.108 24.7167 226.342 23.85C226.408 23.5833 226.492 23.2667 226.592 22.9C226.725 22.5333 226.792 22.2167 226.792 21.95C226.792 21.8833 226.775 21.8 226.742 21.7C226.708 21.6 226.642 21.55 226.542 21.55C226.375 21.55 226.158 21.65 225.892 21.85C225.658 22.0167 225.475 22.15 225.342 22.25C224.708 22.7833 223.992 23.4667 223.192 24.3C222.425 25.1333 221.658 26.05 220.892 27.05C220.125 28.0167 219.425 28.9667 218.792 29.9C218.158 30.8333 217.658 31.6667 217.292 32.4C217.225 32.5667 217.008 32.7667 216.642 33C216.308 33.2 215.942 33.3667 215.542 33.5C215.175 33.6667 214.892 33.75 214.692 33.75ZM233.964 33.35C233.231 33.35 232.747 33.2333 232.514 33C232.281 32.7667 232.164 32.2833 232.164 31.55C232.164 30.75 232.347 29.8333 232.714 28.8C233.114 27.7667 233.481 26.9 233.814 26.2C233.814 26.1667 233.797 26.15 233.764 26.15C233.764 26.1167 233.764 26.0833 233.764 26.05C233.764 25.8833 233.814 25.75 233.914 25.65C234.047 25.55 234.147 25.45 234.214 25.35C234.381 25.0833 234.531 24.8167 234.664 24.55C234.797 24.2833 234.931 24.0333 235.064 23.8C235.631 22.9 236.314 22.0333 237.114 21.2C237.947 20.3667 238.881 19.8 239.914 19.5C240.281 19.4 240.631 19.35 240.964 19.35C241.031 19.35 241.097 19.3667 241.164 19.4C241.264 19.4 241.314 19.4333 241.314 19.5C241.314 19.6 241.214 19.7167 241.014 19.85C240.847 19.9833 240.731 20.0833 240.664 20.15C240.131 20.5833 239.547 21.25 238.914 22.15C238.314 23.05 237.831 23.7833 237.464 24.35C238.231 24.2167 238.981 24.1167 239.714 24.05C240.481 23.9833 241.231 23.9833 241.964 24.05C242.331 23.5167 242.664 22.8667 242.964 22.1C243.297 21.3 243.464 20.5667 243.464 19.9C243.464 19.5333 243.414 19.3167 243.314 19.25C243.247 19.1833 243.064 19.15 242.764 19.15C242.697 19.15 242.597 19.1333 242.464 19.1C242.331 19.0667 242.264 19 242.264 18.9C242.264 18.7667 242.414 18.65 242.714 18.55C243.014 18.45 243.331 18.3833 243.664 18.35C243.997 18.2833 244.214 18.25 244.314 18.25C245.214 18.25 245.664 18.6667 245.664 19.5C245.664 19.9667 245.514 20.5333 245.214 21.2C244.947 21.8333 244.597 22.4333 244.164 23C243.764 23.5333 243.364 23.9167 242.964 24.15C243.064 24.15 243.264 24.2 243.564 24.3C243.897 24.3667 244.197 24.45 244.464 24.55C244.764 24.65 244.914 24.7667 244.914 24.9C244.914 25 244.814 25.0667 244.614 25.1C244.414 25.1 244.281 25.1 244.214 25.1C243.914 25.1 243.614 25.0833 243.314 25.05C243.014 24.9833 242.714 24.95 242.414 24.95C241.481 24.95 240.531 25.0167 239.564 25.15C238.631 25.2833 237.697 25.45 236.764 25.65C236.431 26.25 236.047 27.0167 235.614 27.95C235.214 28.8833 235.014 29.7167 235.014 30.45C235.014 31.6167 235.614 32.2 236.814 32.2C237.681 32.2 238.514 31.9667 239.314 31.5C240.147 31.0333 240.914 30.4833 241.614 29.85C242.314 29.2167 242.881 28.6667 243.314 28.2C243.747 27.7333 243.997 27.5 244.064 27.5C244.164 27.5 244.214 27.5667 244.214 27.7C244.214 28.1 243.981 28.5833 243.514 29.15C243.047 29.6833 242.664 30.0667 242.364 30.3C241.197 31.2 239.881 31.9333 238.414 32.5C236.981 33.0667 235.497 33.35 233.964 33.35ZM237.471 49.7C236.571 49.7 235.638 49.5333 234.671 49.2C233.704 48.9 232.888 48.4 232.221 47.7C231.554 47.0333 231.221 46.1667 231.221 45.1C231.221 44.1333 231.504 43.25 232.071 42.45C232.604 41.65 233.304 40.9167 234.171 40.25C235.004 39.6167 235.888 39.05 236.821 38.55C237.754 38.05 238.588 37.65 239.321 37.35C241.188 36.5833 243.221 36 245.421 35.6C247.654 35.2 249.771 34.9333 251.771 34.8C252.371 33.2667 252.971 31.7333 253.571 30.2C254.204 28.6667 254.688 27.0833 255.021 25.45L255.221 24.5C254.788 25.0667 254.188 25.8333 253.421 26.8C252.688 27.7667 251.871 28.75 250.971 29.75C250.104 30.75 249.221 31.6 248.321 32.3C247.421 32.9667 246.621 33.3 245.921 33.3C245.354 33.3 244.971 33.0667 244.771 32.6C244.571 32.1 244.471 31.6167 244.471 31.15C244.471 29.8833 244.754 28.6833 245.321 27.55C245.888 26.3833 246.454 25.2667 247.021 24.2L246.871 24.25C246.671 24.25 246.571 24.15 246.571 23.95C246.571 23.9167 246.604 23.8333 246.671 23.7C247.104 22.9 247.471 22.2167 247.771 21.65C248.071 21.0833 248.471 20.65 248.971 20.35C249.471 20.05 250.238 19.9 251.271 19.9C251.471 19.9 251.571 19.9833 251.571 20.15C251.571 20.4167 251.388 20.8667 251.021 21.5C250.654 22.1333 250.254 22.7833 249.821 23.45C249.388 24.0833 249.088 24.5333 248.921 24.8C248.654 25.2 248.338 25.7833 247.971 26.55C247.604 27.3167 247.288 28.0833 247.021 28.85C246.754 29.5833 246.621 30.1833 246.621 30.65C246.621 30.8167 246.654 30.9833 246.721 31.15C246.788 31.2833 246.921 31.35 247.121 31.35C247.554 31.35 248.104 31.1 248.771 30.6C249.438 30.0667 250.138 29.4 250.871 28.6C251.604 27.8 252.321 26.9667 253.021 26.1C253.721 25.2 254.321 24.3833 254.821 23.65C255.354 22.8833 255.738 22.2833 255.971 21.85C256.238 21.3833 256.421 20.9 256.521 20.4C256.621 19.8667 256.938 19.4333 257.471 19.1C257.704 18.9667 258.004 18.8333 258.371 18.7C258.738 18.5333 259.038 18.45 259.271 18.45C259.604 18.45 259.771 18.6167 259.771 18.95C259.771 19.4167 259.604 19.9 259.271 20.4C258.971 20.8667 258.704 21.3 258.471 21.7C258.171 22.2667 257.888 22.95 257.621 23.75C257.388 24.5167 257.171 25.2333 256.971 25.9C256.438 27.3667 255.921 28.85 255.421 30.35C254.954 31.8167 254.388 33.2833 253.721 34.75H254.721C254.988 34.75 255.238 34.7667 255.471 34.8C255.738 34.8333 255.871 34.9333 255.871 35.1C255.871 35.2667 255.688 35.3667 255.321 35.4C254.988 35.4333 254.621 35.4333 254.221 35.4C253.854 35.4 253.604 35.4 253.471 35.4C252.804 37 251.954 38.6333 250.921 40.3C249.921 42 248.738 43.55 247.371 44.95C246.038 46.3833 244.554 47.5333 242.921 48.4C241.254 49.2667 239.438 49.7 237.471 49.7ZM237.271 48.65C238.904 48.65 240.454 48.2 241.921 47.3C243.354 46.4333 244.671 45.3167 245.871 43.95C247.104 42.5833 248.188 41.1333 249.121 39.6C250.088 38.1 250.871 36.7167 251.471 35.45C249.604 35.5833 247.604 35.8667 245.471 36.3C243.338 36.7667 241.438 37.4333 239.771 38.3C238.938 38.7 238.021 39.25 237.021 39.95C235.988 40.65 235.104 41.45 234.371 42.35C233.604 43.2833 233.221 44.2833 233.221 45.35C233.221 46.4833 233.654 47.3167 234.521 47.85C235.354 48.3833 236.271 48.65 237.271 48.65Z" fill="white"/>
</g>
<defs>
<filter id="filter0_d_220_50" x="0.750049" y="0.45" width="260.821" height="52.05" filterUnits="userSpaceOnUse" color-interpolation-filters="sRGB">
<feFlood flood-opacity="0" result="BackgroundImageFix"/>
<feColorMatrix in="SourceAlpha" type="matrix" values="0 0 0 0 0 0 0 0 0 0 0 0 0 0 0 0 0 0 127 0" result="hardAlpha"/>
<feOffset dy="1"/>
<feGaussianBlur stdDeviation="0.9"/>
<feComposite in2="hardAlpha" operator="out"/>
<feColorMatrix type="matrix" values="0 0 0 0 0 0 0 0 0 0 0 0 0 0 0 0 0 0 0.4 0"/>
<feBlend mode="normal" in2="BackgroundImageFix" result="effect1_dropShadow_220_50"/>
<feBlend mode="normal" in="SourceGraphic" in2="effect1_dropShadow_220_50" result="shape"/>
</filter>
</defs>
</svg>
