<?xml version="1.0" encoding="UTF-8" standalone="no"?>
<!DOCTYPE svg PUBLIC "-//W3C//DTD SVG 1.1//EN" "http://www.w3.org/Graphics/SVG/1.1/DTD/svg11.dtd">
<svg width="100%" height="100%" viewBox="0 0 288 81" version="1.1" xmlns="http://www.w3.org/2000/svg" xmlns:xlink="http://www.w3.org/1999/xlink" xml:space="preserve" xmlns:serif="http://www.serif.com/" style="fill-rule:evenodd;clip-rule:evenodd;stroke-linejoin:round;stroke-miterlimit:2;">
    <g transform="matrix(1,0,0,1,-667.358,-259.752)">
        <g transform="matrix(11.7333,0,0,11.7333,-4110.36,-3891.35)">
            <path d="M410.033,360.613C409.947,360.613 409.861,360.609 409.775,360.601C409.588,360.594 409.422,360.547 409.277,360.461C409.008,360.305 408.873,359.91 408.873,359.277C408.873,359.039 408.91,358.708 408.984,358.284C409.058,357.86 409.182,357.391 409.353,356.875C409.525,356.359 409.672,355.973 409.793,355.715C409.926,355.465 410.215,355.34 410.66,355.34C410.777,355.34 410.93,355.356 411.117,355.39C411.305,355.423 411.469,355.488 411.609,355.586C411.422,355.828 411.178,356.267 410.877,356.901C410.576,357.536 410.32,358.199 410.109,358.891C410.047,359.101 409.994,359.307 409.951,359.506C409.912,359.662 409.892,359.781 409.892,359.863C409.892,359.93 409.901,359.969 409.919,359.98C409.936,359.992 409.959,359.998 409.986,359.998C410.072,359.998 410.226,359.953 410.449,359.863C410.945,359.676 411.391,359.382 411.788,358.981C412.184,358.581 412.502,358.141 412.74,357.66C413.01,357.125 413.144,356.641 413.144,356.207C413.144,355.836 413.031,355.543 412.805,355.328C412.48,355.058 412.027,354.924 411.445,354.924C411.082,354.924 410.68,354.989 410.238,355.12C409.797,355.251 409.379,355.486 408.984,355.826C408.59,356.166 408.316,356.603 408.164,357.139C407.879,356.986 407.66,356.785 407.508,356.535C407.297,356.199 407.191,355.881 407.191,355.58C407.191,355.455 407.215,355.353 407.262,355.275C407.558,354.818 408.004,354.469 408.598,354.226C409.324,353.933 410.133,353.787 411.023,353.787C411.535,353.787 412.057,353.847 412.588,353.966C413.119,354.085 413.543,354.287 413.859,354.572C414.348,355.057 414.592,355.6 414.592,356.201C414.592,356.721 414.445,357.248 414.152,357.783C413.859,358.318 413.464,358.81 412.966,359.26C412.468,359.709 411.937,360.057 411.375,360.303C410.906,360.51 410.459,360.613 410.033,360.613Z" style="fill-rule:nonzero;"/>
            <path d="M417.773,359.787L417.75,359.787C417.277,359.736 417.016,359.432 416.965,358.873C416.812,359.111 416.642,359.295 416.455,359.424C416.267,359.553 416.084,359.617 415.904,359.617C415.588,359.617 415.34,359.519 415.16,359.324C414.894,359.043 414.762,358.637 414.762,358.105C414.762,357.953 414.783,357.751 414.826,357.499C414.869,357.247 414.971,356.971 415.131,356.67C415.291,356.369 415.498,356.122 415.752,355.929C416.006,355.735 416.299,355.639 416.631,355.639C417.142,355.639 417.435,355.873 417.51,356.342L417.627,356.078C417.713,355.902 417.857,355.793 418.06,355.75C418.158,355.73 418.258,355.721 418.359,355.721C418.469,355.721 418.607,355.739 418.775,355.776C418.943,355.813 419.099,355.881 419.244,355.978C419.127,356.139 418.99,356.385 418.834,356.717C418.678,357.049 418.531,357.4 418.394,357.771C418.258,358.142 418.162,358.463 418.107,358.732C418.088,358.838 418.078,358.924 418.078,358.99C418.078,359.115 418.113,359.178 418.183,359.178C418.41,359.178 418.709,358.861 419.08,358.228C419.252,357.939 419.359,357.75 419.402,357.66C419.422,357.629 419.437,357.613 419.449,357.613C419.469,357.613 419.478,357.635 419.478,357.678C419.451,357.998 419.345,358.322 419.159,358.65C418.974,358.978 418.754,359.25 418.5,359.465C418.246,359.68 418.004,359.787 417.773,359.787ZM416.221,359.178C416.353,359.166 416.495,359.028 416.645,358.765C416.796,358.501 416.926,358.193 417.035,357.842C417.148,357.467 417.205,357.144 417.205,356.875C417.205,356.648 417.135,356.531 416.994,356.523C416.865,356.543 416.739,356.642 416.616,356.819C416.493,356.997 416.382,357.217 416.282,357.478C416.182,357.74 416.107,358 416.057,358.258C416.021,358.445 416.004,358.611 416.004,358.756C416.004,358.81 416.01,358.894 416.021,359.008C416.033,359.121 416.099,359.178 416.221,359.178Z" style="fill-rule:nonzero;"/>
            <path d="M419.982,359.816C419.908,359.816 419.815,359.795 419.704,359.752C419.593,359.709 419.506,359.641 419.443,359.547C419.264,359.23 419.174,358.873 419.174,358.475C419.174,358.447 419.177,358.321 419.182,358.097C419.188,357.872 419.248,357.558 419.361,357.153C419.474,356.749 419.588,356.414 419.701,356.148C419.787,355.969 419.932,355.859 420.135,355.82C420.224,355.805 420.316,355.797 420.41,355.797C420.531,355.797 420.68,355.816 420.855,355.855C421.031,355.894 421.191,355.963 421.336,356.06C421.191,356.24 421.003,356.574 420.77,357.062C420.538,357.551 420.371,358.103 420.269,358.721L420.287,358.691C420.576,358.137 420.881,357.623 421.201,357.15C421.775,356.295 422.277,355.816 422.707,355.715L422.807,355.709C423.006,355.709 423.183,355.783 423.34,355.932C423.457,356.045 423.516,356.172 423.516,356.312C423.516,356.391 423.498,356.471 423.463,356.553C423.299,356.885 423.141,357.249 422.991,357.645C422.841,358.042 422.732,358.389 422.666,358.685C422.639,358.807 422.625,358.906 422.625,358.984C422.625,359.113 422.662,359.178 422.736,359.178C422.963,359.178 423.262,358.861 423.633,358.228C423.805,357.939 423.912,357.75 423.955,357.66C423.974,357.629 423.99,357.613 424.002,357.613C424.021,357.613 424.031,357.635 424.031,357.678C424.004,357.998 423.897,358.322 423.712,358.65C423.526,358.978 423.307,359.25 423.053,359.465C422.799,359.68 422.557,359.787 422.326,359.787L422.303,359.787C421.978,359.752 421.758,359.605 421.641,359.348C421.555,359.152 421.512,358.92 421.512,358.65C421.512,358.568 421.522,358.41 421.544,358.176C421.565,357.941 421.637,357.623 421.758,357.221C421.391,357.732 420.957,358.451 420.457,359.377C420.359,359.56 420.289,359.687 420.246,359.758C420.156,359.797 420.068,359.816 419.982,359.816Z" style="fill-rule:nonzero;"/>
            <path d="M424.482,359.787L424.459,359.787C424.127,359.752 423.904,359.603 423.791,359.342C423.705,359.142 423.662,358.912 423.662,358.65C423.662,358.557 423.675,358.389 423.7,358.146C423.725,357.904 423.801,357.58 423.926,357.174C424.051,356.767 424.183,356.402 424.324,356.078C424.414,355.902 424.56,355.793 424.764,355.75C424.861,355.73 424.961,355.721 425.062,355.721C425.172,355.721 425.311,355.739 425.481,355.776C425.651,355.813 425.808,355.881 425.953,355.978C425.836,356.139 425.698,356.385 425.54,356.717C425.382,357.049 425.235,357.4 425.1,357.771C424.966,358.142 424.871,358.463 424.816,358.732C424.797,358.838 424.787,358.924 424.787,358.99C424.787,359.115 424.822,359.178 424.892,359.178C425.01,359.178 425.144,359.094 425.297,358.926C425.508,358.683 425.762,358.295 426.058,357.76C426.105,357.662 426.139,357.613 426.158,357.613C426.174,357.613 426.183,357.635 426.187,357.678C426.16,357.998 426.053,358.322 425.865,358.65C425.678,358.978 425.458,359.25 425.206,359.465C424.954,359.68 424.713,359.787 424.482,359.787ZM425.683,355.504C425.617,355.504 425.543,355.498 425.461,355.486C425.031,355.439 424.816,355.289 424.816,355.035C424.816,354.867 424.883,354.695 425.016,354.519C425.125,354.375 425.308,354.303 425.566,354.303L425.642,354.303C425.943,354.338 426.146,354.398 426.252,354.484C426.338,354.551 426.381,354.641 426.381,354.754L426.375,354.836C426.355,355.125 426.242,355.324 426.035,355.433C425.949,355.48 425.832,355.504 425.683,355.504Z" style="fill-rule:nonzero;"/>
            <path d="M427.336,359.711C427.164,359.711 426.96,359.679 426.724,359.614C426.487,359.55 426.285,359.385 426.117,359.119C425.961,358.846 425.883,358.514 425.883,358.123C425.883,357.896 425.915,357.645 425.979,357.37C426.044,357.095 426.156,356.822 426.316,356.553C426.476,356.283 426.678,356.063 426.92,355.893C427.162,355.724 427.439,355.639 427.752,355.639C428.025,355.639 428.253,355.705 428.434,355.838C428.616,355.971 428.742,356.139 428.812,356.342C428.855,356.463 428.877,356.586 428.877,356.711C428.877,356.797 428.867,356.885 428.848,356.975C428.746,357.365 428.578,357.631 428.344,357.771C428.133,357.896 427.928,357.959 427.728,357.959C427.709,357.959 427.639,357.955 427.517,357.947C427.396,357.939 427.307,357.896 427.248,357.818C427.193,358.029 427.166,358.226 427.166,358.41C427.166,358.504 427.181,358.639 427.21,358.814C427.239,358.99 427.369,359.115 427.599,359.189C427.639,359.201 427.682,359.207 427.728,359.207C427.842,359.207 427.987,359.17 428.165,359.096C428.343,359.021 428.517,358.871 428.689,358.644C428.904,358.324 429.072,358.047 429.193,357.812C429.232,357.746 429.262,357.696 429.281,357.663C429.301,357.63 429.316,357.613 429.328,357.613C429.348,357.613 429.357,357.635 429.357,357.678C429.33,357.994 429.224,358.31 429.041,358.627C428.908,358.865 428.754,359.07 428.578,359.242C428.355,359.449 428.084,359.59 427.764,359.664C427.619,359.695 427.476,359.711 427.336,359.711ZM427.488,357.525C427.711,357.525 427.891,357.48 428.027,357.391C428.223,357.269 428.32,357.094 428.32,356.863C428.32,356.801 428.306,356.729 428.276,356.649C428.247,356.569 428.191,356.527 428.109,356.523C427.996,356.539 427.879,356.617 427.758,356.758C427.637,356.898 427.529,357.078 427.435,357.297C427.4,357.367 427.371,357.441 427.348,357.519L427.488,357.525Z" style="fill-rule:nonzero;"/>
            <path d="M429.785,359.787L429.762,359.787C429.437,359.752 429.224,359.584 429.123,359.283C429.057,359.08 429.023,358.846 429.023,358.58C429.023,358.092 429.123,357.484 429.322,356.758C429.533,355.996 429.781,355.266 430.066,354.566C430.152,354.391 430.297,354.281 430.5,354.238C430.594,354.219 430.687,354.209 430.781,354.209C430.898,354.209 431.043,354.228 431.215,354.267C431.387,354.307 431.543,354.373 431.683,354.467C431.594,354.596 431.447,354.897 431.244,355.372C431.041,355.847 430.836,356.372 430.629,356.948C430.422,357.524 430.266,358.029 430.16,358.463C430.109,358.674 430.084,358.84 430.084,358.961C430.084,359.105 430.121,359.178 430.195,359.178C430.312,359.178 430.447,359.094 430.599,358.926C430.81,358.683 431.064,358.295 431.361,357.76C431.404,357.662 431.437,357.613 431.461,357.613C431.48,357.613 431.49,357.635 431.49,357.678C431.463,357.998 431.356,358.322 431.171,358.65C430.985,358.978 430.766,359.25 430.512,359.465C430.258,359.68 430.016,359.787 429.785,359.787Z" style="fill-rule:nonzero;"/>
        </g>
    </g>
</svg>
