<svg width="258" height="49" viewBox="0 0 258 49" fill="none" xmlns="http://www.w3.org/2000/svg">
<path d="M9.2 37.75C7.76667 37.75 7.05 37 7.05 35.5C7.05 34.7667 7.18333 33.9667 7.45 33.1C6.85 32.9667 6.15 32.7667 5.35 32.5C4.58333 32.2333 3.83333 31.9 3.1 31.5C2.36667 31.0667 1.75 30.55 1.25 29.95C0.783333 29.35 0.55 28.6667 0.55 27.9C0.55 27.0333 0.833333 26.2167 1.4 25.45C1.96667 24.6833 2.55 24.0333 3.15 23.5C4.15 22.5667 5.36667 21.7333 6.8 21C8.23333 20.2667 9.71667 19.6333 11.25 19.1C12.8167 18.5667 14.25 18.1333 15.55 17.8C16.45 16.4333 17.3667 15.0833 18.3 13.75C19.2667 12.3833 20.2167 11.0333 21.15 9.7C21.6833 9 22.2 8.3 22.7 7.6C23.2333 6.86666 23.7833 6.18333 24.35 5.55C24.3167 5.28333 24.4333 4.93333 24.7 4.5C25 4.06667 25.3167 3.65 25.65 3.25C26.0167 2.81667 26.2833 2.5 26.45 2.3C25.95 2.26667 25.45 2.25 24.95 2.25C24.4833 2.21667 24 2.2 23.5 2.2C22.1667 2.2 20.8333 2.26667 19.5 2.4C18.1667 2.5 16.85 2.66666 15.55 2.9C14.4833 3.1 13.25 3.41667 11.85 3.85C10.45 4.28333 9.08333 4.85 7.75 5.55C6.45 6.25 5.36667 7.11667 4.5 8.15C3.66667 9.18333 3.25 10.3833 3.25 11.75C3.25 12.5833 3.41667 13.35 3.75 14.05C4.11667 14.7167 4.51667 15.3 4.95 15.8C5.41667 16.3 5.81667 16.7 6.15 17C6.51667 17.3 6.7 17.5 6.7 17.6C6.7 17.6667 6.63333 17.7 6.5 17.7C6.36667 17.7 6.23333 17.6667 6.1 17.6C5.96667 17.5333 5.85 17.4833 5.75 17.45C5.05 16.9833 4.31667 16.4 3.55 15.7C2.78333 15 2.13333 14.2333 1.6 13.4C1.1 12.5333 0.85 11.6333 0.85 10.7C0.85 9.56667 1.2 8.56667 1.9 7.7C2.6 6.8 3.51667 6.01667 4.65 5.35C5.78333 4.68333 7 4.11667 8.3 3.65C9.6 3.18333 10.85 2.81666 12.05 2.55C13.2833 2.25 14.3167 2.03333 15.15 1.9C16.55 1.66666 17.9667 1.5 19.4 1.4C20.8333 1.26666 22.2667 1.2 23.7 1.2C24.9 1.2 26.0667 1.25 27.2 1.35C27.4 0.949999 27.8 0.666666 28.4 0.499997C29.0333 0.333331 29.5333 0.249997 29.9 0.249997C30.0667 0.249997 30.3 0.283331 30.6 0.349999C30.9 0.383332 31.05 0.516666 31.05 0.75C31.05 0.883332 30.95 1.05 30.75 1.25C30.55 1.45 30.4 1.6 30.3 1.7C31.8667 1.96666 33.5167 2.4 35.25 3C36.9833 3.56667 38.6167 4.35 40.15 5.35C41.6833 6.31667 42.9167 7.5 43.85 8.9C44.8167 10.3 45.3 11.9333 45.3 13.8C45.3 15.4333 44.9167 16.9833 44.15 18.45C43.4167 19.8833 42.4167 21.2167 41.15 22.45C39.9167 23.6833 38.55 24.8167 37.05 25.85C35.55 26.85 34.0333 27.75 32.5 28.55C31 29.3167 29.6 29.9833 28.3 30.55C25.9667 31.5167 23.4667 32.2833 20.8 32.85C18.1667 33.45 15.5833 33.75 13.05 33.75C12.1833 33.75 11.3 33.7 10.4 33.6C10.3667 33.9 10.3167 34.1833 10.25 34.45C10.2167 34.75 10.2 35.0333 10.2 35.3C10.2 35.5667 10.25 35.8667 10.35 36.2C10.45 36.5667 10.6833 36.75 11.05 36.75C11.5167 36.75 11.9667 36.5667 12.4 36.2C12.8333 35.8667 13.2167 35.5167 13.55 35.15C13.8833 34.8167 14.1167 34.65 14.25 34.65C14.3167 34.65 14.35 34.7 14.35 34.8C14.35 34.8333 14.3333 34.85 14.3 34.85C14.3 34.8833 14.3 34.9167 14.3 34.95C14.2333 35.3167 14.0333 35.6833 13.7 36.05C13.3667 36.45 13.0167 36.7333 12.65 36.9C12.2167 37.1 11.6667 37.2833 11 37.45C10.3333 37.65 9.73333 37.75 9.2 37.75ZM10.65 32.55H10.95C12.6833 32.55 14.5 32.3667 16.4 32C18.3 31.6 20.1667 31.1 22 30.5C23.8333 29.8667 25.5167 29.2 27.05 28.5C28.15 28 29.4 27.3833 30.8 26.65C32.2333 25.8833 33.6667 25.0333 35.1 24.1C36.5333 23.1333 37.85 22.0833 39.05 20.95C40.2833 19.7833 41.2667 18.55 42 17.25C42.7667 15.9167 43.15 14.5167 43.15 13.05C43.15 11.4167 42.7 10 41.8 8.8C40.9 7.56666 39.7333 6.53333 38.3 5.7C36.9 4.86667 35.4167 4.2 33.85 3.7C32.2833 3.2 30.8333 2.85 29.5 2.65C27.5333 4.95 25.6167 7.3 23.75 9.7C21.9167 12.1 20.1667 14.55 18.5 17.05C20.5667 16.5833 22.6833 16.2167 24.85 15.95C27.05 15.65 29.2167 15.5 31.35 15.5C31.35 15.5 31.4167 15.5 31.55 15.5C31.7167 15.5 31.8 15.5333 31.8 15.6C31.8 15.7 31.7167 15.7667 31.55 15.8C31.3833 15.8333 31.2833 15.85 31.25 15.85C26.6833 16.1833 22.1333 17.0333 17.6 18.4C16.2667 20.4333 14.9333 22.7 13.6 25.2C12.3 27.7 11.3167 30.15 10.65 32.55ZM7.75 32.2C8.51667 29.9333 9.51667 27.7333 10.75 25.6C12.0167 23.4667 13.2833 21.3833 14.55 19.35C13.75 19.65 12.7 20.0667 11.4 20.6C10.1 21.1 8.8 21.7167 7.5 22.45C6.23333 23.1833 5.15 24 4.25 24.9C3.38333 25.8 2.95 26.7667 2.95 27.8C2.95 28.6 3.2 29.3 3.7 29.9C4.23333 30.5 4.86667 31 5.6 31.4C6.36667 31.7667 7.08333 32.0333 7.75 32.2ZM56.1637 32.4C55.2637 32.4 54.6637 32.05 54.3637 31.35C54.0637 30.6167 53.9137 29.8833 53.9137 29.15C53.9137 28.3167 53.9803 27.4833 54.1137 26.65C54.247 25.8167 54.397 25 54.5637 24.2C54.2303 24.7667 53.697 25.5 52.9637 26.4C52.2303 27.3 51.4137 28.2167 50.5137 29.15C49.6137 30.05 48.697 30.8167 47.7637 31.45C46.8637 32.05 46.0637 32.35 45.3637 32.35C44.9637 32.35 44.697 32.2167 44.5637 31.95C44.4637 31.6833 44.4137 31.3833 44.4137 31.05C44.4137 30.35 44.5803 29.4667 44.9137 28.4C45.247 27.3333 45.7137 26.2167 46.3137 25.05C46.9137 23.85 47.5803 22.75 48.3137 21.75C49.0803 20.75 49.8637 19.95 50.6637 19.35C51.497 18.7167 52.3303 18.4333 53.1637 18.5C53.5303 18.3 53.9303 18.1167 54.3637 17.95C54.797 17.7833 55.2303 17.7 55.6637 17.7C55.997 17.7 56.3303 17.7333 56.6637 17.8C57.0303 17.8333 57.3803 17.8833 57.7137 17.95C57.8803 17.8833 58.0637 17.8167 58.2637 17.75C58.4637 17.6833 58.6637 17.65 58.8637 17.65C59.2303 17.65 59.4137 17.8167 59.4137 18.15C59.4137 18.3167 59.3137 18.65 59.1137 19.15C58.947 19.6167 58.747 20.0667 58.5137 20.5C58.3137 20.9 58.147 21.1333 58.0137 21.2C57.7137 21.8 57.4303 22.5833 57.1637 23.55C56.897 24.4833 56.6803 25.45 56.5137 26.45C56.347 27.45 56.2637 28.3 56.2637 29C56.2637 29.3667 56.3137 29.7833 56.4137 30.25C56.547 30.6833 56.8637 30.9 57.3637 30.9C57.9303 30.9 58.497 30.6833 59.0637 30.25C59.6637 29.7833 60.1803 29.3333 60.6137 28.9C61.047 28.4333 61.297 28.2 61.3637 28.2C61.4303 28.2 61.4637 28.2333 61.4637 28.3C61.4637 28.6 61.297 28.95 60.9637 29.35C60.6303 29.75 60.2637 30.1333 59.8637 30.5C59.4637 30.8333 59.1637 31.0833 58.9637 31.25C58.5637 31.55 58.1137 31.8167 57.6137 32.05C57.147 32.2833 56.6637 32.4 56.1637 32.4ZM47.1137 30.65C47.2803 30.65 47.4803 30.5833 47.7137 30.45C47.947 30.2833 48.1303 30.15 48.2637 30.05C50.2637 28.6167 51.8303 26.9667 52.9637 25.1C54.097 23.2333 55.197 21.2333 56.2637 19.1C56.1303 19.0333 55.9803 18.9833 55.8137 18.95C55.647 18.9167 55.4803 18.9 55.3137 18.9C54.6803 18.9 54.047 19.0667 53.4137 19.4C52.8137 19.7333 52.3137 20.1333 51.9137 20.6C51.2803 21.2667 50.6303 22.15 49.9637 23.25C49.3303 24.3167 48.747 25.4333 48.2137 26.6C47.6803 27.7333 47.2803 28.75 47.0137 29.65C46.9803 29.75 46.947 29.85 46.9137 29.95C46.8803 30.05 46.8637 30.1667 46.8637 30.3C46.8637 30.5333 46.947 30.65 47.1137 30.65ZM61.0805 32.75C60.8471 32.75 60.7471 32.6667 60.7805 32.5C61.7138 30.9 62.5638 29.2667 63.3305 27.6C64.1305 25.9333 64.8805 24.25 65.5805 22.55C65.5805 22.4833 65.6471 22.3 65.7805 22C65.9138 21.6667 65.9805 21.4833 65.9805 21.45C65.9805 21.35 65.8971 21.3167 65.7305 21.35C65.5638 21.3833 65.4805 21.3333 65.4805 21.2C65.4805 21.1333 65.6138 20.8833 65.8805 20.45C66.1471 19.9833 66.4305 19.5167 66.7305 19.05C67.0305 18.55 67.2138 18.25 67.2805 18.15C67.4471 17.95 67.7638 17.75 68.2305 17.55C68.6971 17.35 69.0471 17.25 69.2805 17.25C69.6138 17.25 69.7805 17.4 69.7805 17.7C69.7805 17.8 69.6638 18.1333 69.4305 18.7C69.1971 19.2667 68.8971 19.9333 68.5305 20.7C68.1638 21.4667 67.7971 22.25 67.4305 23.05C67.0638 23.85 66.7305 24.55 66.4305 25.15C66.1305 25.75 65.9305 26.15 65.8305 26.35C66.0971 26.0167 66.5305 25.5333 67.1305 24.9C67.7638 24.2333 68.4638 23.5167 69.2305 22.75C70.0305 21.9833 70.8305 21.25 71.6305 20.55C72.4305 19.8167 73.1471 19.2333 73.7805 18.8C74.4471 18.3333 74.9638 18.1 75.3305 18.1C75.5971 18.1 75.7471 18.2 75.7805 18.4C75.8471 18.6 75.8805 18.7833 75.8805 18.95C75.8805 19.3833 75.8305 19.8333 75.7305 20.3C75.6305 20.7667 75.5138 21.2167 75.3805 21.65C75.1138 22.65 74.7805 23.8333 74.3805 25.2C74.0138 26.5333 73.8305 27.7 73.8305 28.7C73.8305 29.2 73.9138 29.6667 74.0805 30.1C74.2805 30.5 74.6805 30.7 75.2805 30.7C75.7471 30.7 76.2305 30.55 76.7305 30.25C77.2638 29.95 77.7471 29.6 78.1805 29.2C78.6471 28.7667 79.0471 28.4 79.3805 28.1C79.7471 27.8 79.9805 27.65 80.0805 27.65C80.1138 27.65 80.1305 27.6833 80.1305 27.75C80.1305 27.85 80.0971 27.9833 80.0305 28.15C79.9971 28.2833 79.9471 28.3833 79.8805 28.45C79.3471 29.2833 78.5638 30.0833 77.5305 30.85C76.5305 31.6167 75.5305 32 74.5305 32C73.4971 32 72.7138 31.7 72.1805 31.1C71.6805 30.4667 71.4305 29.65 71.4305 28.65C71.4305 27.7833 71.5805 26.8167 71.8805 25.75C72.2138 24.6833 72.4971 23.7167 72.7305 22.85C72.7971 22.5833 72.8805 22.2667 72.9805 21.9C73.1138 21.5333 73.1805 21.2167 73.1805 20.95C73.1805 20.8833 73.1638 20.8 73.1305 20.7C73.0971 20.6 73.0305 20.55 72.9305 20.55C72.7638 20.55 72.5471 20.65 72.2805 20.85C72.0471 21.0167 71.8638 21.15 71.7305 21.25C71.0971 21.7833 70.3805 22.4667 69.5805 23.3C68.8138 24.1333 68.0471 25.05 67.2805 26.05C66.5138 27.0167 65.8138 27.9667 65.1805 28.9C64.5471 29.8333 64.0471 30.6667 63.6805 31.4C63.6138 31.5667 63.3971 31.7667 63.0305 32C62.6971 32.2 62.3305 32.3667 61.9305 32.5C61.5638 32.6667 61.2805 32.75 61.0805 32.75ZM84.9027 15.8C84.8027 15.8 84.7361 15.6833 84.7027 15.45C84.7027 15.1833 84.7027 15.0167 84.7027 14.95C84.7027 14.85 84.7194 14.6333 84.7527 14.3C84.7861 13.9667 84.8861 13.7833 85.0527 13.75C85.5194 13.6833 85.9861 13.6 86.4527 13.5C86.9194 13.4 87.3861 13.2833 87.8527 13.15C87.9194 13.1167 88.0194 13.1 88.1527 13.1C88.3194 13.1 88.4027 13.1833 88.4027 13.35C88.4027 13.7167 88.1694 14.1 87.7027 14.5C87.2694 14.8667 86.7694 15.1833 86.2027 15.45C85.6694 15.6833 85.2361 15.8 84.9027 15.8ZM80.8527 32C79.2194 32 78.4027 31.1667 78.4027 29.5C78.4027 28.8 78.5027 28.0833 78.7027 27.35C78.9361 26.6167 79.1861 25.9333 79.4527 25.3C79.7527 24.5667 80.0861 23.85 80.4527 23.15C80.8194 22.45 81.1861 21.75 81.5527 21.05C81.7194 20.75 81.8694 20.45 82.0027 20.15C82.1694 19.8167 82.3361 19.5 82.5027 19.2C82.6694 18.9667 82.9861 18.7667 83.4527 18.6C83.9194 18.4333 84.2861 18.35 84.5527 18.35C84.5861 18.35 84.5861 18.3667 84.5527 18.4C84.5194 18.4 84.5027 18.4 84.5027 18.4C84.5361 18.4 84.5527 18.4167 84.5527 18.45C84.6194 18.3833 84.7027 18.35 84.8027 18.35C84.9361 18.35 85.0194 18.4167 85.0527 18.55C85.0861 18.65 85.1027 18.75 85.1027 18.85C85.1027 19.0833 85.0027 19.4333 84.8027 19.9C84.6361 20.3667 84.4194 20.8167 84.1527 21.25C83.9194 21.65 83.6861 21.9 83.4527 22C83.1527 22.7 82.7527 23.4667 82.2527 24.3C81.7861 25.1333 81.3527 25.9833 80.9527 26.85C80.5527 27.6833 80.3527 28.5 80.3527 29.3C80.3527 30.2333 80.8527 30.7 81.8527 30.7C82.3194 30.7 82.8194 30.55 83.3527 30.25C83.9194 29.95 84.4694 29.6 85.0027 29.2C85.5361 28.7667 85.9861 28.4 86.3527 28.1C86.7527 27.8 87.0027 27.65 87.1027 27.65C87.1361 27.65 87.1527 27.6667 87.1527 27.7C87.1527 27.8333 87.1027 27.9833 87.0027 28.15C86.9027 28.2833 86.8194 28.3833 86.7527 28.45C86.3527 28.9833 85.8194 29.5333 85.1527 30.1C84.4861 30.6333 83.7694 31.0833 83.0027 31.45C82.2694 31.8167 81.5527 32 80.8527 32ZM87.4328 32.35C86.6995 32.35 86.2161 32.2333 85.9828 32C85.7495 31.7667 85.6328 31.2833 85.6328 30.55C85.6328 29.75 85.8161 28.8333 86.1828 27.8C86.5828 26.7667 86.9495 25.9 87.2828 25.2C87.2828 25.1667 87.2661 25.15 87.2328 25.15C87.2328 25.1167 87.2328 25.0833 87.2328 25.05C87.2328 24.8833 87.2828 24.75 87.3828 24.65C87.5161 24.55 87.6161 24.45 87.6828 24.35C87.8495 24.0833 87.9995 23.8167 88.1328 23.55C88.2661 23.2833 88.3995 23.0333 88.5328 22.8C89.0995 21.9 89.7828 21.0333 90.5828 20.2C91.4161 19.3667 92.3495 18.8 93.3828 18.5C93.7495 18.4 94.0995 18.35 94.4328 18.35C94.4995 18.35 94.5661 18.3667 94.6328 18.4C94.7328 18.4 94.7828 18.4333 94.7828 18.5C94.7828 18.6 94.6828 18.7167 94.4828 18.85C94.3161 18.9833 94.1995 19.0833 94.1328 19.15C93.5995 19.5833 93.0161 20.25 92.3828 21.15C91.7828 22.05 91.2995 22.7833 90.9328 23.35C91.6995 23.2167 92.4495 23.1167 93.1828 23.05C93.9495 22.9833 94.6995 22.9833 95.4328 23.05C95.7995 22.5167 96.1328 21.8667 96.4328 21.1C96.7661 20.3 96.9328 19.5667 96.9328 18.9C96.9328 18.5333 96.8828 18.3167 96.7828 18.25C96.7161 18.1833 96.5328 18.15 96.2328 18.15C96.1661 18.15 96.0661 18.1333 95.9328 18.1C95.7995 18.0667 95.7328 18 95.7328 17.9C95.7328 17.7667 95.8828 17.65 96.1828 17.55C96.4828 17.45 96.7995 17.3833 97.1328 17.35C97.4661 17.2833 97.6828 17.25 97.7828 17.25C98.6828 17.25 99.1328 17.6667 99.1328 18.5C99.1328 18.9667 98.9828 19.5333 98.6828 20.2C98.4161 20.8333 98.0661 21.4333 97.6328 22C97.2328 22.5333 96.8328 22.9167 96.4328 23.15C96.5328 23.15 96.7328 23.2 97.0328 23.3C97.3661 23.3667 97.6661 23.45 97.9328 23.55C98.2328 23.65 98.3828 23.7667 98.3828 23.9C98.3828 24 98.2828 24.0667 98.0828 24.1C97.8828 24.1 97.7495 24.1 97.6828 24.1C97.3828 24.1 97.0828 24.0833 96.7828 24.05C96.4828 23.9833 96.1828 23.95 95.8828 23.95C94.9495 23.95 93.9995 24.0167 93.0328 24.15C92.0995 24.2833 91.1661 24.45 90.2328 24.65C89.8995 25.25 89.5161 26.0167 89.0828 26.95C88.6828 27.8833 88.4828 28.7167 88.4828 29.45C88.4828 30.6167 89.0828 31.2 90.2828 31.2C91.1495 31.2 91.9828 30.9667 92.7828 30.5C93.6161 30.0333 94.3828 29.4833 95.0828 28.85C95.7828 28.2167 96.3495 27.6667 96.7828 27.2C97.2161 26.7333 97.4661 26.5 97.5328 26.5C97.6328 26.5 97.6828 26.5667 97.6828 26.7C97.6828 27.1 97.4495 27.5833 96.9828 28.15C96.5161 28.6833 96.1328 29.0667 95.8328 29.3C94.6661 30.2 93.3495 30.9333 91.8828 31.5C90.4495 32.0667 88.9661 32.35 87.4328 32.35ZM99.5898 32.1C98.6565 32.1 98.1898 31.6167 98.1898 30.65C98.1898 30.2167 98.2565 29.75 98.3898 29.25C98.5565 28.75 98.7065 28.3 98.8398 27.9C99.7398 25.5667 100.84 23.1333 102.14 20.6C103.44 18.0333 104.823 15.5333 106.29 13.1C107.757 10.6333 109.19 8.36667 110.59 6.3C110.523 6.03333 110.49 5.8 110.49 5.6C110.49 5.43333 110.507 5.3 110.54 5.2C110.64 5.06667 110.823 4.78333 111.09 4.35C111.357 3.91666 111.623 3.5 111.89 3.1C112.19 2.66667 112.373 2.41667 112.44 2.35C112.607 2.15 112.923 2 113.39 1.9C113.89 1.8 114.273 1.75 114.54 1.75C114.707 1.75 114.957 1.78333 115.29 1.85C115.657 1.88333 115.84 2.01666 115.84 2.25C115.84 2.35 115.823 2.4 115.79 2.4C115.257 3.16667 114.707 3.95 114.14 4.75C113.607 5.51667 113.073 6.28333 112.54 7.05C110.607 9.95 108.79 12.9167 107.09 15.95C105.423 18.95 103.823 22 102.29 25.1C101.99 25.6667 101.657 26.3833 101.29 27.25C100.957 28.1167 100.79 28.8667 100.79 29.5C100.79 30.1333 101.04 30.45 101.54 30.45C101.973 30.45 102.457 30.3 102.99 30C103.523 29.7 104.023 29.3667 104.49 29C104.99 28.6 105.407 28.25 105.74 27.95C106.107 27.65 106.34 27.5 106.44 27.5C106.507 27.5 106.54 27.5667 106.54 27.7C106.54 27.8333 106.473 28.0167 106.34 28.25C106.24 28.45 106.14 28.6167 106.04 28.75C105.44 29.45 104.59 30.1167 103.49 30.75C102.39 31.3833 101.407 31.8 100.54 32C100.407 32.0333 100.257 32.05 100.09 32.05C99.9232 32.0833 99.7565 32.1 99.5898 32.1ZM113.791 48.7C112.891 48.7 111.958 48.5333 110.991 48.2C110.025 47.9 109.208 47.4 108.541 46.7C107.875 46.0333 107.541 45.1667 107.541 44.1C107.541 43.1333 107.825 42.25 108.391 41.45C108.925 40.65 109.625 39.9167 110.491 39.25C111.325 38.6167 112.208 38.05 113.141 37.55C114.075 37.05 114.908 36.65 115.641 36.35C117.508 35.5833 119.541 35 121.741 34.6C123.975 34.2 126.091 33.9333 128.091 33.8C128.691 32.2667 129.291 30.7333 129.891 29.2C130.525 27.6667 131.008 26.0833 131.341 24.45L131.541 23.5C131.108 24.0667 130.508 24.8333 129.741 25.8C129.008 26.7667 128.191 27.75 127.291 28.75C126.425 29.75 125.541 30.6 124.641 31.3C123.741 31.9667 122.941 32.3 122.241 32.3C121.675 32.3 121.291 32.0667 121.091 31.6C120.891 31.1 120.791 30.6167 120.791 30.15C120.791 28.8833 121.075 27.6833 121.641 26.55C122.208 25.3833 122.775 24.2667 123.341 23.2L123.191 23.25C122.991 23.25 122.891 23.15 122.891 22.95C122.891 22.9167 122.925 22.8333 122.991 22.7C123.425 21.9 123.791 21.2167 124.091 20.65C124.391 20.0833 124.791 19.65 125.291 19.35C125.791 19.05 126.558 18.9 127.591 18.9C127.791 18.9 127.891 18.9833 127.891 19.15C127.891 19.4167 127.708 19.8667 127.341 20.5C126.975 21.1333 126.575 21.7833 126.141 22.45C125.708 23.0833 125.408 23.5333 125.241 23.8C124.975 24.2 124.658 24.7833 124.291 25.55C123.925 26.3167 123.608 27.0833 123.341 27.85C123.075 28.5833 122.941 29.1833 122.941 29.65C122.941 29.8167 122.975 29.9833 123.041 30.15C123.108 30.2833 123.241 30.35 123.441 30.35C123.875 30.35 124.425 30.1 125.091 29.6C125.758 29.0667 126.458 28.4 127.191 27.6C127.925 26.8 128.641 25.9667 129.341 25.1C130.041 24.2 130.641 23.3833 131.141 22.65C131.675 21.8833 132.058 21.2833 132.291 20.85C132.558 20.3833 132.741 19.9 132.841 19.4C132.941 18.8667 133.258 18.4333 133.791 18.1C134.025 17.9667 134.325 17.8333 134.691 17.7C135.058 17.5333 135.358 17.45 135.591 17.45C135.925 17.45 136.091 17.6167 136.091 17.95C136.091 18.4167 135.925 18.9 135.591 19.4C135.291 19.8667 135.025 20.3 134.791 20.7C134.491 21.2667 134.208 21.95 133.941 22.75C133.708 23.5167 133.491 24.2333 133.291 24.9C132.758 26.3667 132.241 27.85 131.741 29.35C131.275 30.8167 130.708 32.2833 130.041 33.75H131.041C131.308 33.75 131.558 33.7667 131.791 33.8C132.058 33.8333 132.191 33.9333 132.191 34.1C132.191 34.2667 132.008 34.3667 131.641 34.4C131.308 34.4333 130.941 34.4333 130.541 34.4C130.175 34.4 129.925 34.4 129.791 34.4C129.125 36 128.275 37.6333 127.241 39.3C126.241 41 125.058 42.55 123.691 43.95C122.358 45.3833 120.875 46.5333 119.241 47.4C117.575 48.2667 115.758 48.7 113.791 48.7ZM113.591 47.65C115.225 47.65 116.775 47.2 118.241 46.3C119.675 45.4333 120.991 44.3167 122.191 42.95C123.425 41.5833 124.508 40.1333 125.441 38.6C126.408 37.1 127.191 35.7167 127.791 34.45C125.925 34.5833 123.925 34.8667 121.791 35.3C119.658 35.7667 117.758 36.4333 116.091 37.3C115.258 37.7 114.341 38.25 113.341 38.95C112.308 39.65 111.425 40.45 110.691 41.35C109.925 42.2833 109.541 43.2833 109.541 44.35C109.541 45.4833 109.975 46.3167 110.841 46.85C111.675 47.3833 112.591 47.65 113.591 47.65ZM155.513 37.9C154.046 37.9 153.313 37.15 153.313 35.65C153.313 34.5833 153.63 33.25 154.263 31.65C154.896 30.0167 155.746 28.2333 156.813 26.3C157.88 24.3667 159.046 22.4 160.313 20.4C161.613 18.3667 162.913 16.4 164.213 14.5C165.513 12.6 166.713 10.8833 167.813 9.35C168.946 7.81667 169.88 6.58333 170.613 5.65C170.58 5.38333 170.696 5.05 170.963 4.65C171.23 4.25 171.53 3.86667 171.863 3.5C172.196 3.13333 172.43 2.85 172.563 2.65C172.296 2.61667 172.03 2.6 171.763 2.6C171.496 2.6 171.23 2.6 170.963 2.6C168.863 2.6 166.696 2.81667 164.463 3.25C162.263 3.65 160.163 4.33333 158.163 5.3C156.163 6.26667 154.43 7.56667 152.963 9.2C152.43 9.83333 151.88 10.6167 151.313 11.55C150.78 12.4833 150.513 13.3833 150.513 14.25C150.513 14.7833 150.613 15.2 150.813 15.5C151.046 15.7667 151.263 15.9667 151.463 16.1C151.696 16.2333 151.813 16.3833 151.813 16.55C151.813 16.6167 151.746 16.65 151.613 16.65C150.68 16.65 149.996 16.2333 149.563 15.4C149.13 14.5667 148.913 13.7667 148.913 13C148.913 12.2 149.063 11.4333 149.363 10.7C149.696 9.93333 150.113 9.23333 150.613 8.6C151.78 7.16667 153.28 6 155.113 5.1C156.98 4.16666 158.996 3.43333 161.163 2.9C163.33 2.36666 165.48 2 167.613 1.8C169.78 1.6 171.713 1.51667 173.413 1.55C173.446 1.51667 173.496 1.45 173.563 1.35C173.663 1.21666 173.713 1.13333 173.713 1.1C174.046 0.833331 174.463 0.633331 174.963 0.499997C175.496 0.366666 175.963 0.3 176.363 0.3C176.463 0.3 176.646 0.333333 176.913 0.399999C177.213 0.433331 177.363 0.549999 177.363 0.75C177.363 0.883332 177.263 1.05 177.063 1.25C176.863 1.45 176.73 1.6 176.663 1.7C177.463 1.76667 178.413 1.9 179.513 2.1C180.646 2.26666 181.746 2.56666 182.813 3C183.88 3.4 184.763 3.96667 185.463 4.7C186.196 5.4 186.563 6.31667 186.563 7.45C186.563 8.51667 186.246 9.58333 185.613 10.65C185.013 11.7167 184.196 12.7333 183.163 13.7C182.163 14.6333 181.063 15.4833 179.863 16.25C178.663 17.0167 177.463 17.6333 176.263 18.1C175.063 18.5667 173.98 18.8333 173.013 18.9C173.613 18.9333 174.18 19 174.713 19.1C175.28 19.1667 175.846 19.3333 176.413 19.6C177.28 20 178.08 20.5333 178.813 21.2C179.546 21.8333 179.913 22.6833 179.913 23.75C179.913 24.15 179.83 24.6 179.663 25.1C180.263 25.5 180.563 26.1167 180.563 26.95C180.563 27.0167 180.53 27.2 180.463 27.5C180.43 27.7667 180.33 27.9 180.163 27.9C180.096 27.9 180.046 27.8333 180.013 27.7C180.013 27.5667 179.996 27.4833 179.963 27.45C179.93 27.15 179.863 26.9 179.763 26.7C179.696 26.4667 179.53 26.25 179.263 26.05C178.663 27.1833 177.713 28.3167 176.413 29.45C175.113 30.5833 173.646 31.6 172.013 32.5C170.38 33.4 168.746 34.1167 167.113 34.65C165.48 35.2167 164.013 35.5 162.713 35.5C161.98 35.5 161.246 35.35 160.513 35.05C159.78 34.75 159.413 34.1667 159.413 33.3C159.413 32.5333 159.646 31.8 160.113 31.1C160.613 30.4 161.23 29.75 161.963 29.15C162.696 28.55 163.446 28.0333 164.213 27.6C164.98 27.1333 165.646 26.7667 166.213 26.5C167.08 26.1 168.13 25.75 169.363 25.45C170.596 25.1167 171.846 24.85 173.113 24.65C174.38 24.4167 175.463 24.3 176.363 24.3C176.43 24.1333 176.48 23.95 176.513 23.75C176.546 23.55 176.563 23.35 176.563 23.15C176.563 22.25 176.313 21.55 175.813 21.05C175.346 20.55 174.746 20.1833 174.013 19.95C173.28 19.6833 172.546 19.5167 171.813 19.45C170.68 19.95 169.446 20.2 168.113 20.2C167.98 20.2 167.696 20.1833 167.263 20.15C166.863 20.1167 166.463 20.05 166.063 19.95C165.696 19.8167 165.513 19.6333 165.513 19.4C165.513 19.1333 165.78 18.9333 166.313 18.8C166.846 18.6667 167.413 18.5667 168.013 18.5C168.613 18.4333 168.98 18.4 169.113 18.4C170.046 18.3333 170.963 18.2 171.863 18C172.796 17.7667 173.696 17.4833 174.563 17.15C175.396 16.8167 176.313 16.3667 177.313 15.8C178.346 15.2 179.33 14.5167 180.263 13.75C181.196 12.9833 181.963 12.1333 182.563 11.2C183.163 10.2667 183.463 9.3 183.463 8.3C183.463 7.36666 183.196 6.58333 182.663 5.95C182.13 5.28333 181.446 4.75 180.613 4.35C179.78 3.95 178.913 3.63333 178.013 3.4C177.113 3.16666 176.313 3 175.613 2.9C173.946 4.83333 172.18 7.01666 170.313 9.45C168.446 11.85 166.613 14.3667 164.813 17C163.046 19.6333 161.463 22.2833 160.063 24.95C158.696 27.6167 157.663 30.1667 156.963 32.6C156.83 33.0333 156.696 33.5 156.563 34C156.463 34.5333 156.413 35.0333 156.413 35.5C156.413 35.7667 156.463 36.0667 156.563 36.4C156.663 36.7667 156.896 36.95 157.263 36.95C157.563 36.95 157.846 36.9 158.113 36.8C158.413 36.7333 158.713 36.7 159.013 36.7C159.013 36.7 159.063 36.7 159.163 36.7C159.296 36.7 159.363 36.7333 159.363 36.8C159.363 36.9333 159.08 37.0833 158.513 37.25C157.98 37.45 157.396 37.6 156.763 37.7C156.13 37.8333 155.713 37.9 155.513 37.9ZM163.713 34.25C164.78 34.25 165.93 33.9667 167.163 33.4C168.396 32.8333 169.613 32.1 170.813 31.2C172.013 30.2667 173.063 29.2833 173.963 28.25C174.896 27.1833 175.58 26.1833 176.013 25.25C175.113 25.25 174.046 25.3667 172.813 25.6C171.58 25.8333 170.363 26.1333 169.163 26.5C167.963 26.8667 166.963 27.2833 166.163 27.75C165.663 28.05 165.063 28.4667 164.363 29C163.663 29.5333 163.046 30.1333 162.513 30.8C161.98 31.4667 161.713 32.1333 161.713 32.8C161.713 33.3333 161.93 33.7 162.363 33.9C162.796 34.1333 163.246 34.25 163.713 34.25ZM182.418 32.75C182.185 32.75 182.085 32.6667 182.118 32.5C182.985 30.9667 183.752 29.4 184.418 27.8C185.085 26.1667 185.735 24.5333 186.368 22.9L186.918 21.45C186.918 21.35 186.835 21.3167 186.668 21.35C186.502 21.3833 186.418 21.3333 186.418 21.2C186.418 21.1333 186.552 20.8833 186.818 20.45C187.085 19.9833 187.368 19.5167 187.668 19.05C187.968 18.55 188.152 18.25 188.218 18.15C188.352 17.95 188.652 17.75 189.118 17.55C189.585 17.35 189.935 17.25 190.168 17.25C190.535 17.25 190.718 17.4 190.718 17.7C190.718 17.8 190.702 17.9 190.668 18C190.635 18.1 190.602 18.1833 190.568 18.25C190.068 19.45 189.518 20.65 188.918 21.85C188.352 23.0167 187.885 24.2333 187.518 25.5C188.485 24.3333 189.535 23.2 190.668 22.1C191.835 20.9667 193.018 19.9333 194.218 19C194.552 18.7333 194.918 18.4833 195.318 18.25C195.752 18.0167 196.185 17.9 196.618 17.9C197.152 17.9 197.485 18.1 197.618 18.5C197.752 18.8667 197.818 19.25 197.818 19.65C197.818 20.1833 197.652 20.75 197.318 21.35C196.985 21.95 196.502 22.25 195.868 22.25C195.602 22.25 195.468 22.15 195.468 21.95C195.468 21.7833 195.485 21.65 195.518 21.55C195.552 21.4167 195.568 21.2833 195.568 21.15C195.568 20.9833 195.502 20.7833 195.368 20.55C195.235 20.3167 195.085 20.2 194.918 20.2C194.485 20.2 193.902 20.4667 193.168 21C192.435 21.5333 191.668 22.1833 190.868 22.95C190.102 23.7167 189.402 24.4667 188.768 25.2C188.168 25.9 187.735 26.4167 187.468 26.75C187.102 27.2833 186.785 27.8333 186.518 28.4C186.252 28.9333 186.035 29.4833 185.868 30.05C185.802 30.25 185.735 30.4667 185.668 30.7C185.602 30.9 185.535 31.0833 185.468 31.25C185.402 31.4167 185.152 31.6333 184.718 31.9C184.285 32.1333 183.835 32.3333 183.368 32.5C182.935 32.6667 182.618 32.75 182.418 32.75ZM202.774 15.8C202.674 15.8 202.607 15.6833 202.574 15.45C202.574 15.1833 202.574 15.0167 202.574 14.95C202.574 14.85 202.59 14.6333 202.624 14.3C202.657 13.9667 202.757 13.7833 202.924 13.75C203.39 13.6833 203.857 13.6 204.324 13.5C204.79 13.4 205.257 13.2833 205.724 13.15C205.79 13.1167 205.89 13.1 206.024 13.1C206.19 13.1 206.274 13.1833 206.274 13.35C206.274 13.7167 206.04 14.1 205.574 14.5C205.14 14.8667 204.64 15.1833 204.074 15.45C203.54 15.6833 203.107 15.8 202.774 15.8ZM198.724 32C197.09 32 196.274 31.1667 196.274 29.5C196.274 28.8 196.374 28.0833 196.574 27.35C196.807 26.6167 197.057 25.9333 197.324 25.3C197.624 24.5667 197.957 23.85 198.324 23.15C198.69 22.45 199.057 21.75 199.424 21.05C199.59 20.75 199.74 20.45 199.874 20.15C200.04 19.8167 200.207 19.5 200.374 19.2C200.54 18.9667 200.857 18.7667 201.324 18.6C201.79 18.4333 202.157 18.35 202.424 18.35C202.457 18.35 202.457 18.3667 202.424 18.4C202.39 18.4 202.374 18.4 202.374 18.4C202.407 18.4 202.424 18.4167 202.424 18.45C202.49 18.3833 202.574 18.35 202.674 18.35C202.807 18.35 202.89 18.4167 202.924 18.55C202.957 18.65 202.974 18.75 202.974 18.85C202.974 19.0833 202.874 19.4333 202.674 19.9C202.507 20.3667 202.29 20.8167 202.024 21.25C201.79 21.65 201.557 21.9 201.324 22C201.024 22.7 200.624 23.4667 200.124 24.3C199.657 25.1333 199.224 25.9833 198.824 26.85C198.424 27.6833 198.224 28.5 198.224 29.3C198.224 30.2333 198.724 30.7 199.724 30.7C200.19 30.7 200.69 30.55 201.224 30.25C201.79 29.95 202.34 29.6 202.874 29.2C203.407 28.7667 203.857 28.4 204.224 28.1C204.624 27.8 204.874 27.65 204.974 27.65C205.007 27.65 205.024 27.6667 205.024 27.7C205.024 27.8333 204.974 27.9833 204.874 28.15C204.774 28.2833 204.69 28.3833 204.624 28.45C204.224 28.9833 203.69 29.5333 203.024 30.1C202.357 30.6333 201.64 31.0833 200.874 31.45C200.14 31.8167 199.424 32 198.724 32ZM206.854 32C205.221 32 204.404 31.1667 204.404 29.5C204.404 28.5 204.637 27.3833 205.104 26.15C205.604 24.8833 206.171 23.6333 206.804 22.4C207.471 21.1667 208.021 20.1167 208.454 19.25C207.987 19.2833 207.437 19.3667 206.804 19.5C206.204 19.6 205.687 19.65 205.254 19.65C205.121 19.65 204.987 19.6333 204.854 19.6C204.754 19.5333 204.704 19.4333 204.704 19.3C204.704 19.1 204.804 18.9667 205.004 18.9C205.237 18.7333 205.471 18.5833 205.704 18.45C205.971 18.3167 206.221 18.1833 206.454 18.05C207.121 17.6167 207.754 17.15 208.354 16.65C208.987 16.1167 209.587 15.5667 210.154 15C210.287 14.7333 210.404 14.5 210.504 14.3C210.637 14.0667 210.871 13.9 211.204 13.8C211.471 13.7333 211.854 13.5833 212.354 13.35C212.854 13.1167 213.221 13 213.454 13C213.621 13 213.704 13.0667 213.704 13.2C213.704 13.3 213.587 13.5667 213.354 14C213.154 14.4333 212.904 14.9333 212.604 15.5C212.304 16.0333 212.021 16.5333 211.754 17C211.521 17.4333 211.371 17.7 211.304 17.8C211.504 17.8 211.854 17.8 212.354 17.8C212.887 17.8 213.454 17.8167 214.054 17.85C214.654 17.8833 215.171 17.95 215.604 18.05C216.037 18.15 216.254 18.2833 216.254 18.45C216.254 18.5833 216.154 18.6833 215.954 18.75C215.787 18.7833 215.604 18.8 215.404 18.8C214.604 18.8 213.804 18.8167 213.004 18.85C212.237 18.85 211.471 18.9 210.704 19C210.371 19.6 209.971 20.35 209.504 21.25C209.071 22.1167 208.621 23.05 208.154 24.05C207.721 25.0167 207.354 25.9667 207.054 26.9C206.754 27.8 206.604 28.5833 206.604 29.25C206.604 29.6833 206.687 30.0333 206.854 30.3C207.054 30.5667 207.387 30.7 207.854 30.7C208.321 30.7 208.837 30.55 209.404 30.25C209.971 29.95 210.504 29.6 211.004 29.2C211.537 28.7667 211.987 28.4 212.354 28.1C212.754 27.8 213.004 27.65 213.104 27.65C213.137 27.65 213.154 27.6667 213.154 27.7C213.154 27.8333 213.104 27.9833 213.004 28.15C212.937 28.2833 212.871 28.3833 212.804 28.45C212.371 28.9833 211.821 29.5333 211.154 30.1C210.487 30.6333 209.771 31.0833 209.004 31.45C208.271 31.8167 207.554 32 206.854 32ZM207.354 18.1C207.654 18.0333 207.937 18 208.204 18C208.504 17.9667 208.787 17.9333 209.054 17.9C209.154 17.6667 209.237 17.4333 209.304 17.2C209.371 16.9667 209.437 16.7333 209.504 16.5C209.137 16.7333 208.771 17 208.404 17.3C208.071 17.5667 207.721 17.8333 207.354 18.1ZM212.692 32.75C212.458 32.75 212.358 32.6667 212.392 32.5C213.325 30.9 214.175 29.2667 214.942 27.6C215.742 25.9333 216.492 24.25 217.192 22.55C217.192 22.4833 217.258 22.3 217.392 22C217.525 21.6667 217.592 21.4833 217.592 21.45C217.592 21.35 217.508 21.3167 217.342 21.35C217.175 21.3833 217.092 21.3333 217.092 21.2C217.092 21.1333 217.225 20.8833 217.492 20.45C217.758 19.9833 218.042 19.5167 218.342 19.05C218.642 18.55 218.825 18.25 218.892 18.15C219.058 17.95 219.375 17.75 219.842 17.55C220.308 17.35 220.658 17.25 220.892 17.25C221.225 17.25 221.392 17.4 221.392 17.7C221.392 17.8 221.275 18.1333 221.042 18.7C220.808 19.2667 220.508 19.9333 220.142 20.7C219.775 21.4667 219.408 22.25 219.042 23.05C218.675 23.85 218.342 24.55 218.042 25.15C217.742 25.75 217.542 26.15 217.442 26.35C217.708 26.0167 218.142 25.5333 218.742 24.9C219.375 24.2333 220.075 23.5167 220.842 22.75C221.642 21.9833 222.442 21.25 223.242 20.55C224.042 19.8167 224.758 19.2333 225.392 18.8C226.058 18.3333 226.575 18.1 226.942 18.1C227.208 18.1 227.358 18.2 227.392 18.4C227.458 18.6 227.492 18.7833 227.492 18.95C227.492 19.3833 227.442 19.8333 227.342 20.3C227.242 20.7667 227.125 21.2167 226.992 21.65C226.725 22.65 226.392 23.8333 225.992 25.2C225.625 26.5333 225.442 27.7 225.442 28.7C225.442 29.2 225.525 29.6667 225.692 30.1C225.892 30.5 226.292 30.7 226.892 30.7C227.358 30.7 227.842 30.55 228.342 30.25C228.875 29.95 229.358 29.6 229.792 29.2C230.258 28.7667 230.658 28.4 230.992 28.1C231.358 27.8 231.592 27.65 231.692 27.65C231.725 27.65 231.742 27.6833 231.742 27.75C231.742 27.85 231.708 27.9833 231.642 28.15C231.608 28.2833 231.558 28.3833 231.492 28.45C230.958 29.2833 230.175 30.0833 229.142 30.85C228.142 31.6167 227.142 32 226.142 32C225.108 32 224.325 31.7 223.792 31.1C223.292 30.4667 223.042 29.65 223.042 28.65C223.042 27.7833 223.192 26.8167 223.492 25.75C223.825 24.6833 224.108 23.7167 224.342 22.85C224.408 22.5833 224.492 22.2667 224.592 21.9C224.725 21.5333 224.792 21.2167 224.792 20.95C224.792 20.8833 224.775 20.8 224.742 20.7C224.708 20.6 224.642 20.55 224.542 20.55C224.375 20.55 224.158 20.65 223.892 20.85C223.658 21.0167 223.475 21.15 223.342 21.25C222.708 21.7833 221.992 22.4667 221.192 23.3C220.425 24.1333 219.658 25.05 218.892 26.05C218.125 27.0167 217.425 27.9667 216.792 28.9C216.158 29.8333 215.658 30.6667 215.292 31.4C215.225 31.5667 215.008 31.7667 214.642 32C214.308 32.2 213.942 32.3667 213.542 32.5C213.175 32.6667 212.892 32.75 212.692 32.75ZM231.964 32.35C231.231 32.35 230.747 32.2333 230.514 32C230.281 31.7667 230.164 31.2833 230.164 30.55C230.164 29.75 230.347 28.8333 230.714 27.8C231.114 26.7667 231.481 25.9 231.814 25.2C231.814 25.1667 231.797 25.15 231.764 25.15C231.764 25.1167 231.764 25.0833 231.764 25.05C231.764 24.8833 231.814 24.75 231.914 24.65C232.047 24.55 232.147 24.45 232.214 24.35C232.381 24.0833 232.531 23.8167 232.664 23.55C232.797 23.2833 232.931 23.0333 233.064 22.8C233.631 21.9 234.314 21.0333 235.114 20.2C235.947 19.3667 236.881 18.8 237.914 18.5C238.281 18.4 238.631 18.35 238.964 18.35C239.031 18.35 239.097 18.3667 239.164 18.4C239.264 18.4 239.314 18.4333 239.314 18.5C239.314 18.6 239.214 18.7167 239.014 18.85C238.847 18.9833 238.731 19.0833 238.664 19.15C238.131 19.5833 237.547 20.25 236.914 21.15C236.314 22.05 235.831 22.7833 235.464 23.35C236.231 23.2167 236.981 23.1167 237.714 23.05C238.481 22.9833 239.231 22.9833 239.964 23.05C240.331 22.5167 240.664 21.8667 240.964 21.1C241.297 20.3 241.464 19.5667 241.464 18.9C241.464 18.5333 241.414 18.3167 241.314 18.25C241.247 18.1833 241.064 18.15 240.764 18.15C240.697 18.15 240.597 18.1333 240.464 18.1C240.331 18.0667 240.264 18 240.264 17.9C240.264 17.7667 240.414 17.65 240.714 17.55C241.014 17.45 241.331 17.3833 241.664 17.35C241.997 17.2833 242.214 17.25 242.314 17.25C243.214 17.25 243.664 17.6667 243.664 18.5C243.664 18.9667 243.514 19.5333 243.214 20.2C242.947 20.8333 242.597 21.4333 242.164 22C241.764 22.5333 241.364 22.9167 240.964 23.15C241.064 23.15 241.264 23.2 241.564 23.3C241.897 23.3667 242.197 23.45 242.464 23.55C242.764 23.65 242.914 23.7667 242.914 23.9C242.914 24 242.814 24.0667 242.614 24.1C242.414 24.1 242.281 24.1 242.214 24.1C241.914 24.1 241.614 24.0833 241.314 24.05C241.014 23.9833 240.714 23.95 240.414 23.95C239.481 23.95 238.531 24.0167 237.564 24.15C236.631 24.2833 235.697 24.45 234.764 24.65C234.431 25.25 234.047 26.0167 233.614 26.95C233.214 27.8833 233.014 28.7167 233.014 29.45C233.014 30.6167 233.614 31.2 234.814 31.2C235.681 31.2 236.514 30.9667 237.314 30.5C238.147 30.0333 238.914 29.4833 239.614 28.85C240.314 28.2167 240.881 27.6667 241.314 27.2C241.747 26.7333 241.997 26.5 242.064 26.5C242.164 26.5 242.214 26.5667 242.214 26.7C242.214 27.1 241.981 27.5833 241.514 28.15C241.047 28.6833 240.664 29.0667 240.364 29.3C239.197 30.2 237.881 30.9333 236.414 31.5C234.981 32.0667 233.497 32.35 231.964 32.35ZM235.471 48.7C234.571 48.7 233.638 48.5333 232.671 48.2C231.704 47.9 230.888 47.4 230.221 46.7C229.554 46.0333 229.221 45.1667 229.221 44.1C229.221 43.1333 229.504 42.25 230.071 41.45C230.604 40.65 231.304 39.9167 232.171 39.25C233.004 38.6167 233.888 38.05 234.821 37.55C235.754 37.05 236.588 36.65 237.321 36.35C239.188 35.5833 241.221 35 243.421 34.6C245.654 34.2 247.771 33.9333 249.771 33.8C250.371 32.2667 250.971 30.7333 251.571 29.2C252.204 27.6667 252.688 26.0833 253.021 24.45L253.221 23.5C252.788 24.0667 252.188 24.8333 251.421 25.8C250.688 26.7667 249.871 27.75 248.971 28.75C248.104 29.75 247.221 30.6 246.321 31.3C245.421 31.9667 244.621 32.3 243.921 32.3C243.354 32.3 242.971 32.0667 242.771 31.6C242.571 31.1 242.471 30.6167 242.471 30.15C242.471 28.8833 242.754 27.6833 243.321 26.55C243.888 25.3833 244.454 24.2667 245.021 23.2L244.871 23.25C244.671 23.25 244.571 23.15 244.571 22.95C244.571 22.9167 244.604 22.8333 244.671 22.7C245.104 21.9 245.471 21.2167 245.771 20.65C246.071 20.0833 246.471 19.65 246.971 19.35C247.471 19.05 248.238 18.9 249.271 18.9C249.471 18.9 249.571 18.9833 249.571 19.15C249.571 19.4167 249.388 19.8667 249.021 20.5C248.654 21.1333 248.254 21.7833 247.821 22.45C247.388 23.0833 247.088 23.5333 246.921 23.8C246.654 24.2 246.338 24.7833 245.971 25.55C245.604 26.3167 245.288 27.0833 245.021 27.85C244.754 28.5833 244.621 29.1833 244.621 29.65C244.621 29.8167 244.654 29.9833 244.721 30.15C244.788 30.2833 244.921 30.35 245.121 30.35C245.554 30.35 246.104 30.1 246.771 29.6C247.438 29.0667 248.138 28.4 248.871 27.6C249.604 26.8 250.321 25.9667 251.021 25.1C251.721 24.2 252.321 23.3833 252.821 22.65C253.354 21.8833 253.738 21.2833 253.971 20.85C254.238 20.3833 254.421 19.9 254.521 19.4C254.621 18.8667 254.938 18.4333 255.471 18.1C255.704 17.9667 256.004 17.8333 256.371 17.7C256.738 17.5333 257.038 17.45 257.271 17.45C257.604 17.45 257.771 17.6167 257.771 17.95C257.771 18.4167 257.604 18.9 257.271 19.4C256.971 19.8667 256.704 20.3 256.471 20.7C256.171 21.2667 255.888 21.95 255.621 22.75C255.388 23.5167 255.171 24.2333 254.971 24.9C254.438 26.3667 253.921 27.85 253.421 29.35C252.954 30.8167 252.388 32.2833 251.721 33.75H252.721C252.988 33.75 253.238 33.7667 253.471 33.8C253.738 33.8333 253.871 33.9333 253.871 34.1C253.871 34.2667 253.688 34.3667 253.321 34.4C252.988 34.4333 252.621 34.4333 252.221 34.4C251.854 34.4 251.604 34.4 251.471 34.4C250.804 36 249.954 37.6333 248.921 39.3C247.921 41 246.738 42.55 245.371 43.95C244.038 45.3833 242.554 46.5333 240.921 47.4C239.254 48.2667 237.438 48.7 235.471 48.7ZM235.271 47.65C236.904 47.65 238.454 47.2 239.921 46.3C241.354 45.4333 242.671 44.3167 243.871 42.95C245.104 41.5833 246.188 40.1333 247.121 38.6C248.088 37.1 248.871 35.7167 249.471 34.45C247.604 34.5833 245.604 34.8667 243.471 35.3C241.338 35.7667 239.438 36.4333 237.771 37.3C236.938 37.7 236.021 38.25 235.021 38.95C233.988 39.65 233.104 40.45 232.371 41.35C231.604 42.2833 231.221 43.2833 231.221 44.35C231.221 45.4833 231.654 46.3167 232.521 46.85C233.354 47.3833 234.271 47.65 235.271 47.65Z" fill="#B66C6C"/>
</svg>
