<svg width="178" height="41" viewBox="0 0 178 41" fill="none" xmlns="http://www.w3.org/2000/svg">
<path d="M36.895 10.565C36.3817 10.565 35.9967 10.5833 35.74 10.62C36.6567 11.83 37.885 12.435 39.425 12.435C40.3783 12.435 40.855 12.2333 40.855 11.83C40.855 11.1333 39.535 10.7117 36.895 10.565ZM20.175 29.045C23.0717 26.625 24.8317 23.765 25.455 20.465C22.375 22.5183 20.615 25.3783 20.175 29.045ZM25.675 19.365V18.595C25.675 17.055 25.2533 15.7167 24.41 14.58C21.2933 16.56 18.7633 18.9617 16.82 21.785C14.9133 24.6083 13.96 27.3767 13.96 30.09C13.96 30.7867 14.015 31.465 14.125 32.125C15.775 31.7217 17.3517 31.025 18.855 30.035C18.9283 27.8717 19.5883 25.8367 20.835 23.93C22.0817 22.0233 23.695 20.5017 25.675 19.365ZM18.25 11.28C21 11.28 23.1817 11.9033 24.795 13.15C26.115 12.49 27.1967 12.0133 28.04 11.72C23.8967 9.26333 20.5233 8.035 17.92 8.035C13.19 8.07166 9.32167 9.81333 6.315 13.26C3.30833 16.67 1.805 20.3367 1.805 24.26C1.805 26.7167 2.48333 28.7333 3.84 30.31C5.23333 31.8867 7.25 32.675 9.89 32.675H9.945C10.715 32.675 11.4667 32.62 12.2 32.51C12.09 31.85 12.035 31.135 12.035 30.365C12.035 26.8083 13.0983 23.6183 15.225 20.795C17.3883 17.935 20.175 15.57 23.585 13.7C22.4117 12.71 20.7983 12.215 18.745 12.215C18.1583 12.215 17.535 12.27 16.875 12.38C16.6917 12.38 16.6 12.27 16.6 12.05C16.6 11.5367 17.15 11.28 18.25 11.28ZM19.79 33.115C19.1667 33.115 18.855 32.455 18.855 31.135C17.315 32.0517 15.7933 32.7117 14.29 33.115C14.73 34.9483 15.61 36.4517 16.93 37.625C18.2867 38.7617 20.1383 39.33 22.485 39.33C24.8683 39.33 27.16 38.8533 29.36 37.9C31.56 36.9467 33.375 35.755 34.805 34.325C36.2717 32.8583 37.4083 31.2817 38.215 29.595C39.0583 27.8717 39.48 26.1483 39.48 24.425C39.48 22.7017 38.875 21.2717 37.665 20.135C36.4917 18.9983 34.8417 18.43 32.715 18.43C30.5883 18.43 28.7367 18.7967 27.16 19.53C26.94 21.4367 26.1883 23.38 24.905 25.36C23.6583 27.3033 22.045 28.9717 20.065 30.365V30.53C20.065 30.86 20.1383 31.2267 20.285 31.63C20.4317 32.0333 20.505 32.3267 20.505 32.51C20.505 32.6567 20.4133 32.8033 20.23 32.95C20.0833 33.06 19.9367 33.115 19.79 33.115ZM48.17 8.695C47.73 8.65833 47.51 8.56666 47.51 8.42C47.51 8.27333 47.6383 8.09 47.895 7.87C48.995 6.80666 49.545 5.74333 49.545 4.68C49.545 3.61666 48.7933 2.68166 47.29 1.875C45.7867 1.03167 44.1917 0.609999 42.505 0.609999C40.0117 0.609999 38.0867 1.28833 36.73 2.645C35.41 4.00167 34.75 5.56 34.75 7.32C34.75 8.23667 34.9517 9.135 35.355 10.015C36.0883 9.94166 36.895 9.905 37.775 9.905C38.6917 9.905 39.645 10.07 40.635 10.4C41.625 10.73 42.12 11.225 42.12 11.885C42.01 12.6917 41.3317 13.095 40.085 13.095C37.4083 13.095 35.4467 12.325 34.2 10.785C32.99 10.9683 31.6333 11.3167 30.13 11.83C32.4033 13.15 34.585 14.1767 36.675 14.91C38.765 15.6433 41.1483 16.01 43.825 16.01C47.8217 16.01 51.1033 14.8733 53.67 12.6C56.2367 10.3267 57.52 7.96166 57.52 5.505C57.52 4.22166 57.0983 3.17666 56.255 2.37C55.4117 1.56333 54.165 1.16 52.515 1.16C51.9283 1.16 51.635 1.01333 51.635 0.719998C51.635 0.536665 52.0567 0.444998 52.9 0.444998C54.77 0.444998 56.2367 0.976664 57.3 2.04C58.4 3.10333 58.95 4.44167 58.95 6.055C58.95 8.76833 57.4833 11.2433 54.55 13.48C51.6533 15.7167 47.5283 16.835 42.175 16.835C40.5617 16.835 38.9117 16.5967 37.225 16.12C35.5383 15.6067 34.145 15.075 33.045 14.525C31.945 13.9383 30.5883 13.1683 28.975 12.215C27.9117 12.655 26.775 13.205 25.565 13.865C26.665 15.1483 27.215 16.67 27.215 18.43V18.65C29.0483 17.88 30.9367 17.495 32.88 17.495C35.74 17.495 37.885 18.1 39.315 19.31C40.745 20.52 41.46 22.0417 41.46 23.875C41.46 25.7083 40.9467 27.5783 39.92 29.485C38.93 31.3917 37.5733 33.1517 35.85 34.765C34.1267 36.3783 32 37.7167 29.47 38.78C26.94 39.8067 24.3917 40.32 21.825 40.32C19.2583 40.32 17.1867 39.6967 15.61 38.45C14.07 37.2033 13.0067 35.5533 12.42 33.5C11.65 33.6467 10.715 33.72 9.615 33.72C6.46167 33.72 4.07833 32.8767 2.465 31.19C0.851667 29.4667 0.0450001 27.285 0.0450001 24.645C0.0450001 22.005 0.76 19.3833 2.19 16.78C3.62 14.14 5.74667 11.9033 8.57 10.07C11.43 8.2 14.6017 7.265 18.085 7.265C19.4417 7.265 20.8167 7.485 22.21 7.925C23.64 8.365 24.7767 8.805 25.62 9.245C26.4633 9.685 27.6733 10.3633 29.25 11.28C30.8633 10.7667 32.3667 10.4 33.76 10.18C33.32 9.41 33.1 8.54833 33.1 7.595C33.1 5.65167 33.9433 3.91 35.63 2.37C37.3533 0.83 39.5717 0.0599998 42.285 0.0599998C45.035 0.0599998 47.1617 0.536666 48.665 1.49C50.205 2.44333 50.975 3.65333 50.975 5.12C50.975 6.55 50.04 7.74167 48.17 8.695ZM40.3243 36.855C40.3243 35.755 40.7643 34.8567 41.6443 34.16C42.5243 33.4633 43.4777 33.115 44.5043 33.115C45.5677 33.115 46.0993 33.5733 46.0993 34.49C46.0993 34.8933 45.9527 35.2967 45.6593 35.7C45.4027 36.1033 45.1093 36.305 44.7793 36.305C44.486 36.305 44.3393 36.195 44.3393 35.975C44.3393 35.7183 44.4493 35.48 44.6693 35.26C44.926 35.04 45.0543 34.82 45.0543 34.6C45.0543 33.9767 44.761 33.665 44.1743 33.665C43.5877 33.665 43.0193 33.94 42.4693 34.49C41.956 35.0033 41.6993 35.6267 41.6993 36.36C41.6993 37.0567 41.8827 37.6433 42.2493 38.12C42.616 38.5967 43.1843 38.835 43.9543 38.835C44.761 38.835 45.4393 38.505 45.9893 37.845C46.576 37.1483 47.016 36.3233 47.3093 35.37C47.6027 34.38 47.9143 33.39 48.2443 32.4C48.611 31.41 49.1427 30.585 49.8393 29.925C50.5727 29.2283 51.361 28.88 52.2043 28.88C53.0477 28.88 53.7077 29.0267 54.1843 29.32C54.661 29.5767 54.8993 29.925 54.8993 30.365C54.8993 30.805 54.716 31.2267 54.3493 31.63C54.0193 32.0333 53.6527 32.235 53.2493 32.235C52.846 32.235 52.626 32.1433 52.5893 31.96C52.5893 31.6667 52.791 31.41 53.1943 31.19C53.4143 31.1167 53.5243 30.86 53.5243 30.42C53.5243 29.8333 53.121 29.54 52.3143 29.54C51.5077 29.54 50.8293 30.0717 50.2793 31.135C49.7293 32.1617 49.3077 33.2983 49.0143 34.545C48.7577 35.755 48.171 36.8917 47.2543 37.955C46.3377 38.9817 45.1093 39.495 43.5693 39.495C42.616 39.495 41.8643 39.275 41.3143 38.835C40.7643 38.395 40.471 37.955 40.4343 37.515L40.3243 36.855ZM64.8711 21.07C65.3478 20.5567 65.7694 20.3 66.1361 20.3C66.5394 20.3 66.7411 20.41 66.7411 20.63V20.795C66.7411 21.015 66.4294 21.4 65.8061 21.95C65.2194 22.4633 63.7711 24.095 61.4611 26.845H66.0261C66.4661 26.845 66.6861 26.955 66.6861 27.175C66.6861 27.4683 66.2461 27.615 65.3661 27.615H60.8011C56.6211 32.6017 54.5311 35.645 54.5311 36.745C54.5311 37.5517 54.9711 37.955 55.8511 37.955C56.1444 37.955 56.6211 37.8633 57.2811 37.68C58.4544 37.2033 59.3161 36.7083 59.8661 36.195C60.4161 35.645 60.7461 35.37 60.8561 35.37C61.0028 35.37 61.0761 35.48 61.0761 35.7C61.0761 35.92 60.7461 36.3233 60.0861 36.91C59.4261 37.46 58.6011 37.955 57.6111 38.395C56.6211 38.835 55.7228 39.055 54.9161 39.055C53.7061 39.055 53.1011 38.4317 53.1011 37.185C53.1011 35.9383 55.2094 32.73 59.4261 27.56C57.8494 27.56 56.7678 27.56 56.1811 27.56C55.6311 27.5233 55.3561 27.4133 55.3561 27.23C55.3561 27.01 55.6678 26.8633 56.2911 26.79H60.0861C62.7994 23.49 64.3944 21.5833 64.8711 21.07ZM62.6995 38.34C64.1295 38.34 65.7245 37.6067 67.4845 36.14C69.2445 34.6367 70.2711 33.3533 70.5645 32.29C70.5645 31.85 70.2895 31.4833 69.7395 31.19C69.1895 30.86 68.5661 30.695 67.8695 30.695C66.1828 30.695 64.6245 31.4283 63.1945 32.895C61.8011 34.325 61.1045 35.59 61.1045 36.69C61.1045 37.79 61.6361 38.34 62.6995 38.34ZM68.3645 29.815C69.6478 29.815 70.7111 30.2733 71.5545 31.19C71.5911 31.19 71.8845 30.915 72.4345 30.365C72.6911 29.9617 72.9845 29.76 73.3145 29.76C73.6445 29.76 73.8095 29.925 73.8095 30.255L73.5895 30.75C73.4795 30.9333 72.7461 31.8317 71.3895 33.445C70.0695 35.0583 69.2995 36.0117 69.0795 36.305C68.8961 36.5983 68.8045 37.0383 68.8045 37.625C68.8045 38.0283 69.0611 38.23 69.5745 38.23C70.6378 38.23 72.1411 37.35 74.0845 35.59C74.1945 35.4433 74.3045 35.37 74.4145 35.37C74.5611 35.37 74.6345 35.4617 74.6345 35.645C74.6345 36.085 73.8828 36.7817 72.3795 37.735C70.9128 38.6883 69.5928 39.165 68.4195 39.165C67.6128 39.165 67.2095 38.7433 67.2095 37.9C67.2095 37.6067 67.1545 37.46 67.0445 37.46C66.9711 37.46 66.9161 37.4783 66.8795 37.515C65.0461 38.725 63.3045 39.33 61.6545 39.33C60.0411 39.33 59.2345 38.5967 59.2345 37.13C59.2345 35.59 60.1511 33.995 61.9845 32.345C63.8178 30.6583 65.9445 29.815 68.3645 29.815ZM73.464 36.855C73.464 35.755 73.904 34.8567 74.784 34.16C75.664 33.4633 76.6173 33.115 77.644 33.115C78.7073 33.115 79.239 33.5733 79.239 34.49C79.239 34.8933 79.0923 35.2967 78.799 35.7C78.5423 36.1033 78.249 36.305 77.919 36.305C77.6257 36.305 77.479 36.195 77.479 35.975C77.479 35.7183 77.589 35.48 77.809 35.26C78.0657 35.04 78.194 34.82 78.194 34.6C78.194 33.9767 77.9007 33.665 77.314 33.665C76.7273 33.665 76.159 33.94 75.609 34.49C75.0957 35.0033 74.839 35.6267 74.839 36.36C74.839 37.0567 75.0223 37.6433 75.389 38.12C75.7557 38.5967 76.324 38.835 77.094 38.835C77.9007 38.835 78.579 38.505 79.129 37.845C79.7157 37.1483 80.1557 36.3233 80.449 35.37C80.7423 34.38 81.054 33.39 81.384 32.4C81.7507 31.41 82.2823 30.585 82.979 29.925C83.7123 29.2283 84.5007 28.88 85.344 28.88C86.1873 28.88 86.8473 29.0267 87.324 29.32C87.8007 29.5767 88.039 29.925 88.039 30.365C88.039 30.805 87.8557 31.2267 87.489 31.63C87.159 32.0333 86.7923 32.235 86.389 32.235C85.9857 32.235 85.7657 32.1433 85.729 31.96C85.729 31.6667 85.9307 31.41 86.334 31.19C86.554 31.1167 86.664 30.86 86.664 30.42C86.664 29.8333 86.2607 29.54 85.454 29.54C84.6473 29.54 83.969 30.0717 83.419 31.135C82.869 32.1617 82.4473 33.2983 82.154 34.545C81.8973 35.755 81.3107 36.8917 80.394 37.955C79.4773 38.9817 78.249 39.495 76.709 39.495C75.7557 39.495 75.004 39.275 74.454 38.835C73.904 38.395 73.6107 37.955 73.574 37.515L73.464 36.855ZM101.554 24.81C101.224 25.1767 101.059 25.525 101.059 25.855C101.059 26.3317 101.316 26.57 101.829 26.57C102.086 26.57 102.397 26.4233 102.764 26.13C103.167 25.8367 103.369 25.525 103.369 25.195C103.369 24.865 103.277 24.6267 103.094 24.48C102.947 24.2967 102.727 24.205 102.434 24.205C102.177 24.205 101.884 24.4067 101.554 24.81ZM93.3039 37.625C93.3039 38.0283 93.5606 38.23 94.0739 38.23C95.1373 38.23 96.6406 37.35 98.5839 35.59C98.6939 35.4433 98.8039 35.37 98.9139 35.37C99.0606 35.37 99.1339 35.4617 99.1339 35.645C99.1339 36.085 98.3823 36.7817 96.8789 37.735C95.4123 38.6883 94.0923 39.165 92.9189 39.165C92.1123 39.165 91.7089 38.7433 91.7089 37.9C91.7089 37.4233 91.9473 36.855 92.4239 36.195C92.6073 35.975 92.8456 35.7 93.1389 35.37C93.4323 35.0033 93.6889 34.6733 93.9089 34.38C94.1656 34.0867 94.6606 33.5183 95.3939 32.675C96.1273 31.795 96.6956 31.0983 97.0989 30.585C97.5389 30.0717 97.8323 29.76 97.9789 29.65C98.1256 29.5033 98.2906 29.43 98.4739 29.43C98.6939 29.43 98.8589 29.485 98.9689 29.595C99.1156 29.705 99.1889 29.8333 99.1889 29.98C99.1889 30.1267 99.0789 30.31 98.8589 30.53L94.7339 35.205C93.7806 36.2317 93.3039 37.0383 93.3039 37.625ZM110.551 30.805C110.551 31.6483 109.836 32.8583 108.406 34.435C106.976 35.975 106.261 37.0383 106.261 37.625C106.261 38.0283 106.518 38.23 107.031 38.23C108.095 38.23 109.598 37.35 111.541 35.59C111.651 35.4433 111.761 35.37 111.871 35.37C112.018 35.37 112.091 35.4617 112.091 35.645C112.091 36.085 111.34 36.7817 109.836 37.735C108.37 38.6883 107.05 39.165 105.876 39.165C105.07 39.165 104.666 38.7617 104.666 37.955C104.666 37.1483 105.363 35.975 106.756 34.435C108.15 32.8583 108.846 31.8133 108.846 31.3C108.846 30.7867 108.388 30.5483 107.471 30.585C106.591 30.585 104.996 31.2083 102.686 32.455C102.173 32.9317 101.055 34.16 99.3312 36.14C97.6445 38.12 96.7462 39.1283 96.6362 39.165C96.2328 39.165 96.0312 38.9817 96.0312 38.615C96.0678 38.505 96.3428 38.1383 96.8562 37.515C97.3328 36.8917 97.6445 36.5067 97.7912 36.36L102.246 30.805C103.346 29.5583 104.006 28.935 104.226 28.935C104.666 28.935 104.886 29.1183 104.886 29.485C104.776 29.6683 104.556 29.9433 104.226 30.31C103.896 30.6767 103.658 30.9883 103.511 31.245C105.601 29.925 107.288 29.265 108.571 29.265C109.121 29.265 109.561 29.3933 109.891 29.65C110.221 29.9067 110.441 30.2917 110.551 30.805ZM119.866 32.565C120.416 31.575 120.691 30.75 120.691 30.09C120.691 29.43 120.361 29.1 119.701 29.1C119.187 29.1 118.931 29.5583 118.931 30.475C118.931 31.355 119.242 32.0517 119.866 32.565ZM115.466 27.945C115.869 27.945 116.071 28.2567 116.071 28.88C116.071 29.4667 115.356 30.86 113.926 33.06C112.532 35.26 111.836 36.69 111.836 37.35C111.836 37.9733 112.092 38.285 112.606 38.285C113.742 38.285 114.916 37.8267 116.126 36.91C117.336 35.9933 118.362 34.8933 119.206 33.61C118.216 33.0233 117.721 32.2533 117.721 31.3C117.721 30.3467 117.959 29.5767 118.436 28.99C118.912 28.4033 119.517 28.11 120.251 28.11C121.241 28.11 121.736 28.605 121.736 29.595C121.736 30.585 121.387 31.7217 120.691 33.005C120.984 33.0783 121.442 33.115 122.066 33.115C122.726 33.115 123.386 32.95 124.046 32.62C124.706 32.2533 125.164 31.905 125.421 31.575C125.714 31.245 125.952 31.08 126.136 31.08C126.319 31.08 126.411 31.135 126.411 31.245C126.411 31.4283 126.227 31.74 125.861 32.18C125.531 32.5833 124.907 33.005 123.991 33.445C123.111 33.8483 122.304 34.05 121.571 34.05C120.874 34.05 120.379 34.0133 120.086 33.94C119.059 35.48 117.794 36.7817 116.291 37.845C114.787 38.8717 113.229 39.385 111.616 39.385C110.772 39.385 110.351 38.945 110.351 38.065C110.351 37.1483 111.121 35.5533 112.661 33.28C114.201 31.0067 114.971 29.5583 114.971 28.935C114.971 28.275 115.136 27.945 115.466 27.945ZM130.504 24.81C130.174 25.1767 130.009 25.525 130.009 25.855C130.009 26.3317 130.266 26.57 130.779 26.57C131.036 26.57 131.347 26.4233 131.714 26.13C132.117 25.8367 132.319 25.525 132.319 25.195C132.319 24.865 132.227 24.6267 132.044 24.48C131.897 24.2967 131.677 24.205 131.384 24.205C131.127 24.205 130.834 24.4067 130.504 24.81ZM122.254 37.625C122.254 38.0283 122.511 38.23 123.024 38.23C124.087 38.23 125.591 37.35 127.534 35.59C127.644 35.4433 127.754 35.37 127.864 35.37C128.011 35.37 128.084 35.4617 128.084 35.645C128.084 36.085 127.332 36.7817 125.829 37.735C124.362 38.6883 123.042 39.165 121.869 39.165C121.062 39.165 120.659 38.7433 120.659 37.9C120.659 37.4233 120.897 36.855 121.374 36.195C121.557 35.975 121.796 35.7 122.089 35.37C122.382 35.0033 122.639 34.6733 122.859 34.38C123.116 34.0867 123.611 33.5183 124.344 32.675C125.077 31.795 125.646 31.0983 126.049 30.585C126.489 30.0717 126.782 29.76 126.929 29.65C127.076 29.5033 127.241 29.43 127.424 29.43C127.644 29.43 127.809 29.485 127.919 29.595C128.066 29.705 128.139 29.8333 128.139 29.98C128.139 30.1267 128.029 30.31 127.809 30.53L123.684 35.205C122.731 36.2317 122.254 37.0383 122.254 37.625ZM138.401 21.07C138.878 20.5567 139.3 20.3 139.666 20.3C140.07 20.3 140.271 20.41 140.271 20.63V20.795C140.271 21.015 139.96 21.4 139.336 21.95C138.75 22.4633 137.301 24.095 134.991 26.845H139.556C139.996 26.845 140.216 26.955 140.216 27.175C140.216 27.4683 139.776 27.615 138.896 27.615H134.331C130.151 32.6017 128.061 35.645 128.061 36.745C128.061 37.5517 128.501 37.955 129.381 37.955C129.675 37.955 130.151 37.8633 130.811 37.68C131.985 37.2033 132.846 36.7083 133.396 36.195C133.946 35.645 134.276 35.37 134.386 35.37C134.533 35.37 134.606 35.48 134.606 35.7C134.606 35.92 134.276 36.3233 133.616 36.91C132.956 37.46 132.131 37.955 131.141 38.395C130.151 38.835 129.253 39.055 128.446 39.055C127.236 39.055 126.631 38.4317 126.631 37.185C126.631 35.9383 128.74 32.73 132.956 27.56C131.38 27.56 130.298 27.56 129.711 27.56C129.161 27.5233 128.886 27.4133 128.886 27.23C128.886 27.01 129.198 26.8633 129.821 26.79H133.616C136.33 23.49 137.925 21.5833 138.401 21.07ZM136.23 38.34C137.66 38.34 139.255 37.6067 141.015 36.14C142.775 34.6367 143.801 33.3533 144.095 32.29C144.095 31.85 143.82 31.4833 143.27 31.19C142.72 30.86 142.096 30.695 141.4 30.695C139.713 30.695 138.155 31.4283 136.725 32.895C135.331 34.325 134.635 35.59 134.635 36.69C134.635 37.79 135.166 38.34 136.23 38.34ZM141.895 29.815C143.178 29.815 144.241 30.2733 145.085 31.19C145.121 31.19 145.415 30.915 145.965 30.365C146.221 29.9617 146.515 29.76 146.845 29.76C147.175 29.76 147.34 29.925 147.34 30.255L147.12 30.75C147.01 30.9333 146.276 31.8317 144.92 33.445C143.6 35.0583 142.83 36.0117 142.61 36.305C142.426 36.5983 142.335 37.0383 142.335 37.625C142.335 38.0283 142.591 38.23 143.105 38.23C144.168 38.23 145.671 37.35 147.615 35.59C147.725 35.4433 147.835 35.37 147.945 35.37C148.091 35.37 148.165 35.4617 148.165 35.645C148.165 36.085 147.413 36.7817 145.91 37.735C144.443 38.6883 143.123 39.165 141.95 39.165C141.143 39.165 140.74 38.7433 140.74 37.9C140.74 37.6067 140.685 37.46 140.575 37.46C140.501 37.46 140.446 37.4783 140.41 37.515C138.576 38.725 136.835 39.33 135.185 39.33C133.571 39.33 132.765 38.5967 132.765 37.13C132.765 35.59 133.681 33.995 135.515 32.345C137.348 30.6583 139.475 29.815 141.895 29.815ZM156.894 17.55C156.894 19.2 157.389 20.795 158.379 22.335C159.369 23.875 160.689 24.9567 162.339 25.58C163.476 22.28 164.044 19.4567 164.044 17.11C164.044 13.6267 162.926 11.885 160.689 11.885C159.736 11.885 158.948 12.3067 158.324 13.15C157.371 14.4333 156.894 15.9 156.894 17.55ZM155.629 29.54C156.289 29.54 156.876 29.6683 157.389 29.925C157.939 30.1817 158.324 30.4567 158.544 30.75L158.819 31.135C158.819 31.575 158.636 31.795 158.269 31.795C158.049 31.795 157.884 31.6483 157.774 31.355C157.004 30.7317 156.124 30.42 155.134 30.42C153.411 30.42 151.908 31.1167 150.624 32.51C149.341 33.9033 148.699 35.2417 148.699 36.525C148.699 37.8083 149.323 38.45 150.569 38.45C152.769 38.45 154.878 37.295 156.894 34.985C158.948 32.675 160.634 29.8333 161.954 26.46C160.231 25.9467 158.764 24.92 157.554 23.38C156.344 21.84 155.739 20.2267 155.739 18.54C155.739 16.8533 156.216 15.1483 157.169 13.425C158.159 11.7017 159.479 10.84 161.129 10.84C162.339 10.84 163.348 11.445 164.154 12.655C164.998 13.865 165.419 15.515 165.419 17.605C165.419 19.695 164.796 22.4633 163.549 25.91C163.843 25.9833 164.283 26.02 164.869 26.02C167.326 26.02 169.508 25.0117 171.414 22.995C171.891 22.5183 172.203 22.28 172.349 22.28C172.533 22.28 172.624 22.4083 172.624 22.665C172.624 22.885 172.478 23.1417 172.184 23.435C170.021 25.6717 167.326 26.79 164.099 26.79C163.696 26.79 163.403 26.7717 163.219 26.735C161.753 30.3283 159.828 33.3533 157.444 35.81C155.098 38.23 152.531 39.44 149.744 39.44C148.131 39.44 147.324 38.5967 147.324 36.91C147.324 35.2233 148.094 33.5733 149.634 31.96C151.211 30.3467 153.209 29.54 155.629 29.54ZM167.958 29.98C167.958 31.4833 168.563 32.3817 169.773 32.675C169.81 32.4917 169.828 32.125 169.828 31.575C169.828 30.9883 169.682 30.5117 169.388 30.145C169.095 29.7417 168.783 29.54 168.453 29.54C168.123 29.54 167.958 29.6867 167.958 29.98ZM169.553 33.5C167.757 33.3167 166.803 32.3267 166.693 30.53C165.447 30.5667 164.273 31.2633 163.173 32.62C162.11 33.94 161.578 35.205 161.578 36.415C161.578 37.7717 162.293 38.45 163.723 38.45C164.677 38.45 165.777 37.9733 167.023 37.02C168.27 36.03 169.113 34.8567 169.553 33.5ZM159.708 36.855C159.708 35.3883 160.478 33.83 162.018 32.18C163.595 30.53 165.19 29.6867 166.803 29.65C167.133 28.9533 167.683 28.605 168.453 28.605C169.26 28.605 169.883 28.8433 170.323 29.32C170.8 29.76 171.038 30.3467 171.038 31.08C171.038 31.7767 170.965 32.345 170.818 32.785C171.882 32.785 173.073 32.5283 174.393 32.015C175.713 31.5017 176.502 31.1167 176.758 30.86L177.033 31.135C177.033 31.2083 176.887 31.3733 176.593 31.63C176.3 31.8867 175.512 32.2533 174.228 32.73C172.945 33.2067 171.735 33.4633 170.598 33.5C170.012 35.04 168.985 36.3967 167.518 37.57C166.052 38.7067 164.53 39.275 162.953 39.275C160.79 39.275 159.708 38.4683 159.708 36.855Z" fill="#793745"/>
</svg>
