<?xml version="1.0" encoding="UTF-8" standalone="no"?>
<!DOCTYPE svg PUBLIC "-//W3C//DTD SVG 1.1//EN" "http://www.w3.org/Graphics/SVG/1.1/DTD/svg11.dtd">
<svg width="100%" height="100%" viewBox="0 0 201 199" version="1.1" xmlns="http://www.w3.org/2000/svg" xmlns:xlink="http://www.w3.org/1999/xlink" xml:space="preserve" xmlns:serif="http://www.serif.com/" style="fill-rule:evenodd;clip-rule:evenodd;stroke-linejoin:round;stroke-miterlimit:2;">
    <g transform="matrix(1,0,0,1,-266.958,-483.384)">
        <g transform="matrix(0.895764,0,0,0.895764,-667.996,210.098)">
            <path d="M1267.06,440.107C1267.06,440.107 1261.59,371.836 1237.01,367.653C1212.42,363.47 1149.24,420.06 1149.24,420.06C1149.24,420.06 1190.15,494.361 1214.74,498.544C1239.32,502.728 1267.06,440.107 1267.06,440.107Z" style="fill:url(#_Radial1);"/>
            <path d="M1267.06,440.107L1267.56,440.068C1267.56,440.052 1266.19,422.967 1261.74,405.327C1259.51,396.505 1256.52,387.546 1252.51,380.492C1250.51,376.965 1248.25,373.913 1245.69,371.597C1243.14,369.282 1240.28,367.702 1237.09,367.16C1236.18,367.006 1235.23,366.932 1234.24,366.932C1227.51,366.94 1218.89,370.267 1209.65,375.215C1181.97,390.066 1148.93,419.676 1148.91,419.687L1148.61,419.952L1148.81,420.301C1148.81,420.31 1159.04,438.895 1172.36,458.019C1179.02,467.581 1186.45,477.278 1193.77,484.863C1201.1,492.443 1208.29,497.94 1214.65,499.037C1215.48,499.177 1216.3,499.245 1217.13,499.245C1223.33,499.236 1229.53,495.48 1235.38,489.946C1244.15,481.634 1252.17,469.236 1258.01,458.907C1263.86,448.578 1267.51,440.32 1267.52,440.31L1267.57,440.194L1267.56,440.068L1267.06,440.107L1266.6,439.905C1266.6,439.906 1266.5,440.131 1266.31,440.558C1264.85,443.765 1258.06,458.243 1248.85,471.891C1244.25,478.715 1239.04,485.331 1233.61,490.22C1228.18,495.115 1222.55,498.251 1217.13,498.245C1216.36,498.245 1215.59,498.181 1214.82,498.051C1208.89,497.056 1201.75,491.697 1194.49,484.169C1183.6,472.884 1172.38,456.787 1163.91,443.52C1159.67,436.887 1156.11,430.959 1153.61,426.692C1152.36,424.558 1151.38,422.839 1150.71,421.653C1150.04,420.468 1149.68,419.82 1149.68,419.818L1149.24,420.06L1149.58,420.432C1149.58,420.431 1149.81,420.228 1150.24,419.843C1153.51,416.959 1168.43,403.958 1185.6,391.689C1194.18,385.555 1203.32,379.603 1211.83,375.194C1220.35,370.781 1228.24,367.926 1234.24,367.932C1235.18,367.932 1236.08,368.002 1236.92,368.146C1239.89,368.651 1242.57,370.119 1245.02,372.338C1249.31,376.218 1252.84,382.402 1255.68,389.495C1259.94,400.136 1262.66,412.809 1264.32,422.814C1265.15,427.816 1265.71,432.152 1266.06,435.236C1266.24,436.778 1266.36,438.007 1266.45,438.85C1266.53,439.693 1266.56,440.146 1266.56,440.147L1267.06,440.107L1266.6,439.905L1267.06,440.107Z" style="fill:url(#_Radial2);"/>
            <path d="M1173.03,526.282C1173.03,526.282 1232.89,490.242 1225.53,466.033C1218.18,441.823 1137.79,410.267 1137.79,410.267C1137.79,410.267 1088.53,481.206 1095.88,505.416C1103.24,529.625 1173.03,526.282 1173.03,526.282Z" style="fill:url(#_Radial3);"/>
            <path d="M1173.03,526.282L1173.29,526.711C1173.3,526.703 1186.6,518.698 1199.91,507.679C1206.57,502.169 1213.23,495.907 1218.25,489.497C1223.26,483.085 1226.65,476.522 1226.66,470.346C1226.66,468.829 1226.45,467.338 1226.01,465.888C1224.09,459.629 1217.62,453.101 1209.02,446.705C1183.21,427.551 1137.99,409.812 1137.97,409.801L1137.6,409.657L1137.38,409.981C1137.37,409.989 1126.7,425.354 1116.03,444.239C1110.69,453.681 1105.35,464.003 1101.34,473.734C1097.33,483.468 1094.64,492.6 1094.64,499.733C1094.64,501.864 1094.88,503.82 1095.41,505.561C1096.9,510.479 1100.86,514.25 1106.16,517.143C1114.12,521.485 1125.18,523.917 1136.02,525.285C1146.86,526.65 1157.49,526.938 1164.56,526.939C1169.77,526.939 1173.05,526.782 1173.05,526.782L1173.18,526.776L1173.29,526.711L1173.03,526.282L1173,525.783C1173,525.783 1172.19,525.822 1170.73,525.861C1169.27,525.9 1167.16,525.939 1164.56,525.939C1155.17,525.939 1139.47,525.425 1125.43,522.552C1118.41,521.117 1111.81,519.089 1106.64,516.265C1101.46,513.44 1097.75,509.838 1096.36,505.271C1095.87,503.648 1095.63,501.789 1095.64,499.733C1095.63,492.847 1098.27,483.785 1102.26,474.115C1108.24,459.605 1117.23,443.705 1124.72,431.441C1128.46,425.309 1131.83,420.086 1134.27,416.395C1135.49,414.55 1136.47,413.089 1137.15,412.089C1137.82,411.089 1138.2,410.553 1138.2,410.552L1137.79,410.267L1137.6,410.732C1137.61,410.732 1137.92,410.854 1138.51,411.091C1142.93,412.865 1162.9,421.038 1182.61,431.593C1192.47,436.87 1202.26,442.743 1210,448.697C1217.74,454.644 1223.4,460.699 1225.05,466.178C1225.46,467.53 1225.66,468.92 1225.66,470.346C1225.67,476.143 1222.41,482.559 1217.46,488.88C1210.04,498.366 1198.86,507.625 1189.54,514.495C1184.88,517.932 1180.69,520.772 1177.66,522.755C1176.14,523.745 1174.92,524.52 1174.08,525.048C1173.23,525.575 1172.77,525.853 1172.77,525.854L1173.03,526.282L1173,525.783L1173.03,526.282Z" style="fill:url(#_Radial4);"/>
            <path d="M1122.72,305.589C1122.72,305.589 1061.24,337.105 1066.86,361.401C1072.49,385.698 1149.67,422.022 1149.67,422.022C1149.67,422.022 1203.04,355.481 1197.41,331.185C1191.79,306.889 1122.72,305.589 1122.72,305.589Z" style="fill:url(#_Radial5);"/>
            <path d="M1122.72,305.589L1122.49,305.144C1122.48,305.151 1108.41,312.363 1094.32,322.565C1087.27,327.667 1080.22,333.515 1074.91,339.604C1069.6,345.693 1066.01,352.03 1066,358.175C1066,359.298 1066.12,360.413 1066.38,361.514C1067.85,367.8 1073.8,374.646 1081.85,381.504C1106.02,402.041 1149.44,422.463 1149.45,422.475L1149.81,422.643L1150.06,422.335C1150.06,422.328 1162.11,407.307 1174.17,388.918C1180.19,379.722 1186.22,369.686 1190.75,360.251C1195.28,350.813 1198.32,341.992 1198.33,335.136C1198.33,333.691 1198.19,332.332 1197.9,331.072C1197.17,327.924 1195.42,325.161 1192.94,322.751C1188.6,318.534 1182.05,315.358 1174.66,312.925C1152.51,305.642 1122.75,305.093 1122.73,305.089L1122.6,305.087L1122.49,305.144L1122.72,305.589L1122.71,306.089C1122.71,306.089 1123.78,306.109 1125.67,306.192C1132.31,306.481 1148.99,307.54 1164.58,311.171C1172.38,312.985 1179.91,315.446 1185.76,318.75C1191.61,322.057 1195.75,326.185 1196.93,331.298C1197.2,332.47 1197.33,333.754 1197.33,335.136C1197.33,341.7 1194.36,350.45 1189.85,359.818C1183.1,373.878 1172.95,389.362 1164.5,401.319C1160.27,407.298 1156.46,412.397 1153.71,416.001C1152.34,417.803 1151.23,419.23 1150.46,420.208C1149.7,421.185 1149.28,421.708 1149.28,421.71L1149.67,422.022L1149.88,421.57C1149.88,421.57 1149.58,421.429 1149.02,421.158C1144.77,419.123 1125.62,409.77 1106.89,398.092C1097.52,392.254 1088.26,385.834 1081.03,379.469C1073.79,373.111 1068.61,366.783 1067.35,361.289C1067.11,360.264 1067,359.226 1067,358.175C1066.99,352.438 1070.42,346.26 1075.66,340.261C1083.51,331.26 1095.34,322.686 1105.2,316.382C1110.13,313.229 1114.57,310.641 1117.77,308.841C1119.38,307.941 1120.67,307.239 1121.56,306.762C1122.46,306.285 1122.94,306.035 1122.95,306.034L1122.72,305.589L1122.71,306.089L1122.72,305.589Z" style="fill:url(#_Radial6);"/>
            <path d="M1048.66,386.951C1048.66,386.951 1035.53,445.996 1054.59,455.398C1073.65,464.801 1139.99,432.011 1139.99,432.011C1139.99,432.011 1125.64,359.412 1106.58,350.009C1087.52,340.606 1048.66,386.951 1048.66,386.951Z" style="fill:url(#_Radial7);"/>
            <path d="M1048.66,386.951L1048.17,386.843C1048.16,386.861 1043.75,406.697 1043.75,425.274C1043.75,432.019 1044.33,438.6 1045.93,444.032C1047.53,449.455 1050.18,453.775 1054.37,455.847C1056.86,457.076 1060.06,457.592 1063.76,457.593C1076.65,457.585 1095.71,451.293 1111.61,445.017C1127.51,438.738 1140.2,432.463 1140.21,432.459L1140.55,432.289L1140.48,431.914C1140.48,431.904 1136.89,413.743 1130.91,394.388C1127.92,384.71 1124.33,374.735 1120.29,366.567C1118.27,362.483 1116.13,358.85 1113.89,355.928C1111.64,353.007 1109.29,350.789 1106.8,349.561C1104.97,348.657 1102.97,348.25 1100.86,348.25C1095.66,348.256 1089.81,350.69 1083.93,354.293C1066.31,365.11 1048.29,386.613 1048.27,386.63L1048.19,386.723L1048.17,386.843L1048.66,386.951L1049.04,387.272C1049.04,387.272 1049.16,387.126 1049.4,386.847C1051.19,384.759 1059.41,375.33 1069.53,366.438C1074.58,361.992 1080.12,357.682 1085.54,354.493C1090.96,351.301 1096.28,349.246 1100.86,349.25C1102.84,349.25 1104.68,349.63 1106.36,350.458C1108.64,351.58 1110.91,353.688 1113.09,356.537C1120.77,366.511 1127.4,385.438 1132.08,401.832C1134.42,410.031 1136.27,417.602 1137.54,423.122C1138.18,425.883 1138.67,428.13 1139,429.687C1139.33,431.243 1139.5,432.105 1139.5,432.108L1139.99,432.011L1139.77,431.563C1139.77,431.564 1138.98,431.952 1137.54,432.637C1132.52,435.034 1119.61,441.03 1105.17,446.423C1090.75,451.818 1074.78,456.599 1063.76,456.593C1060.16,456.594 1057.09,456.079 1054.81,454.95C1050.98,453.067 1048.45,449.041 1046.89,443.749C1045.33,438.465 1044.75,431.961 1044.75,425.274C1044.75,416.062 1045.85,406.501 1046.95,399.249C1047.5,395.623 1048.05,392.573 1048.46,390.432C1048.66,389.361 1048.84,388.517 1048.96,387.941C1049.08,387.365 1049.14,387.061 1049.14,387.06L1048.66,386.951L1049.04,387.272L1048.66,386.951Z" style="fill:url(#_Radial8);"/>
            <path d="M1062.14,475.269C1062.14,475.269 1102.73,516.139 1120.43,505.581C1138.12,495.024 1146.94,424.675 1146.94,424.675C1146.94,424.675 1080.85,399.023 1063.15,409.58C1045.46,420.138 1062.14,475.269 1062.14,475.269Z" style="fill:url(#_Radial9);"/>
            <path d="M1062.14,475.269L1061.79,475.621C1061.8,475.63 1069.77,483.656 1080.2,491.692C1085.42,495.711 1091.25,499.732 1097.03,502.758C1102.8,505.781 1108.52,507.819 1113.55,507.823C1116.15,507.824 1118.57,507.272 1120.68,506.01C1122.99,504.631 1125.1,502.32 1127.06,499.349C1133.91,488.952 1138.97,470.336 1142.36,454.276C1145.75,438.221 1147.44,424.746 1147.44,424.737L1147.49,424.35L1147.12,424.209C1147.12,424.206 1135.74,419.791 1121.16,415.374C1106.57,410.959 1088.78,406.535 1075.87,406.531C1070.55,406.535 1066.05,407.274 1062.89,409.151C1059.69,411.064 1057.6,414.355 1056.31,418.411C1055.02,422.472 1054.52,427.322 1054.52,432.462C1054.52,451.837 1061.66,475.39 1061.66,475.413L1061.7,475.532L1061.79,475.621L1062.14,475.269L1062.62,475.124C1062.62,475.123 1062.51,474.76 1062.32,474.082C1060.96,469.335 1055.51,449.216 1055.52,432.462C1055.51,427.388 1056.02,422.626 1057.26,418.714C1058.51,414.797 1060.48,411.754 1063.41,410.009C1066.29,408.283 1070.65,407.528 1075.87,407.531C1088.57,407.527 1106.32,411.925 1120.87,416.332C1128.14,418.534 1134.62,420.737 1139.27,422.389C1141.6,423.215 1143.47,423.904 1144.77,424.385C1146.06,424.867 1146.76,425.14 1146.76,425.141L1146.94,424.675L1146.45,424.613C1146.45,424.616 1146.31,425.707 1146.03,427.648C1145.07,434.442 1142.42,451.585 1138.08,468.163C1135.91,476.451 1133.31,484.597 1130.31,491.226C1127.31,497.856 1123.88,502.953 1120.17,505.152C1118.24,506.305 1116.01,506.823 1113.55,506.823C1108.79,506.827 1103.19,504.859 1097.49,501.872C1088.94,497.395 1080.18,490.651 1073.57,485.03C1070.26,482.219 1067.49,479.689 1065.55,477.862C1064.58,476.949 1063.81,476.212 1063.29,475.703C1062.77,475.194 1062.5,474.917 1062.5,474.916L1062.14,475.269L1062.62,475.124L1062.14,475.269Z" style="fill:url(#_Radial10);"/>
            <path d="M1213.4,343.044C1213.4,343.044 1153.66,320.24 1140.36,339.195C1127.07,358.15 1149.67,433.882 1149.67,433.882C1149.67,433.882 1228.58,429.36 1241.88,410.405C1255.17,391.45 1213.4,343.044 1213.4,343.044Z" style="fill:url(#_Radial11);"/>
            <path d="M1213.4,343.044L1213.57,342.577C1213.56,342.573 1206.1,339.724 1195.85,336.872C1185.6,334.022 1172.58,331.166 1161.4,331.164C1156.75,331.165 1152.42,331.658 1148.73,332.868C1145.04,334.077 1141.98,336.015 1139.95,338.908C1136.83,343.387 1135.68,350.698 1135.67,359.36C1135.68,374.083 1139.06,392.731 1142.44,407.719C1145.82,422.703 1149.19,434.018 1149.19,434.025L1149.31,434.404L1149.7,434.381C1149.71,434.38 1169.45,433.25 1190.87,429.745C1201.58,427.992 1212.71,425.647 1222.02,422.544C1231.32,419.432 1238.82,415.603 1242.29,410.692C1244.18,407.987 1244.99,404.718 1244.99,401.134C1244.99,395.501 1243.02,389.062 1240.09,382.544C1231.29,363.006 1213.79,342.737 1213.77,342.717L1213.69,342.622L1213.57,342.577L1213.4,343.044L1213.02,343.371C1213.02,343.371 1213.14,343.509 1213.36,343.777C1215.06,345.786 1222.74,355.022 1229.98,366.322C1233.6,371.971 1237.11,378.136 1239.71,384.161C1242.31,390.186 1243.99,396.073 1243.99,401.134C1243.99,404.573 1243.22,407.618 1241.47,410.118C1238.28,414.685 1230.93,418.529 1221.7,421.596C1207.86,426.211 1189.83,429.164 1175.28,430.955C1168,431.852 1161.59,432.459 1157,432.841C1154.71,433.033 1152.87,433.168 1151.6,433.256C1150.33,433.343 1149.65,433.382 1149.65,433.383L1149.67,433.882L1150.15,433.739C1150.15,433.737 1149.94,433.036 1149.57,431.744C1146.99,422.711 1136.67,384.88 1136.67,359.36C1136.67,350.788 1137.86,343.619 1140.77,339.482C1142.65,336.81 1145.49,334.983 1149.04,333.818C1152.59,332.654 1156.82,332.164 1161.4,332.164C1172.41,332.163 1185.38,334.996 1195.58,337.836C1200.69,339.255 1205.1,340.675 1208.23,341.739C1209.8,342.272 1211.05,342.715 1211.9,343.025C1212.76,343.335 1213.22,343.511 1213.22,343.511L1213.4,343.044L1213.02,343.371L1213.4,343.044Z" style="fill:url(#_Radial12);"/>
            <path d="M1217.4,367.684C1217.4,367.684 1171.16,346.765 1157.84,362.491C1144.53,378.216 1153.58,443.044 1153.58,443.044C1153.58,443.044 1219.02,441.294 1232.33,425.568C1245.65,409.843 1217.4,367.684 1217.4,367.684Z" style="fill:url(#_Radial13);"/>
            <path d="M1217.4,367.684L1217.6,367.228C1217.59,367.223 1211.47,364.454 1203.03,361.683C1194.59,358.914 1183.84,356.136 1174.51,356.133C1171.01,356.134 1167.7,356.527 1164.78,357.476C1161.87,358.424 1159.35,359.936 1157.46,362.168C1154.54,365.63 1152.72,371.23 1151.6,377.926C1150.48,384.621 1150.07,392.417 1150.07,400.246C1150.08,421.55 1153.09,443.101 1153.09,443.113L1153.15,443.556L1153.6,443.544C1153.61,443.543 1169.98,443.106 1188.03,440.699C1197.06,439.495 1206.51,437.799 1214.55,435.412C1222.6,433.018 1229.25,429.964 1232.72,425.891C1235.36,422.773 1236.4,418.681 1236.4,414.163C1236.39,404.572 1231.73,392.921 1227.1,383.625C1222.45,374.333 1217.82,367.417 1217.81,367.405L1217.73,367.287L1217.6,367.228L1217.4,367.684L1216.98,367.962C1216.98,367.963 1217.27,368.388 1217.77,369.176C1219.53,371.935 1223.95,379.107 1227.92,387.634C1231.89,396.157 1235.41,406.048 1235.4,414.163C1235.4,418.536 1234.39,422.366 1231.95,425.245C1228.76,429.035 1222.24,432.097 1214.27,434.454C1202.32,438.001 1187.13,440.029 1174.94,441.163C1168.85,441.731 1163.51,442.076 1159.68,442.279C1157.77,442.381 1156.25,442.447 1155.19,442.488C1154.14,442.529 1153.57,442.544 1153.57,442.544L1153.58,443.044L1154.08,442.975C1154.08,442.974 1154.03,442.641 1153.95,442.012C1153.38,437.611 1151.07,418.808 1151.07,400.246C1151.07,392.453 1151.48,384.701 1152.59,378.09C1153.69,371.479 1155.5,366.013 1158.22,362.814C1159.97,360.75 1162.31,359.333 1165.09,358.426C1167.87,357.521 1171.08,357.133 1174.51,357.133C1183.64,357.131 1194.33,359.878 1202.72,362.634C1206.91,364.011 1210.53,365.388 1213.1,366.421C1214.39,366.937 1215.41,367.367 1216.11,367.668C1216.81,367.969 1217.19,368.139 1217.19,368.139L1217.4,367.684L1216.98,367.962L1217.4,367.684Z" style="fill:url(#_Radial14);"/>
            <path d="M1205.51,494.631C1205.51,494.631 1250.34,449.046 1238.31,429.265C1226.27,409.484 1147.83,399.839 1147.83,399.839C1147.83,399.839 1120.34,473.938 1132.38,493.719C1144.41,513.5 1205.51,494.631 1205.51,494.631Z" style="fill:url(#_Radial15);"/>
            <path d="M1205.51,494.631L1205.86,494.981C1205.87,494.972 1214.6,486.102 1223.33,474.471C1227.7,468.655 1232.07,462.149 1235.36,455.703C1238.65,449.255 1240.86,442.871 1240.86,437.253C1240.86,434.238 1240.22,431.437 1238.74,429.005C1235.6,423.879 1228.37,419.57 1219.28,415.859C1192.04,404.763 1147.91,399.348 1147.89,399.343L1147.5,399.294L1147.36,399.665C1147.36,399.673 1142.73,412.15 1138.1,428.241C1133.47,444.337 1128.83,464.029 1128.83,478.548C1128.83,484.907 1129.71,490.285 1131.95,493.979C1134.1,497.516 1137.75,499.833 1142.23,501.263C1146.71,502.694 1152.06,503.252 1157.72,503.253C1179.32,503.248 1205.63,495.113 1205.65,495.109L1205.77,495.071L1205.86,494.981L1205.51,494.631L1205.36,494.153C1205.36,494.153 1204.95,494.279 1204.19,494.5C1198.89,496.05 1176.42,502.256 1157.72,502.253C1152.12,502.253 1146.87,501.696 1142.53,500.31C1138.19,498.924 1134.79,496.724 1132.81,493.459C1130.72,490.046 1129.83,484.815 1129.83,478.548C1129.83,464.229 1134.44,444.567 1139.06,428.518C1141.37,420.491 1143.68,413.363 1145.41,408.242C1146.28,405.682 1147,403.624 1147.51,402.206C1148.01,400.788 1148.3,400.015 1148.3,400.013L1147.83,399.839L1147.77,400.335C1147.77,400.336 1148.99,400.485 1151.16,400.787C1158.73,401.844 1177.86,404.759 1196.38,409.566C1205.65,411.968 1214.76,414.845 1222.19,418.19C1229.62,421.527 1235.36,425.358 1237.88,429.525C1239.25,431.774 1239.86,434.377 1239.86,437.253C1239.86,442.606 1237.72,448.88 1234.47,455.248C1229.6,464.804 1222.26,474.574 1216.15,481.943C1213.09,485.628 1210.34,488.714 1208.35,490.878C1207.36,491.96 1206.56,492.811 1206.01,493.392C1205.45,493.972 1205.15,494.279 1205.15,494.28L1205.51,494.631L1205.36,494.153L1205.51,494.631Z" style="fill:url(#_Radial16);"/>
            <path d="M1121.17,347.847C1121.17,347.847 1073.55,379.822 1080.54,399.205C1087.54,418.588 1154.68,440.733 1154.68,440.733C1154.68,440.733 1192.21,380.817 1185.22,361.434C1178.23,342.052 1121.17,347.847 1121.17,347.847Z" style="fill:url(#_Radial17);"/>
            <path d="M1121.17,347.847L1120.89,347.432C1120.87,347.44 1110.53,354.386 1100.17,363.785C1094.99,368.485 1089.8,373.797 1085.89,379.18C1081.99,384.563 1079.35,390.017 1079.34,395.064C1079.34,396.545 1079.57,397.99 1080.07,399.374C1081.91,404.424 1087.49,409.454 1094.8,414.288C1105.77,421.525 1120.69,428.245 1132.88,433.168C1145.07,438.089 1154.52,441.206 1154.52,441.208L1154.9,441.331L1155.1,440.999C1155.11,440.991 1162.97,428.447 1170.83,412.967C1174.76,405.226 1178.7,396.752 1181.65,388.736C1184.6,380.717 1186.59,373.165 1186.59,367.21C1186.59,364.99 1186.31,362.989 1185.69,361.264C1184.55,358.095 1182.13,355.597 1178.93,353.641C1174.13,350.706 1167.54,348.945 1160.52,347.899C1153.5,346.855 1146.04,346.536 1139.52,346.535C1129.13,346.536 1121.13,347.349 1121.11,347.35L1120.99,347.362L1120.89,347.432L1121.17,347.847L1121.22,348.345C1121.22,348.344 1121.71,348.294 1122.62,348.219C1125.34,347.991 1131.77,347.535 1139.52,347.535C1148.17,347.535 1158.47,348.104 1167.12,350.173C1171.44,351.206 1175.34,352.615 1178.41,354.494C1181.48,356.375 1183.71,358.708 1184.75,361.604C1185.32,363.183 1185.59,365.073 1185.59,367.21C1185.59,372.947 1183.65,380.431 1180.71,388.39C1176.31,400.333 1169.69,413.361 1164.18,423.395C1161.42,428.412 1158.94,432.682 1157.15,435.697C1156.25,437.204 1155.53,438.397 1155.03,439.214C1154.53,440.03 1154.26,440.467 1154.26,440.468L1154.68,440.733L1154.84,440.259C1154.83,440.258 1153.79,439.914 1151.95,439.272C1145.48,437.024 1129.21,431.133 1113.82,423.695C1106.12,419.977 1098.64,415.871 1092.72,411.654C1086.8,407.442 1082.47,403.094 1081.01,399.035C1080.55,397.767 1080.34,396.442 1080.34,395.064C1080.33,390.377 1082.85,385.062 1086.7,379.767C1092.47,371.821 1101.16,363.93 1108.41,358.042C1112.03,355.097 1115.29,352.65 1117.65,350.941C1118.82,350.086 1119.77,349.416 1120.43,348.96C1121.08,348.503 1121.44,348.263 1121.44,348.262L1121.17,347.847L1121.22,348.345L1121.17,347.847Z" style="fill:url(#_Radial18);"/>
            <path d="M1188.01,476.792C1188.01,476.792 1210.22,445.066 1201.01,434.387C1191.8,423.706 1143.88,425.61 1143.88,425.61C1143.88,425.61 1134.94,472.731 1144.15,483.412C1153.36,494.092 1188.01,476.792 1188.01,476.792Z" style="fill:url(#_Radial19);"/>
            <path d="M1188.01,476.792L1188.42,477.079C1188.43,477.068 1192.25,471.614 1196.07,464.451C1199.89,457.281 1203.74,448.432 1203.75,441.482C1203.75,438.601 1203.08,436.014 1201.39,434.06C1199.58,431.972 1196.5,430.419 1192.67,429.197C1181.2,425.552 1162.89,424.982 1152.24,424.979C1147.18,424.979 1143.87,425.111 1143.86,425.111L1143.46,425.127L1143.39,425.517C1143.39,425.533 1139.49,446.065 1139.49,463.163C1139.49,467.57 1139.75,471.749 1140.4,475.307C1141.07,478.863 1142.11,481.805 1143.77,483.739C1144.93,485.079 1146.46,485.996 1148.22,486.572C1149.98,487.15 1151.98,487.393 1154.13,487.393C1161.07,487.389 1169.57,484.844 1176.36,482.311C1183.15,479.776 1188.22,477.244 1188.23,477.239L1188.35,477.183L1188.42,477.079L1188.01,476.792L1187.79,476.345C1187.79,476.345 1187.48,476.5 1186.9,476.775C1184.88,477.736 1179.63,480.147 1173.41,482.313C1167.2,484.48 1159.99,486.396 1154.13,486.393C1152.06,486.394 1150.16,486.156 1148.53,485.622C1146.9,485.088 1145.55,484.264 1144.53,483.086C1143.06,481.388 1142.03,478.592 1141.39,475.125C1140.75,471.659 1140.49,467.53 1140.49,463.163C1140.49,454.687 1141.46,445.314 1142.43,438.068C1142.92,434.444 1143.4,431.352 1143.77,429.166C1143.95,428.073 1144.1,427.206 1144.21,426.614C1144.31,426.021 1144.37,425.704 1144.37,425.704L1143.88,425.61L1143.9,426.11C1143.9,426.11 1144.72,426.077 1146.18,426.044C1147.64,426.012 1149.72,425.979 1152.24,425.979C1159.31,425.978 1169.79,426.238 1179.33,427.476C1184.1,428.095 1188.63,428.959 1192.37,430.15C1196.11,431.336 1199.05,432.865 1200.63,434.713C1202.11,436.426 1202.75,438.747 1202.75,441.482C1202.76,448.075 1198.99,456.881 1195.19,463.98C1193.29,467.533 1191.39,470.667 1189.97,472.911C1189.26,474.034 1188.66,474.933 1188.25,475.552C1187.84,476.17 1187.6,476.504 1187.6,476.505L1188.01,476.792L1187.79,476.345L1188.01,476.792Z" style="fill:url(#_Radial20);"/>
            <path d="M1124.44,372.558C1124.44,372.558 1099.03,396.591 1105.24,407.712C1111.44,418.833 1154.19,425.853 1154.19,425.853C1154.19,425.853 1170.65,385.787 1164.45,374.666C1158.24,363.545 1124.44,372.558 1124.44,372.558Z" style="fill:url(#_Radial21);"/>
            <path d="M1124.44,372.558L1124.1,372.194C1124.09,372.204 1119.03,376.987 1113.96,383.291C1111.43,386.444 1108.89,389.977 1106.97,393.496C1105.06,397.018 1103.76,400.523 1103.76,403.67C1103.76,405.206 1104.08,406.66 1104.8,407.956C1106.47,410.92 1110.38,413.444 1115.3,415.693C1122.68,419.051 1132.36,421.707 1140.22,423.532C1148.08,425.356 1154.1,426.345 1154.11,426.346L1154.5,426.41L1154.65,426.043C1154.65,426.035 1157.57,418.934 1160.49,409.871C1163.41,400.802 1166.34,389.792 1166.34,381.866C1166.34,378.875 1165.93,376.312 1164.88,374.422C1163.61,372.146 1161.29,370.699 1158.45,369.819C1155.61,368.939 1152.23,368.611 1148.7,368.61C1137.27,368.613 1124.33,372.071 1124.31,372.074L1124.19,372.107L1124.1,372.194L1124.44,372.558L1124.57,373.041C1124.57,373.041 1124.77,372.988 1125.14,372.894C1127.75,372.238 1138.87,369.608 1148.7,369.61C1152.16,369.61 1155.47,369.938 1158.16,370.775C1160.86,371.612 1162.91,372.942 1164.01,374.91C1164.93,376.548 1165.35,378.968 1165.34,381.866C1165.35,389.562 1162.45,400.545 1159.54,409.564C1158.09,414.076 1156.63,418.103 1155.54,421C1155,422.449 1154.54,423.616 1154.22,424.419C1153.91,425.223 1153.73,425.661 1153.72,425.662L1154.19,425.853L1154.27,425.359C1154.27,425.359 1153.61,425.25 1152.43,425.037C1148.31,424.292 1137.9,422.272 1127.87,419.23C1122.86,417.71 1117.93,415.933 1113.95,413.943C1109.96,411.96 1106.93,409.737 1105.67,407.468C1105.05,406.343 1104.76,405.071 1104.76,403.67C1104.76,400.804 1105.98,397.414 1107.85,393.974C1110.66,388.811 1114.9,383.535 1118.43,379.563C1120.2,377.576 1121.79,375.914 1122.94,374.749C1123.51,374.167 1123.97,373.709 1124.29,373.397C1124.61,373.085 1124.79,372.921 1124.79,372.921L1124.44,372.558L1124.57,373.041L1124.44,372.558Z" style="fill:url(#_Radial22);"/>
            <path d="M1208.53,388.012C1208.53,388.012 1180.33,361.468 1168.43,369.044C1156.54,376.62 1151.53,424.318 1151.53,424.318C1151.53,424.318 1196.87,439.941 1208.77,432.365C1220.66,424.789 1208.53,388.012 1208.53,388.012Z" style="fill:url(#_Radial23);"/>
            <path d="M1208.53,388.012L1208.87,387.648C1208.86,387.639 1203.45,382.546 1196.35,377.442C1192.8,374.89 1188.83,372.335 1184.88,370.411C1180.94,368.489 1177.03,367.187 1173.56,367.184C1171.59,367.183 1169.74,367.615 1168.16,368.622C1165.01,370.646 1162.47,375.121 1160.31,380.696C1153.84,397.416 1151.04,424.245 1151.03,424.266L1150.99,424.661L1151.37,424.791C1151.37,424.794 1158.73,427.327 1168.3,429.862C1177.87,432.396 1189.65,434.936 1198.57,434.939C1202.9,434.934 1206.56,434.352 1209.04,432.787C1211.12,431.46 1212.48,429.308 1213.32,426.706C1214.16,424.101 1214.49,421.027 1214.49,417.763C1214.49,404.452 1209,387.881 1209,387.856L1208.96,387.735L1208.87,387.648L1208.53,388.012L1208.05,388.169C1208.05,388.17 1208.13,388.423 1208.28,388.899C1209.32,392.225 1213.5,406.337 1213.49,417.763C1213.49,420.959 1213.16,423.941 1212.37,426.399C1211.57,428.861 1210.33,430.779 1208.5,431.944C1206.33,433.335 1202.81,433.943 1198.57,433.939C1189.83,433.941 1178.08,431.421 1168.55,428.895C1163.78,427.633 1159.57,426.37 1156.54,425.422C1155.03,424.949 1153.82,424.554 1152.98,424.278C1152.15,424.002 1151.69,423.846 1151.69,423.846L1151.53,424.318L1152.03,424.371C1152.03,424.368 1152.1,423.63 1152.26,422.314C1152.82,417.709 1154.39,406.077 1157.1,394.789C1158.46,389.147 1160.11,383.59 1162.06,379.053C1163.99,374.514 1166.26,371.01 1168.7,369.466C1170.09,368.58 1171.73,368.184 1173.56,368.184C1176.78,368.181 1180.58,369.42 1184.45,371.309C1190.25,374.14 1196.19,378.411 1200.68,381.972C1202.92,383.752 1204.8,385.355 1206.11,386.512C1206.77,387.09 1207.29,387.557 1207.64,387.879C1208,388.201 1208.18,388.376 1208.18,388.376L1208.53,388.012L1208.05,388.169L1208.53,388.012Z" style="fill:url(#_Radial24);"/>
            <path d="M1093.04,457.362C1093.04,457.362 1119.12,485.447 1131.21,478.799C1143.3,472.15 1151,425.499 1151,425.499C1151,425.499 1107.49,406.998 1095.39,413.646C1083.3,420.296 1093.04,457.362 1093.04,457.362Z" style="fill:url(#_Radial25);"/>
            <path d="M1093.04,457.362L1092.67,457.703C1092.68,457.712 1097.91,463.338 1104.78,468.976C1108.22,471.795 1112.07,474.618 1115.9,476.746C1119.73,478.87 1123.54,480.313 1126.95,480.317C1128.56,480.318 1130.09,479.987 1131.45,479.237C1133.06,478.35 1134.54,476.839 1135.94,474.891C1140.81,468.074 1144.66,455.782 1147.34,445.153C1150.01,434.529 1151.49,425.589 1151.49,425.58L1151.55,425.193L1151.19,425.039C1151.18,425.036 1143.36,421.708 1133.41,418.378C1123.46,415.049 1111.41,411.71 1102.84,411.705C1099.76,411.707 1097.11,412.132 1095.15,413.208C1092.68,414.57 1091.1,417.092 1090.15,420.191C1089.19,423.295 1088.83,427.009 1088.83,430.879C1088.83,443.343 1092.55,457.468 1092.56,457.489L1092.59,457.611L1092.67,457.703L1093.04,457.362L1093.52,457.235C1093.52,457.235 1093.47,457.019 1093.37,456.612C1092.66,453.762 1089.83,441.621 1089.83,430.879C1089.83,427.072 1090.19,423.442 1091.1,420.486C1092.02,417.524 1093.47,415.269 1095.63,414.085C1097.35,413.135 1099.85,412.702 1102.84,412.705C1111.16,412.7 1123.19,416.007 1133.09,419.326C1138.05,420.984 1142.48,422.643 1145.67,423.888C1147.26,424.51 1148.54,425.028 1149.43,425.39C1150.32,425.753 1150.8,425.959 1150.8,425.959L1151,425.499L1150.5,425.418C1150.5,425.42 1150.38,426.142 1150.15,427.427C1149.33,431.926 1147.12,443.28 1143.8,454.213C1142.14,459.68 1140.2,465.041 1138.03,469.376C1135.87,473.715 1133.45,477.01 1130.97,478.361C1129.77,479.018 1128.43,479.316 1126.95,479.317C1123.83,479.321 1120.13,477.957 1116.38,475.871C1110.76,472.747 1105,468.03 1100.66,464.097C1098.49,462.13 1096.68,460.36 1095.4,459.082C1094.77,458.443 1094.27,457.927 1093.93,457.571C1093.59,457.216 1093.41,457.023 1093.41,457.022L1093.04,457.362L1093.52,457.235L1093.04,457.362Z" style="fill:url(#_Radial26);"/>
            <path d="M1133.48,459.347C1133.48,459.347 1156.51,464.566 1160.34,456.993C1164.17,449.42 1151.82,423.055 1151.82,423.055C1151.82,423.055 1123.27,428.752 1119.44,436.325C1115.61,443.898 1133.48,459.347 1133.48,459.347Z" style="fill:url(#_Radial27);"/>
            <path d="M1133.48,459.347L1133.37,459.834C1133.39,459.837 1141.14,461.598 1148.47,461.6C1151.13,461.599 1153.73,461.369 1155.91,460.72C1158.09,460.071 1159.89,458.988 1160.79,457.219C1161.35,456.093 1161.57,454.668 1161.57,453.039C1161.57,447.791 1159.23,440.286 1156.92,434.04C1154.59,427.801 1152.27,422.85 1152.27,422.843L1152.1,422.488L1151.72,422.564C1151.71,422.566 1144.56,423.993 1136.92,426.373C1133.09,427.563 1129.15,428.991 1125.89,430.609C1124.26,431.419 1122.81,432.276 1121.63,433.184C1120.44,434.093 1119.53,435.053 1118.99,436.1C1118.58,436.911 1118.4,437.8 1118.4,438.723C1118.41,440.88 1119.36,443.232 1120.75,445.584C1124.92,452.62 1133.13,459.705 1133.15,459.725L1133.25,459.807L1133.37,459.834L1133.48,459.347L1133.81,458.968C1133.8,458.968 1133.58,458.776 1133.19,458.419C1131.8,457.168 1128.33,453.917 1125.22,450.125C1123.66,448.229 1122.2,446.198 1121.13,444.226C1120.06,442.255 1119.4,440.344 1119.4,438.723C1119.4,437.928 1119.56,437.205 1119.89,436.551C1120.31,435.704 1121.12,434.829 1122.23,433.977C1126.13,430.979 1133.58,428.335 1140.02,426.487C1143.25,425.559 1146.22,424.823 1148.39,424.32C1149.47,424.068 1150.36,423.874 1150.97,423.743C1151.58,423.612 1151.92,423.545 1151.92,423.545L1151.82,423.055L1151.37,423.267C1151.37,423.268 1151.51,423.572 1151.76,424.13C1152.64,426.083 1154.85,431.116 1156.84,436.765C1158.83,442.409 1160.58,448.691 1160.57,453.039C1160.58,454.576 1160.35,455.861 1159.89,456.768C1159.18,458.182 1157.67,459.152 1155.63,459.761C1153.59,460.369 1151.07,460.601 1148.47,460.6C1144.88,460.6 1141.15,460.165 1138.33,459.729C1136.92,459.511 1135.73,459.293 1134.9,459.13C1134.48,459.048 1134.15,458.98 1133.93,458.933C1133.71,458.885 1133.59,458.859 1133.59,458.859L1133.48,459.347L1133.81,458.968L1133.48,459.347Z" style="fill:url(#_Radial28);"/>
            <path d="M1117.11,407.018C1117.11,407.018 1109.35,429.05 1116.4,433.726C1123.45,438.401 1150.89,429.425 1150.89,429.425C1150.89,429.425 1148.49,400.652 1141.44,395.977C1134.39,391.301 1117.11,407.018 1117.11,407.018Z" style="fill:url(#_Radial29);"/>
            <path d="M1117.11,407.018L1116.64,406.851C1116.63,406.878 1112.95,417.299 1112.94,425.465C1112.94,427.323 1113.13,429.07 1113.62,430.57C1114.11,432.067 1114.9,433.332 1116.12,434.142C1117.74,435.203 1120.14,435.569 1122.96,435.575C1128.37,435.573 1135.37,434.151 1141.04,432.735C1146.71,431.318 1151.04,429.902 1151.05,429.9L1151.42,429.777L1151.39,429.383C1151.39,429.373 1150.79,422.168 1149.3,414.361C1148.55,410.456 1147.59,406.401 1146.36,403.005C1145.12,399.611 1143.65,396.863 1141.72,395.56C1140.7,394.889 1139.51,394.607 1138.25,394.608C1136.11,394.611 1133.73,395.384 1131.34,396.517C1124.16,399.919 1116.79,406.634 1116.77,406.648L1116.68,406.732L1116.64,406.851L1117.11,407.018L1117.45,407.387C1117.45,407.387 1117.65,407.206 1118.02,406.883C1119.31,405.752 1122.68,402.914 1126.58,400.371C1128.53,399.099 1130.62,397.901 1132.63,397.027C1134.65,396.151 1136.59,395.605 1138.25,395.607C1139.37,395.608 1140.35,395.853 1141.16,396.393C1142.75,397.428 1144.23,400.03 1145.42,403.346C1147.22,408.318 1148.47,414.862 1149.26,420.148C1149.66,422.792 1149.94,425.124 1150.12,426.793C1150.22,427.628 1150.28,428.297 1150.33,428.757C1150.37,429.217 1150.39,429.466 1150.39,429.466L1150.89,429.425L1150.73,428.95C1150.73,428.95 1150.47,429.037 1149.98,429.19C1148.26,429.729 1143.81,431.078 1138.63,432.29C1133.46,433.503 1127.55,434.576 1122.96,434.575C1120.23,434.581 1117.97,434.181 1116.68,433.309C1115.69,432.658 1115.01,431.617 1114.57,430.26C1114.13,428.907 1113.94,427.254 1113.94,425.465C1113.94,421.525 1114.85,416.939 1115.76,413.354C1116.22,411.56 1116.67,410.015 1117.01,408.92C1117.19,408.372 1117.33,407.937 1117.43,407.639C1117.53,407.342 1117.58,407.184 1117.58,407.184L1117.11,407.018L1117.45,407.387L1117.11,407.018Z" style="fill:url(#_Radial30);"/>
            <path d="M1190.6,437.32C1190.6,437.32 1192.88,410.707 1184.78,408.19C1176.69,405.675 1151.82,425.263 1151.82,425.263C1151.82,425.263 1161.2,455.503 1169.29,458.02C1177.38,460.535 1190.6,437.32 1190.6,437.32Z" style="fill:url(#_Radial31);"/>
            <path d="M1190.6,437.32L1191.09,437.363C1191.09,437.354 1191.39,433.883 1191.39,429.319C1191.39,425.271 1191.16,420.367 1190.27,416.232C1189.82,414.163 1189.21,412.285 1188.36,410.79C1187.51,409.299 1186.39,408.167 1184.93,407.713C1184.38,407.543 1183.79,407.467 1183.15,407.467C1180.65,407.474 1177.49,408.586 1174.08,410.219C1163.88,415.125 1151.52,424.86 1151.51,424.87L1151.24,425.082L1151.34,425.411C1151.34,425.42 1153.69,432.991 1157.06,440.893C1158.75,444.846 1160.68,448.88 1162.73,452.107C1163.75,453.721 1164.79,455.133 1165.86,456.237C1166.92,457.338 1168.01,458.141 1169.14,458.497C1169.61,458.642 1170.09,458.71 1170.58,458.71C1172.83,458.698 1175.16,457.311 1177.46,455.324C1180.91,452.332 1184.29,447.903 1186.82,444.213C1189.35,440.523 1191.03,437.576 1191.03,437.568L1191.08,437.472L1191.09,437.363L1190.6,437.32L1190.16,437.073C1190.16,437.074 1189.98,437.394 1189.64,437.962C1188.45,439.949 1185.37,444.932 1181.71,449.397C1179.88,451.628 1177.91,453.73 1175.98,455.256C1174.05,456.789 1172.16,457.718 1170.58,457.71C1170.18,457.71 1169.81,457.656 1169.44,457.542C1168.55,457.268 1167.57,456.576 1166.58,455.542C1164.83,453.736 1163.04,450.918 1161.37,447.719C1158.85,442.919 1156.58,437.262 1154.94,432.81C1154.12,430.584 1153.46,428.658 1153,427.29C1152.77,426.606 1152.6,426.062 1152.48,425.688C1152.36,425.315 1152.29,425.115 1152.29,425.115L1151.82,425.263L1152.13,425.656C1152.13,425.655 1152.47,425.388 1153.08,424.917C1155.24,423.267 1160.77,419.137 1166.78,415.427C1169.78,413.573 1172.9,411.824 1175.76,410.544C1178.62,409.263 1181.23,408.463 1183.15,408.467C1183.71,408.467 1184.21,408.534 1184.64,408.668C1185.77,409.018 1186.71,409.923 1187.49,411.286C1188.66,413.324 1189.4,416.338 1189.83,419.584C1190.26,422.831 1190.39,426.313 1190.39,429.319C1190.39,431.579 1190.32,433.571 1190.24,434.997C1190.21,435.71 1190.17,436.281 1190.14,436.674C1190.12,437.066 1190.1,437.277 1190.1,437.278L1190.6,437.32L1190.16,437.073L1190.6,437.32Z" style="fill:url(#_Radial32);"/>
            <path d="M1141.18,421.336C1146.01,414.236 1153.19,412.053 1157.08,417.098C1160.98,422.113 1161.92,429.668 1159.5,433.375C1157.09,437.105 1150.27,438.195 1143.95,436.556C1137.62,434.909 1136.33,428.452 1141.18,421.336Z" style="fill:url(#_Radial33);"/>
            <path d="M1141.18,421.336L1141.59,421.617C1144.56,417.239 1148.43,414.838 1151.68,414.849C1153.6,414.855 1155.32,415.644 1156.69,417.403C1159.08,420.469 1160.33,424.567 1160.33,428.036C1160.33,430.056 1159.9,431.853 1159.09,433.102L1159.07,433.124L1159.08,433.103C1158.32,434.291 1157.03,435.218 1155.4,435.846C1153.76,436.474 1151.78,436.797 1149.67,436.797C1147.85,436.797 1145.94,436.556 1144.07,436.072C1142.29,435.607 1140.97,434.759 1140.08,433.638C1139.2,432.517 1138.74,431.108 1138.73,429.468C1138.73,427.192 1139.64,424.473 1141.59,421.618L1141.18,421.336L1140.76,421.054C1138.74,424.032 1137.74,426.925 1137.73,429.468C1137.73,431.296 1138.26,432.946 1139.3,434.258C1140.33,435.571 1141.87,436.533 1143.82,437.039C1145.77,437.545 1147.77,437.797 1149.67,437.797C1151.88,437.796 1153.97,437.461 1155.75,436.779C1157.53,436.098 1159.01,435.064 1159.92,433.646L1159.92,433.648C1160.89,432.167 1161.33,430.193 1161.33,428.036C1161.33,424.333 1160.02,420.065 1157.48,416.791C1155.96,414.808 1153.89,413.843 1151.68,413.849C1147.94,413.861 1143.87,416.502 1140.76,421.055L1141.18,421.336Z" style="fill:url(#_Radial34);"/>
        </g>
    </g>
    <defs>
        <radialGradient id="_Radial1" cx="0" cy="0" r="1" gradientUnits="userSpaceOnUse" gradientTransform="matrix(123.17,0,0,123.17,1136.86,421.157)"><stop offset="0" style="stop-color:rgb(245,142,135);stop-opacity:1"/><stop offset="0.7" style="stop-color:rgb(229,122,120);stop-opacity:1"/><stop offset="0.9" style="stop-color:rgb(249,179,174);stop-opacity:1"/><stop offset="1" style="stop-color:rgb(250,198,192);stop-opacity:1"/></radialGradient>
        <radialGradient id="_Radial2" cx="0" cy="0" r="1" gradientUnits="userSpaceOnUse" gradientTransform="matrix(62.9059,0,0,62.9059,1208.09,433.089)"><stop offset="0" style="stop-color:rgb(252,213,203);stop-opacity:1"/><stop offset="1" style="stop-color:rgb(250,198,192);stop-opacity:1"/></radialGradient>
        <radialGradient id="_Radial3" cx="0" cy="0" r="1" gradientUnits="userSpaceOnUse" gradientTransform="matrix(119.964,0,0,119.964,1130.4,402.49)"><stop offset="0" style="stop-color:rgb(245,142,135);stop-opacity:1"/><stop offset="0.7" style="stop-color:rgb(229,122,120);stop-opacity:1"/><stop offset="0.9" style="stop-color:rgb(249,179,174);stop-opacity:1"/><stop offset="1" style="stop-color:rgb(250,198,192);stop-opacity:1"/></radialGradient>
        <radialGradient id="_Radial4" cx="0" cy="0" r="1" gradientUnits="userSpaceOnUse" gradientTransform="matrix(62.4353,0,0,62.4353,1160.65,468.298)"><stop offset="0" style="stop-color:rgb(252,213,203);stop-opacity:1"/><stop offset="1" style="stop-color:rgb(250,198,192);stop-opacity:1"/></radialGradient>
        <radialGradient id="_Radial5" cx="0" cy="0" r="1" gradientUnits="userSpaceOnUse" gradientTransform="matrix(115.879,0,0,115.879,1153.74,434.08)"><stop offset="0" style="stop-color:rgb(245,142,135);stop-opacity:1"/><stop offset="0.7" style="stop-color:rgb(229,122,120);stop-opacity:1"/><stop offset="1" style="stop-color:rgb(250,198,192);stop-opacity:1"/></radialGradient>
        <radialGradient id="_Radial6" cx="0" cy="0" r="1" gradientUnits="userSpaceOnUse" gradientTransform="matrix(62.5799,0,0,62.5799,1132.17,363.865)"><stop offset="0" style="stop-color:rgb(252,213,203);stop-opacity:1"/><stop offset="1" style="stop-color:rgb(250,198,192);stop-opacity:1"/></radialGradient>
        <radialGradient id="_Radial7" cx="0" cy="0" r="1" gradientUnits="userSpaceOnUse" gradientTransform="matrix(111.619,0,0,111.619,1154.45,435.516)"><stop offset="0" style="stop-color:rgb(245,142,135);stop-opacity:1"/><stop offset="0.7" style="stop-color:rgb(229,122,120);stop-opacity:1"/><stop offset="0.9" style="stop-color:rgb(249,179,174);stop-opacity:1"/><stop offset="1" style="stop-color:rgb(250,198,192);stop-opacity:1"/></radialGradient>
        <radialGradient id="_Radial8" cx="0" cy="0" r="1" gradientUnits="userSpaceOnUse" gradientTransform="matrix(51.6323,0,0,51.6323,1092.15,402.922)"><stop offset="0" style="stop-color:rgb(252,213,203);stop-opacity:1"/><stop offset="1" style="stop-color:rgb(250,198,192);stop-opacity:1"/></radialGradient>
        <radialGradient id="_Radial9" cx="0" cy="0" r="1" gradientUnits="userSpaceOnUse" gradientTransform="matrix(92.3298,0,0,92.3298,1151.94,416.849)"><stop offset="0" style="stop-color:rgb(245,142,135);stop-opacity:1"/><stop offset="0.7" style="stop-color:rgb(229,122,120);stop-opacity:1"/><stop offset="0.9" style="stop-color:rgb(249,179,174);stop-opacity:1"/><stop offset="1" style="stop-color:rgb(250,198,192);stop-opacity:1"/></radialGradient>
        <radialGradient id="_Radial10" cx="0" cy="0" r="1" gradientUnits="userSpaceOnUse" gradientTransform="matrix(48.6108,0,0,48.6108,1101,457.178)"><stop offset="0" style="stop-color:rgb(252,213,203);stop-opacity:1"/><stop offset="1" style="stop-color:rgb(250,198,192);stop-opacity:1"/></radialGradient>
        <radialGradient id="_Radial11" cx="0" cy="0" r="1" gradientUnits="userSpaceOnUse" gradientTransform="matrix(107.877,0,0,107.877,1150.15,438.388)"><stop offset="0" style="stop-color:rgb(245,142,135);stop-opacity:1"/><stop offset="0.7" style="stop-color:rgb(229,122,120);stop-opacity:1"/><stop offset="0.9" style="stop-color:rgb(249,179,174);stop-opacity:1"/><stop offset="1" style="stop-color:rgb(250,198,192);stop-opacity:1"/></radialGradient>
        <radialGradient id="_Radial12" cx="0" cy="0" r="1" gradientUnits="userSpaceOnUse" gradientTransform="matrix(53.16,0,0,53.16,1190.33,382.784)"><stop offset="0" style="stop-color:rgb(252,213,203);stop-opacity:1"/><stop offset="1" style="stop-color:rgb(250,198,192);stop-opacity:1"/></radialGradient>
        <radialGradient id="_Radial13" cx="0" cy="0" r="1" gradientUnits="userSpaceOnUse" gradientTransform="matrix(81.3056,0,0,81.3056,1160.92,436.593)"><stop offset="0" style="stop-color:rgb(245,142,135);stop-opacity:1"/><stop offset="0.7" style="stop-color:rgb(229,122,120);stop-opacity:1"/><stop offset="0.9" style="stop-color:rgb(249,179,174);stop-opacity:1"/><stop offset="1" style="stop-color:rgb(250,198,192);stop-opacity:1"/></radialGradient>
        <radialGradient id="_Radial14" cx="0" cy="0" r="1" gradientUnits="userSpaceOnUse" gradientTransform="matrix(43.4383,0,0,43.4383,1193.24,399.845)"><stop offset="0" style="stop-color:rgb(252,213,203);stop-opacity:1"/><stop offset="1" style="stop-color:rgb(250,198,192);stop-opacity:1"/></radialGradient>
        <radialGradient id="_Radial15" cx="0" cy="0" r="1" gradientUnits="userSpaceOnUse" gradientTransform="matrix(113.231,0,0,113.231,1144.04,394.951)"><stop offset="0" style="stop-color:rgb(245,142,135);stop-opacity:1"/><stop offset="0.7" style="stop-color:rgb(229,122,120);stop-opacity:1"/><stop offset="0.9" style="stop-color:rgb(249,179,174);stop-opacity:1"/><stop offset="1" style="stop-color:rgb(250,198,192);stop-opacity:1"/></radialGradient>
        <radialGradient id="_Radial16" cx="0" cy="0" r="1" gradientUnits="userSpaceOnUse" gradientTransform="matrix(54.035,0,0,54.035,1184.85,451.274)"><stop offset="0" style="stop-color:rgb(252,213,203);stop-opacity:1"/><stop offset="1" style="stop-color:rgb(250,198,192);stop-opacity:1"/></radialGradient>
        <radialGradient id="_Radial17" cx="0" cy="0" r="1" gradientUnits="userSpaceOnUse" gradientTransform="matrix(77.8995,0,0,77.8995,1152.66,429.055)"><stop offset="0" style="stop-color:rgb(245,142,135);stop-opacity:1"/><stop offset="0.7" style="stop-color:rgb(229,122,120);stop-opacity:1"/><stop offset="0.9" style="stop-color:rgb(249,179,174);stop-opacity:1"/><stop offset="1" style="stop-color:rgb(250,198,192);stop-opacity:1"/></radialGradient>
        <radialGradient id="_Radial18" cx="0" cy="0" r="1" gradientUnits="userSpaceOnUse" gradientTransform="matrix(50.607,0,0,50.607,1132.97,393.933)"><stop offset="0" style="stop-color:rgb(252,213,203);stop-opacity:1"/><stop offset="1" style="stop-color:rgb(250,198,192);stop-opacity:1"/></radialGradient>
        <radialGradient id="_Radial19" cx="0" cy="0" r="1" gradientUnits="userSpaceOnUse" gradientTransform="matrix(60.176,0,0,60.176,1152.3,415.054)"><stop offset="0" style="stop-color:rgb(245,142,135);stop-opacity:1"/><stop offset="0.7" style="stop-color:rgb(229,122,120);stop-opacity:1"/><stop offset="0.9" style="stop-color:rgb(249,179,174);stop-opacity:1"/><stop offset="1" style="stop-color:rgb(250,198,192);stop-opacity:1"/></radialGradient>
        <radialGradient id="_Radial20" cx="0" cy="0" r="1" gradientUnits="userSpaceOnUse" gradientTransform="matrix(31.6721,0,0,31.6721,1171.62,456.186)"><stop offset="0" style="stop-color:rgb(252,213,203);stop-opacity:1"/><stop offset="1" style="stop-color:rgb(250,198,192);stop-opacity:1"/></radialGradient>
        <radialGradient id="_Radial21" cx="0" cy="0" r="1" gradientUnits="userSpaceOnUse" gradientTransform="matrix(96.4855,0,0,96.4855,1171.68,466.388)"><stop offset="0" style="stop-color:rgb(245,142,135);stop-opacity:1"/><stop offset="0.7" style="stop-color:rgb(229,122,120);stop-opacity:1"/><stop offset="0.9" style="stop-color:rgb(249,179,174);stop-opacity:1"/><stop offset="1" style="stop-color:rgb(250,198,192);stop-opacity:1"/></radialGradient>
        <radialGradient id="_Radial22" cx="0" cy="0" r="1" gradientUnits="userSpaceOnUse" gradientTransform="matrix(30.1194,0,0,30.1194,1135.05,397.51)"><stop offset="0" style="stop-color:rgb(252,213,203);stop-opacity:1"/><stop offset="1" style="stop-color:rgb(250,198,192);stop-opacity:1"/></radialGradient>
        <radialGradient id="_Radial23" cx="0" cy="0" r="1" gradientUnits="userSpaceOnUse" gradientTransform="matrix(60.5528,0,0,60.5528,1148.71,434.798)"><stop offset="0" style="stop-color:rgb(245,142,135);stop-opacity:1"/><stop offset="0.5" style="stop-color:rgb(230,125,122);stop-opacity:1"/><stop offset="1" style="stop-color:rgb(250,198,192);stop-opacity:1"/></radialGradient>
        <radialGradient id="_Radial24" cx="0" cy="0" r="1" gradientUnits="userSpaceOnUse" gradientTransform="matrix(32.8316,0,0,32.8316,1182.74,401.061)"><stop offset="0" style="stop-color:rgb(252,213,203);stop-opacity:1"/><stop offset="1" style="stop-color:rgb(250,198,192);stop-opacity:1"/></radialGradient>
        <radialGradient id="_Radial25" cx="0" cy="0" r="1" gradientUnits="userSpaceOnUse" gradientTransform="matrix(73.5699,0,0,73.5699,1173.84,418.285)"><stop offset="0" style="stop-color:rgb(245,142,135);stop-opacity:1"/><stop offset="0.7" style="stop-color:rgb(229,122,120);stop-opacity:1"/><stop offset="0.9" style="stop-color:rgb(249,179,174);stop-opacity:1"/><stop offset="1" style="stop-color:rgb(250,198,192);stop-opacity:1"/></radialGradient>
        <radialGradient id="_Radial26" cx="0" cy="0" r="1" gradientUnits="userSpaceOnUse" gradientTransform="matrix(32.8666,0,0,32.8666,1120.19,446.011)"><stop offset="0" style="stop-color:rgb(252,213,203);stop-opacity:1"/><stop offset="1" style="stop-color:rgb(250,198,192);stop-opacity:1"/></radialGradient>
        <radialGradient id="_Radial27" cx="0" cy="0" r="1" gradientUnits="userSpaceOnUse" gradientTransform="matrix(44.9743,0,0,44.9743,1151.94,413.259)"><stop offset="0" style="stop-color:rgb(245,142,135);stop-opacity:1"/><stop offset="0.5" style="stop-color:rgb(245,142,135);stop-opacity:1"/><stop offset="0.9" style="stop-color:rgb(250,195,188);stop-opacity:1"/><stop offset="1" style="stop-color:rgb(250,198,192);stop-opacity:1"/></radialGradient>
        <radialGradient id="_Radial28" cx="0" cy="0" r="1" gradientUnits="userSpaceOnUse" gradientTransform="matrix(20.5959,0,0,20.5959,1139.99,442.044)"><stop offset="0" style="stop-color:rgb(252,213,203);stop-opacity:1"/><stop offset="1" style="stop-color:rgb(250,198,192);stop-opacity:1"/></radialGradient>
        <radialGradient id="_Radial29" cx="0" cy="0" r="1" gradientUnits="userSpaceOnUse" gradientTransform="matrix(39.9905,0,0,39.9905,1159.84,437.311)"><stop offset="0" style="stop-color:rgb(245,142,135);stop-opacity:1"/><stop offset="0.6" style="stop-color:rgb(245,143,137);stop-opacity:1"/><stop offset="0.8" style="stop-color:rgb(249,183,177);stop-opacity:1"/><stop offset="1" style="stop-color:rgb(250,198,192);stop-opacity:1"/></radialGradient>
        <radialGradient id="_Radial30" cx="0" cy="0" r="1" gradientUnits="userSpaceOnUse" gradientTransform="matrix(19.8715,0,0,19.8715,1132.18,415.091)"><stop offset="0" style="stop-color:rgb(252,213,203);stop-opacity:1"/><stop offset="1" style="stop-color:rgb(250,198,192);stop-opacity:1"/></radialGradient>
        <radialGradient id="_Radial31" cx="0" cy="0" r="1" gradientUnits="userSpaceOnUse" gradientTransform="matrix(43.8896,0,0,43.8896,1142.25,422.593)"><stop offset="0" style="stop-color:rgb(245,142,135);stop-opacity:1"/><stop offset="0.4" style="stop-color:rgb(245,142,135);stop-opacity:1"/><stop offset="0.8" style="stop-color:rgb(250,190,184);stop-opacity:1"/><stop offset="1" style="stop-color:rgb(250,198,192);stop-opacity:1"/></radialGradient>
        <radialGradient id="_Radial32" cx="0" cy="0" r="1" gradientUnits="userSpaceOnUse" gradientTransform="matrix(23.0168,0,0,23.0168,1171.31,433.089)"><stop offset="0" style="stop-color:rgb(252,213,203);stop-opacity:1"/><stop offset="1" style="stop-color:rgb(250,198,192);stop-opacity:1"/></radialGradient>
        <radialGradient id="_Radial33" cx="0" cy="0" r="1" gradientUnits="userSpaceOnUse" gradientTransform="matrix(11.3862,0,0,11.3862,1149.53,425.823)"><stop offset="0" style="stop-color:rgb(248,174,167);stop-opacity:1"/><stop offset="1" style="stop-color:rgb(250,198,192);stop-opacity:1"/></radialGradient>
        <radialGradient id="_Radial34" cx="0" cy="0" r="1" gradientUnits="userSpaceOnUse" gradientTransform="matrix(11.8862,0,0,11.8862,1149.53,425.823)"><stop offset="0" style="stop-color:rgb(252,213,203);stop-opacity:1"/><stop offset="1" style="stop-color:rgb(250,198,192);stop-opacity:1"/></radialGradient>
    </defs>
</svg>
