<?xml version="1.0" encoding="UTF-8" standalone="no"?>
<!DOCTYPE svg PUBLIC "-//W3C//DTD SVG 1.1//EN" "http://www.w3.org/Graphics/SVG/1.1/DTD/svg11.dtd">
<svg width="100%" height="100%" viewBox="0 0 206 189" version="1.1" xmlns="http://www.w3.org/2000/svg" xmlns:xlink="http://www.w3.org/1999/xlink" xml:space="preserve" xmlns:serif="http://www.serif.com/" style="fill-rule:evenodd;clip-rule:evenodd;stroke-linejoin:round;stroke-miterlimit:2;">
    <g transform="matrix(1,0,0,1,-226.679,-741.12)">
        <g transform="matrix(0.895764,0,0,0.895764,-668.267,206.36)">
            <path d="M1201.92,635.455C1243.13,684.736 1234.36,746.368 1186.4,780.412C1138.89,815.251 1077.58,818.364 1041.89,777.159C1006,735.82 1011.46,668.69 1054.05,627.173C1096.01,584.787 1160.99,586.58 1201.92,635.455Z" style="fill:rgb(251,199,183);fill-rule:nonzero;"/>
            <path d="M1180.01,780.587C1131.69,813.484 1075.99,811.121 1044.57,774.84C1009.96,734.975 1015.32,669.871 1056.52,629.713C1061.33,624.862 1066.49,620.554 1071.91,616.862C1113.09,588.828 1165.44,597.41 1199.21,637.731C1218.55,660.872 1227.34,688.04 1223.95,714.229C1220.72,739.209 1206.66,761.688 1184.35,777.521C1182.89,778.593 1181.45,779.605 1180.01,780.587Z" style="fill:url(#_Radial1);"/>
            <path d="M1175.2,662.294C1210.8,714.595 1191.38,759.654 1143.93,786.143C1097.49,814.104 1048.23,815.413 1017.21,769.843C986.215,724.644 996.113,662.88 1038.23,630.925C1078.99,596.99 1139.94,610.142 1175.2,662.294Z" style="fill:rgb(251,199,183);fill-rule:nonzero;"/>
            <path d="M1152.34,776.804C1149.15,778.973 1145.74,781.074 1142.21,783.048C1091.8,813.387 1047.35,807.826 1020.14,767.85C990.604,724.777 999.678,664.624 1040.37,633.747C1042.49,631.986 1044.58,630.413 1046.69,628.972C1063.68,617.408 1084.49,613.235 1105.3,617.219C1131.34,622.207 1155.12,638.921 1172.27,664.279C1201.52,707.258 1194.25,748.269 1152.34,776.804Z" style="fill:url(#_Radial2);"/>
            <path d="M1179.18,655.289C1213.55,709.557 1210.96,771.407 1166.33,784.353C1121.92,797.624 1063.88,778.02 1042.56,750.466C1020.96,722.714 1034.21,676.596 1065.75,636.597C1097.41,596.784 1144.72,600.696 1179.18,655.289Z" style="fill:rgb(251,199,183);fill-rule:nonzero;"/>
            <path d="M1178.37,774.903C1174.52,777.524 1170.14,779.559 1165.35,780.948C1129.76,791.584 1069.61,779.632 1045.36,748.297C1026.3,723.803 1035.4,680.821 1068.53,638.791C1073.66,632.343 1079.29,627.01 1085.24,622.957C1097.34,614.72 1110.8,611.835 1124.16,614.614C1143.11,618.554 1161.09,633.273 1176.18,657.18C1205.77,703.892 1206.73,755.598 1178.37,774.903Z" style="fill:url(#_Radial3);"/>
            <path d="M1183.39,692.72C1188.46,743.229 1164.22,780.388 1127.43,772.313C1090.71,764.395 1057.76,733.748 1054.65,707.76C1051.42,681.703 1078.17,650.871 1113.06,634.279C1147.95,617.734 1178.34,642.065 1183.39,692.72Z" style="fill:url(#_Radial4);"/>
            <path d="M1183.39,692.72C1188.46,743.229 1164.22,780.388 1127.43,772.313C1090.71,764.395 1057.76,733.748 1054.65,707.76C1051.42,681.703 1078.17,650.871 1113.06,634.279C1147.95,617.734 1178.34,642.065 1183.39,692.72Z" style="fill:rgb(251,199,183);fill-rule:nonzero;"/>
            <path d="M1157.03,763.83C1148.66,769.525 1138.96,771.215 1128.19,768.852C1093.92,761.46 1061.21,732.716 1058.17,707.337C1055.85,688.637 1070.98,665.246 1096.71,647.731C1102.37,643.879 1108.38,640.43 1114.59,637.479C1127.92,631.155 1140.73,631.066 1151.63,637.224C1166.89,645.854 1177.19,666.208 1179.86,693.07C1183.06,724.952 1174.31,752.063 1157.03,763.83Z" style="fill:url(#_Radial5);"/>
            <path d="M1058.91,735.427C1038.46,696.361 1048.23,656.58 1083.4,648.623C1118.46,640.57 1157.35,652.481 1168.32,672.384C1179.41,692.293 1165.42,727.921 1139.72,755.185C1114,782.407 1079.37,774.622 1058.91,735.427Z" style="fill:rgb(251,199,183);fill-rule:nonzero;"/>
            <path d="M1127.97,760.649C1118.42,767.15 1107.97,769.23 1097.74,766.662C1083.99,763.208 1071.31,751.534 1062.05,733.786C1046.06,703.234 1049.15,672.189 1069.57,658.291C1073.81,655.404 1078.72,653.315 1084.19,652.078C1116.77,644.595 1154.63,654.883 1165.22,674.093C1174.98,691.614 1162.9,725.424 1137.14,752.754C1134.23,755.832 1131.14,758.491 1127.97,760.649Z" style="fill:url(#_Radial6);"/>
            <path d="M1070.88,704.055C1070.17,670.419 1088.13,647.138 1112.01,654.395C1135.85,661.545 1156.02,683.514 1156.72,700.846C1157.49,718.229 1138.21,737.2 1114.29,746.339C1090.38,755.446 1071.57,737.783 1070.88,704.055Z" style="fill:rgb(251,199,183);fill-rule:nonzero;"/>
            <path d="M1130.82,733.761C1125.35,737.489 1119.36,740.606 1113.02,743.027C1104.26,746.364 1096.18,745.798 1089.64,741.388C1080.33,735.11 1074.78,721.476 1074.43,703.983C1074.01,684.398 1080.37,667.731 1091.01,660.488C1096.92,656.464 1103.64,655.555 1110.98,657.785C1132.8,664.329 1152.51,684.518 1153.18,700.989C1153.65,711.505 1145.08,724.056 1130.82,733.761Z" style="fill:url(#_Radial7);"/>
        </g>
    </g>
    <defs>
        <radialGradient id="_Radial1" cx="0" cy="0" r="1" gradientUnits="userSpaceOnUse" gradientTransform="matrix(103.715,-74.2775,74.2775,103.715,1096.43,716.213)"><stop offset="0" style="stop-color:rgb(246,150,129);stop-opacity:1"/><stop offset="0.6" style="stop-color:rgb(246,150,129);stop-opacity:1"/><stop offset="1" style="stop-color:rgb(251,199,183);stop-opacity:1"/></radialGradient>
        <radialGradient id="_Radial2" cx="0" cy="0" r="1" gradientUnits="userSpaceOnUse" gradientTransform="matrix(75.5741,-51.4471,51.4471,75.5741,1091.12,708.6)"><stop offset="0" style="stop-color:rgb(249,177,150);stop-opacity:1"/><stop offset="0.7" style="stop-color:rgb(246,151,130);stop-opacity:1"/><stop offset="0.8" style="stop-color:rgb(249,177,158);stop-opacity:1"/><stop offset="1" style="stop-color:rgb(251,199,183);stop-opacity:1"/></radialGradient>
        <radialGradient id="_Radial3" cx="0" cy="0" r="1" gradientUnits="userSpaceOnUse" gradientTransform="matrix(69.8746,-47.5672,47.5672,69.8746,1115.66,709.918)"><stop offset="0" style="stop-color:rgb(246,150,129);stop-opacity:1"/><stop offset="0.7" style="stop-color:rgb(246,150,129);stop-opacity:1"/><stop offset="1" style="stop-color:rgb(251,199,183);stop-opacity:1"/></radialGradient>
        <radialGradient id="_Radial4" cx="0" cy="0" r="1" gradientUnits="userSpaceOnUse" gradientTransform="matrix(79.8184,5.54695,-5.54695,79.8184,1116.65,704.254)"><stop offset="0" style="stop-color:rgb(233,233,236);stop-opacity:1"/><stop offset="0.7" style="stop-color:rgb(197,199,199);stop-opacity:1"/><stop offset="1" style="stop-color:white;stop-opacity:1"/></radialGradient>
        <radialGradient id="_Radial5" cx="0" cy="0" r="1" gradientUnits="userSpaceOnUse" gradientTransform="matrix(75.6444,5.25688,-5.25688,75.6444,1117.16,704.346)"><stop offset="0" style="stop-color:rgb(246,150,129);stop-opacity:1"/><stop offset="0.7" style="stop-color:rgb(246,150,129);stop-opacity:1"/><stop offset="1" style="stop-color:rgb(251,199,183);stop-opacity:1"/></radialGradient>
        <radialGradient id="_Radial6" cx="0" cy="0" r="1" gradientUnits="userSpaceOnUse" gradientTransform="matrix(49.0073,-33.3617,33.3617,49.0073,1111.27,700.957)"><stop offset="0" style="stop-color:rgb(246,150,129);stop-opacity:1"/><stop offset="0.7" style="stop-color:rgb(247,155,133);stop-opacity:1"/><stop offset="1" style="stop-color:rgb(251,199,183);stop-opacity:1"/></radialGradient>
        <radialGradient id="_Radial7" cx="0" cy="0" r="1" gradientUnits="userSpaceOnUse" gradientTransform="matrix(33.9708,-23.1256,23.1256,33.9708,1107.93,699.157)"><stop offset="0" style="stop-color:rgb(246,150,129);stop-opacity:1"/><stop offset="1" style="stop-color:rgb(251,199,183);stop-opacity:1"/></radialGradient>
    </defs>
</svg>
