<?xml version="1.0" encoding="UTF-8" standalone="no"?>
<!DOCTYPE svg PUBLIC "-//W3C//DTD SVG 1.1//EN" "http://www.w3.org/Graphics/SVG/1.1/DTD/svg11.dtd">
<svg width="100%" height="100%" viewBox="0 0 486 267" version="1.1" xmlns="http://www.w3.org/2000/svg" xmlns:xlink="http://www.w3.org/1999/xlink" xml:space="preserve" xmlns:serif="http://www.serif.com/" style="fill-rule:evenodd;clip-rule:evenodd;stroke-linecap:round;stroke-linejoin:round;stroke-miterlimit:1.5;">
    <g transform="matrix(1,0,0,1,-126.91,-660.081)">
        <g transform="matrix(0.997795,-0.0663689,0.0663689,0.997795,18.2792,28.4864)">
            <g transform="matrix(0.989911,-0.141692,0.141692,0.989911,119.585,461.42)">
                <g>
                    <g transform="matrix(1.14955,0,0,1.23128,-62.3863,-113.959)">
                        <path d="M280.697,392.493L333.932,392.493C333.932,392.493 335.125,392.773 335.286,394.124C335.907,399.337 342.388,408.81 351.616,417.376C360.782,425.884 363.61,440.529 363.343,450.625C362.523,481.536 335.778,504.539 306.653,504.539C277.528,504.539 249.952,481.854 249.952,450.934C249.952,440.703 253.497,426.176 262.624,417.262C270.912,409.168 276.994,400.641 278.38,395.259C278.951,393.046 280.697,392.493 280.697,392.493Z" style="fill:url(#_Linear1);stroke:black;stroke-width:7.56px;"/>
                    </g>
                    <g transform="matrix(1,0,0,1,43.9089,-388.434)">
                        <path d="M241.25,757.742C241.25,757.742 242.261,799.589 240.911,809.595C240.406,813.332 237.077,816.095 234.516,817.665C232.341,818.998 224.234,817.528 224.322,825.52C224.342,827.407 227.336,832.574 236.898,829.194C239.924,828.124 243.187,821.876 246.172,821.755C249.158,821.635 251.482,827.103 254.811,828.471C258.14,829.84 262.523,830.51 264.866,829.602C271.606,826.987 269.236,819.114 265.348,818.649C250.873,816.918 252.918,812.483 252.51,808.861C251.388,798.92 252.67,757.742 252.67,757.742L241.25,757.742ZM285.77,726.905C285.77,724.882 284.967,722.942 283.536,721.511C282.105,720.08 280.165,719.276 278.141,719.276C263.337,719.276 230.868,719.276 216.063,719.276C214.04,719.276 212.1,720.08 210.669,721.511C209.238,722.942 208.434,724.882 208.434,726.905C208.434,733.633 208.434,743.386 208.434,750.113C208.434,752.137 209.238,754.077 210.669,755.508C212.1,756.939 214.04,757.742 216.063,757.742C230.868,757.742 263.337,757.742 278.141,757.742C280.165,757.742 282.105,756.939 283.536,755.508C284.967,754.077 285.77,752.137 285.77,750.113C285.77,743.386 285.77,733.633 285.77,726.905ZM269.835,716.969C269.835,706.356 261.232,697.753 250.619,697.753C248.291,697.753 245.913,697.753 243.586,697.753C232.973,697.753 224.37,706.356 224.37,716.969C224.37,716.97 224.37,716.971 224.37,716.972C224.37,717.583 224.613,718.169 225.045,718.602C225.477,719.034 226.063,719.276 226.674,719.276C234.461,719.276 259.744,719.276 267.531,719.276C268.142,719.276 268.728,719.034 269.16,718.602C269.592,718.169 269.835,717.583 269.835,716.972C269.835,716.971 269.835,716.97 269.835,716.969Z"/>
                    </g>
                    <g transform="matrix(1.14955,0,0,1.23128,-62.3863,-113.959)">
                        <path d="M280.697,392.493L333.932,392.493C333.932,392.493 335.125,392.773 335.286,394.124C335.907,399.337 342.388,408.81 351.616,417.376C360.782,425.884 363.61,440.529 363.343,450.625C362.523,481.536 335.778,504.539 306.653,504.539C277.528,504.539 249.952,481.854 249.952,450.934C249.952,440.703 253.497,426.176 262.624,417.262C270.912,409.168 276.994,400.641 278.38,395.259C278.951,393.046 280.697,392.493 280.697,392.493Z" style="fill:none;stroke:black;stroke-width:7.56px;"/>
                    </g>
                </g>
            </g>
            <g transform="matrix(0.957559,0.288239,-0.288239,0.957559,-27.5619,331.097)">
                <g>
                    <g transform="matrix(1.14955,0,0,1.23128,-62.3863,-113.959)">
                        <path d="M280.697,392.493L333.932,392.493C333.932,392.493 335.125,392.773 335.286,394.124C335.907,399.337 342.388,408.81 351.616,417.376C360.782,425.884 363.61,440.529 363.343,450.625C362.523,481.536 335.778,504.539 306.653,504.539C277.528,504.539 249.952,481.854 249.952,450.934C249.952,440.703 253.497,426.176 262.624,417.262C270.912,409.168 276.994,400.641 278.38,395.259C278.951,393.046 280.697,392.493 280.697,392.493Z" style="fill:url(#_Linear2);stroke:black;stroke-width:7.56px;"/>
                    </g>
                    <g transform="matrix(1,0,0,1,43.9089,-388.434)">
                        <path d="M241.25,757.742C241.25,757.742 242.261,799.589 240.911,809.595C240.406,813.332 237.077,816.095 234.516,817.665C232.341,818.998 224.234,817.528 224.322,825.52C224.342,827.407 227.336,832.574 236.898,829.194C239.924,828.124 243.187,821.876 246.172,821.755C249.158,821.635 251.482,827.103 254.811,828.471C258.14,829.84 262.523,830.51 264.866,829.602C271.606,826.987 269.236,819.114 265.348,818.649C250.873,816.918 252.918,812.483 252.51,808.861C251.388,798.92 252.67,757.742 252.67,757.742L241.25,757.742ZM285.77,726.905C285.77,724.882 284.967,722.942 283.536,721.511C282.105,720.08 280.165,719.276 278.141,719.276C263.337,719.276 230.868,719.276 216.063,719.276C214.04,719.276 212.1,720.08 210.669,721.511C209.238,722.942 208.434,724.882 208.434,726.905C208.434,733.633 208.434,743.386 208.434,750.113C208.434,752.137 209.238,754.077 210.669,755.508C212.1,756.939 214.04,757.742 216.063,757.742C230.868,757.742 263.337,757.742 278.141,757.742C280.165,757.742 282.105,756.939 283.536,755.508C284.967,754.077 285.77,752.137 285.77,750.113C285.77,743.386 285.77,733.633 285.77,726.905ZM269.835,716.969C269.835,706.356 261.232,697.753 250.619,697.753C248.291,697.753 245.913,697.753 243.586,697.753C232.973,697.753 224.37,706.356 224.37,716.969C224.37,716.97 224.37,716.971 224.37,716.972C224.37,717.583 224.613,718.169 225.045,718.602C225.477,719.034 226.063,719.276 226.674,719.276C234.461,719.276 259.744,719.276 267.531,719.276C268.142,719.276 268.728,719.034 269.16,718.602C269.592,718.169 269.835,717.583 269.835,716.972C269.835,716.971 269.835,716.97 269.835,716.969Z"/>
                    </g>
                    <g transform="matrix(1.14955,0,0,1.23128,-62.3863,-113.959)">
                        <path d="M280.697,392.493L333.932,392.493C333.932,392.493 335.125,392.773 335.286,394.124C335.907,399.337 342.388,408.81 351.616,417.376C360.782,425.884 363.61,440.529 363.343,450.625C362.523,481.536 335.778,504.539 306.653,504.539C277.528,504.539 249.952,481.854 249.952,450.934C249.952,440.703 253.497,426.176 262.624,417.262C270.912,409.168 276.994,400.641 278.38,395.259C278.951,393.046 280.697,392.493 280.697,392.493Z" style="fill:none;stroke:black;stroke-width:7.56px;"/>
                    </g>
                </g>
            </g>
            <g>
                <path d="M116.393,645.242C239.9,715.55 366.532,726.126 495.894,684.506" style="fill:none;stroke:black;stroke-width:9px;"/>
                <path d="M176.834,674.812L161.355,711.977" style="fill:none;stroke:black;stroke-width:9px;"/>
                <path d="M448.245,697.896L452.948,729.054" style="fill:none;stroke:black;stroke-width:9px;"/>
            </g>
        </g>
    </g>
    <defs>
        <linearGradient id="_Linear1" x1="0" y1="0" x2="1" y2="0" gradientUnits="userSpaceOnUse" gradientTransform="matrix(38.9314,78.9895,-84.6055,36.3472,287.648,406.847)"><stop offset="0" style="stop-color:rgb(255,238,0);stop-opacity:1"/><stop offset="0.44" style="stop-color:rgb(255,245,166);stop-opacity:1"/><stop offset="1" style="stop-color:rgb(255,200,4);stop-opacity:1"/></linearGradient>
        <linearGradient id="_Linear2" x1="0" y1="0" x2="1" y2="0" gradientUnits="userSpaceOnUse" gradientTransform="matrix(38.9314,78.9895,-84.6055,36.3472,287.648,406.847)"><stop offset="0" style="stop-color:rgb(255,238,0);stop-opacity:1"/><stop offset="0.44" style="stop-color:rgb(255,245,166);stop-opacity:1"/><stop offset="1" style="stop-color:rgb(255,200,4);stop-opacity:1"/></linearGradient>
    </defs>
</svg>
