<?xml version="1.0" encoding="UTF-8" standalone="no"?>
<!DOCTYPE svg PUBLIC "-//W3C//DTD SVG 1.1//EN" "http://www.w3.org/Graphics/SVG/1.1/DTD/svg11.dtd">
<svg width="100%" height="100%" viewBox="0 0 163 224" version="1.1" xmlns="http://www.w3.org/2000/svg" xmlns:xlink="http://www.w3.org/1999/xlink" xml:space="preserve" xmlns:serif="http://www.serif.com/" style="fill-rule:evenodd;clip-rule:evenodd;stroke-linejoin:round;stroke-miterlimit:2;">
    <g transform="matrix(1,0,0,1,-17810.3,-3906.79)">
        <g transform="matrix(3,0,0,1.8,17316.1,3577.9)">
            <g transform="matrix(0.333333,0,0,0.555556,-5772.05,-1987.72)">
                <path d="M17891.5,4130.45C17891.5,4130.45 17810.3,4030.73 17810.3,3987.99C17810.3,3943.18 17846.7,3906.79 17891.5,3906.79C17936.3,3906.79 17972.7,3943.18 17972.7,3987.99C17972.7,4030.73 17891.5,4130.45 17891.5,4130.45ZM17891.5,3939.16C17915.5,3939.16 17935,3958.92 17935,3983.25C17935,4007.59 17915.5,4027.34 17891.5,4027.34C17867.5,4027.34 17848,4007.59 17848,3983.25C17848,3958.92 17867.5,3939.16 17891.5,3939.16Z" style="fill:white;"/>
                <clipPath id="_clip1">
                    <path d="M17891.5,4130.45C17891.5,4130.45 17810.3,4030.73 17810.3,3987.99C17810.3,3943.18 17846.7,3906.79 17891.5,3906.79C17936.3,3906.79 17972.7,3943.18 17972.7,3987.99C17972.7,4030.73 17891.5,4130.45 17891.5,4130.45ZM17891.5,3939.16C17915.5,3939.16 17935,3958.92 17935,3983.25C17935,4007.59 17915.5,4027.34 17891.5,4027.34C17867.5,4027.34 17848,4007.59 17848,3983.25C17848,3958.92 17867.5,3939.16 17891.5,3939.16Z"/>
                </clipPath>
                <g clip-path="url(#_clip1)">
                    <g transform="matrix(0.533308,9.79813e-18,-9.79813e-18,-0.4533,13321.5,5352.34)">
                        <path d="M8569.17,2695.54C8569.17,2695.54 8396.1,2899.46 8390.47,2993.51C8379.16,3182.2 8550.92,3198.07 8550.92,3198.07C8459.2,3110.06 8433.81,2936.13 8569.17,2695.54Z" style="fill:rgb(246,246,246);"/>
                    </g>
                </g>
            </g>
        </g>
    </g>
</svg>
