<svg width="211" height="23" viewBox="0 0 211 23" fill="none" xmlns="http://www.w3.org/2000/svg">
<path d="M3.24 0.549999L22.38 18.79L22.74 22.42L3.6 4.21L3.24 0.549999ZM3.39 19.87V22H0.9V21.7C0.9 21.7 0.99 21.7 1.17 21.7C1.35 21.7 1.45 21.7 1.47 21.7C1.97 21.7 2.4 21.52 2.76 21.16C3.12 20.8 3.3 20.37 3.3 19.87H3.39ZM7.59 19.87C7.59 20.37 7.77 20.8 8.13 21.16C8.49 21.52 8.92 21.7 9.42 21.7C9.44 21.7 9.54 21.7 9.72 21.7C9.9 21.7 9.99 21.7 9.99 21.7V22H7.5V19.87H7.59ZM3.24 0.549999L7.56 5.14L7.59 22H3.3V4.3C3.3 3.18 3.24 2.28 3.12 1.6C3 0.899999 2.94 0.549999 2.94 0.549999H3.24ZM22.65 0.999999V18.58C22.65 19.32 22.68 19.99 22.74 20.59C22.8 21.17 22.86 21.62 22.92 21.94C22.98 22.26 23.01 22.42 23.01 22.42H22.74L18.39 17.56V0.999999H22.65ZM25.05 0.999999V1.3C25.05 1.3 24.96 1.3 24.78 1.3C24.6 1.3 24.51 1.3 24.51 1.3C24.01 1.3 23.58 1.48 23.22 1.84C22.86 2.18 22.67 2.61 22.65 3.13H22.56V0.999999H25.05ZM15.96 0.999999H18.45V3.13H18.39C18.37 2.61 18.18 2.18 17.82 1.84C17.48 1.48 17.05 1.3 16.53 1.3C16.53 1.3 16.44 1.3 16.26 1.3C16.08 1.3 15.98 1.3 15.96 1.3V0.999999ZM37.0111 3.61C38.6111 3.61 40.0611 3.83 41.3611 4.27C42.6611 4.69 43.7811 5.31 44.7211 6.13C45.6611 6.95 46.3811 7.94 46.8811 9.1C47.4011 10.26 47.6611 11.57 47.6611 13.03C47.6611 14.47 47.4011 15.77 46.8811 16.93C46.3811 18.07 45.6611 19.05 44.7211 19.87C43.7811 20.69 42.6611 21.32 41.3611 21.76C40.0611 22.18 38.6111 22.39 37.0111 22.39C35.4311 22.39 33.9911 22.18 32.6911 21.76C31.3911 21.32 30.2711 20.69 29.3311 19.87C28.3911 19.05 27.6711 18.07 27.1711 16.93C26.6711 15.77 26.4211 14.47 26.4211 13.03C26.4211 11.57 26.6711 10.26 27.1711 9.1C27.6711 7.94 28.3911 6.95 29.3311 6.13C30.2711 5.31 31.3911 4.69 32.6911 4.27C33.9911 3.83 35.4311 3.61 37.0111 3.61ZM37.0111 21.22C38.2311 21.22 39.2911 20.89 40.1911 20.23C41.1111 19.55 41.8111 18.6 42.2911 17.38C42.7911 16.16 43.0411 14.71 43.0411 13.03C43.0411 11.33 42.7911 9.87 42.2911 8.65C41.8111 7.41 41.1111 6.46 40.1911 5.8C39.2911 5.12 38.2311 4.78 37.0111 4.78C35.8111 4.78 34.7611 5.12 33.8611 5.8C32.9611 6.46 32.2611 7.41 31.7611 8.65C31.2611 9.87 31.0111 11.33 31.0111 13.03C31.0111 14.71 31.2611 16.16 31.7611 17.38C32.2611 18.6 32.9611 19.55 33.8611 20.23C34.7611 20.89 35.8111 21.22 37.0111 21.22ZM55.9193 3.61C56.3193 3.61 56.7993 3.63 57.3593 3.67C57.9393 3.71 58.5093 3.76 59.0693 3.82C59.6293 3.86 60.1193 3.92 60.5393 4C60.9793 4.06 61.2793 4.12 61.4393 4.18L61.0493 7.84H60.7793C60.7793 6.92 60.4593 6.19 59.8193 5.65C59.1793 5.11 58.2593 4.84 57.0593 4.84C56.0993 4.84 55.3193 5.05 54.7193 5.47C54.1393 5.89 53.8293 6.45 53.7893 7.15C53.7493 7.51 53.8093 7.84 53.9693 8.14C54.1493 8.42 54.3893 8.67 54.6893 8.89C55.0093 9.11 55.3593 9.33 55.7393 9.55L60.4493 12.46C61.2493 12.86 61.8793 13.44 62.3393 14.2C62.7993 14.96 62.9993 15.88 62.9393 16.96C62.8793 18.08 62.5493 19.05 61.9493 19.87C61.3693 20.69 60.5593 21.32 59.5193 21.76C58.4993 22.18 57.2893 22.39 55.8893 22.39C55.0293 22.39 54.2293 22.32 53.4893 22.18C52.7493 22.04 52.1093 21.85 51.5693 21.61C51.0493 21.37 50.6493 21.1 50.3693 20.8C50.2093 20.4 50.1393 19.92 50.1593 19.36C50.1793 18.78 50.2693 18.21 50.4293 17.65C50.5893 17.07 50.7893 16.59 51.0293 16.21H51.2693C51.2093 17.11 51.3693 17.94 51.7493 18.7C52.1493 19.46 52.7293 20.07 53.4893 20.53C54.2493 20.97 55.1593 21.19 56.2193 21.19C57.3793 21.19 58.2493 20.92 58.8293 20.38C59.4093 19.84 59.6993 19.21 59.6993 18.49C59.6993 17.95 59.5193 17.47 59.1593 17.05C58.8193 16.61 58.2493 16.18 57.4493 15.76L53.1893 13.06C52.1893 12.54 51.4593 11.85 50.9993 10.99C50.5593 10.13 50.3993 9.19 50.5193 8.17C50.6193 7.21 50.8993 6.39 51.3593 5.71C51.8393 5.03 52.4693 4.51 53.2493 4.15C54.0293 3.79 54.9193 3.61 55.9193 3.61ZM61.4393 3.88L61.4093 4.42H58.1993V3.88H61.4393ZM90.7388 14.47L91.0688 19C90.6888 19.64 90.1588 20.22 89.4788 20.74C88.7988 21.24 87.9688 21.64 86.9888 21.94C86.0088 22.24 84.8688 22.39 83.5688 22.39C81.3288 22.37 79.3988 21.99 77.7788 21.25C76.1588 20.51 74.9088 19.45 74.0288 18.07C73.1688 16.67 72.7388 14.97 72.7388 12.97C72.7388 11.01 73.1688 9.34 74.0288 7.96C74.8888 6.56 76.1288 5.49 77.7488 4.75C79.3688 3.99 81.3088 3.61 83.5688 3.61C84.9288 3.61 86.1888 3.74 87.3488 4C88.5288 4.26 89.5088 4.59 90.2888 4.99L90.3188 9.76H90.0788C89.5788 7.92 88.7888 6.63 87.7088 5.89C86.6288 5.15 85.3488 4.78 83.8688 4.78C82.4088 4.78 81.1888 5.12 80.2088 5.8C79.2488 6.48 78.5188 7.43 78.0188 8.65C77.5388 9.87 77.2988 11.3 77.2988 12.94C77.2988 14.6 77.5388 16.04 78.0188 17.26C78.5188 18.48 79.2388 19.43 80.1788 20.11C81.1188 20.79 82.2488 21.15 83.5688 21.19C84.9888 21.19 86.1588 20.97 87.0788 20.53C88.0188 20.09 88.7588 19.38 89.2988 18.4C89.8588 17.42 90.2588 16.11 90.4988 14.47H90.7388ZM102.031 3.19L110.911 21.85H105.841L100.261 8.68L102.031 3.19ZM96.3909 20.02C96.1709 20.56 96.2009 20.98 96.4809 21.28C96.7609 21.56 97.0709 21.7 97.4109 21.7H97.6509V22H91.6509V21.7C91.6509 21.7 91.6909 21.7 91.7709 21.7C91.8509 21.7 91.8909 21.7 91.8909 21.7C92.2909 21.7 92.7109 21.58 93.1509 21.34C93.5909 21.08 93.9509 20.64 94.2309 20.02H96.3909ZM102.031 3.19L102.091 6.79L95.5809 21.91H93.3609L100.381 6.82C100.421 6.7 100.511 6.49 100.651 6.19C100.791 5.87 100.941 5.52 101.101 5.14C101.261 4.74 101.411 4.37 101.551 4.03C101.691 3.67 101.771 3.39 101.791 3.19H102.031ZM104.641 16.12V17.29H96.9909V16.12H104.641ZM105.091 20.02H110.041C110.341 20.64 110.711 21.08 111.151 21.34C111.591 21.58 112.011 21.7 112.411 21.7C112.411 21.7 112.451 21.7 112.531 21.7C112.611 21.7 112.651 21.7 112.651 21.7V22H103.831V21.7H104.071C104.411 21.7 104.721 21.56 105.001 21.28C105.281 20.98 105.311 20.56 105.091 20.02ZM119.259 3.61C119.659 3.61 120.139 3.63 120.699 3.67C121.279 3.71 121.849 3.76 122.409 3.82C122.969 3.86 123.459 3.92 123.879 4C124.319 4.06 124.619 4.12 124.779 4.18L124.389 7.84H124.119C124.119 6.92 123.799 6.19 123.159 5.65C122.519 5.11 121.599 4.84 120.399 4.84C119.439 4.84 118.659 5.05 118.059 5.47C117.479 5.89 117.169 6.45 117.129 7.15C117.089 7.51 117.149 7.84 117.309 8.14C117.489 8.42 117.729 8.67 118.029 8.89C118.349 9.11 118.699 9.33 119.079 9.55L123.789 12.46C124.589 12.86 125.219 13.44 125.679 14.2C126.139 14.96 126.339 15.88 126.279 16.96C126.219 18.08 125.889 19.05 125.289 19.87C124.709 20.69 123.899 21.32 122.859 21.76C121.839 22.18 120.629 22.39 119.229 22.39C118.369 22.39 117.569 22.32 116.829 22.18C116.089 22.04 115.449 21.85 114.909 21.61C114.389 21.37 113.989 21.1 113.709 20.8C113.549 20.4 113.479 19.92 113.499 19.36C113.519 18.78 113.609 18.21 113.769 17.65C113.929 17.07 114.129 16.59 114.369 16.21H114.609C114.549 17.11 114.709 17.94 115.089 18.7C115.489 19.46 116.069 20.07 116.829 20.53C117.589 20.97 118.499 21.19 119.559 21.19C120.719 21.19 121.589 20.92 122.169 20.38C122.749 19.84 123.039 19.21 123.039 18.49C123.039 17.95 122.859 17.47 122.499 17.05C122.159 16.61 121.589 16.18 120.789 15.76L116.529 13.06C115.529 12.54 114.799 11.85 114.339 10.99C113.899 10.13 113.739 9.19 113.859 8.17C113.959 7.21 114.239 6.39 114.699 5.71C115.179 5.03 115.809 4.51 116.589 4.15C117.369 3.79 118.259 3.61 119.259 3.61ZM124.779 3.88L124.749 4.42H121.539V3.88H124.779ZM136.953 3.19L145.833 21.85H140.763L135.183 8.68L136.953 3.19ZM131.313 20.02C131.093 20.56 131.123 20.98 131.403 21.28C131.683 21.56 131.993 21.7 132.333 21.7H132.573V22H126.573V21.7C126.573 21.7 126.613 21.7 126.693 21.7C126.773 21.7 126.813 21.7 126.813 21.7C127.213 21.7 127.633 21.58 128.073 21.34C128.513 21.08 128.873 20.64 129.153 20.02H131.313ZM136.953 3.19L137.013 6.79L130.503 21.91H128.283L135.303 6.82C135.343 6.7 135.433 6.49 135.573 6.19C135.713 5.87 135.863 5.52 136.023 5.14C136.183 4.74 136.333 4.37 136.473 4.03C136.613 3.67 136.693 3.39 136.713 3.19H136.953ZM139.563 16.12V17.29H131.913V16.12H139.563ZM140.013 20.02H144.963C145.263 20.64 145.633 21.08 146.073 21.34C146.513 21.58 146.933 21.7 147.333 21.7C147.333 21.7 147.373 21.7 147.453 21.7C147.533 21.7 147.573 21.7 147.573 21.7V22H138.753V21.7H138.993C139.333 21.7 139.643 21.56 139.923 21.28C140.203 20.98 140.233 20.56 140.013 20.02ZM167.839 3.61L168.079 6.7L160.009 19.51C160.009 19.51 159.919 19.68 159.739 20.02C159.559 20.34 159.379 20.73 159.199 21.19C159.039 21.65 158.949 22.11 158.929 22.57H158.659L157.489 20.11L167.839 3.61ZM149.389 20.08V22H146.449V21.7C146.449 21.7 146.519 21.7 146.659 21.7C146.779 21.7 146.839 21.7 146.839 21.7C147.339 21.7 147.769 21.56 148.129 21.28C148.509 21 148.739 20.6 148.819 20.08H149.389ZM150.679 20.5C150.659 20.72 150.729 20.98 150.889 21.28C151.049 21.56 151.329 21.7 151.729 21.7H152.149V22H150.349L150.529 20.5H150.679ZM151.159 3.61H151.399L152.419 6.49L150.529 22H148.579L151.159 3.61ZM151.399 3.61L160.279 16.9L158.659 22.57L150.679 10.48L151.399 3.61ZM168.109 3.61L170.749 22H166.159L164.689 11.05L167.839 3.61H168.109ZM169.909 20.08H170.479C170.579 20.6 170.809 21 171.169 21.28C171.549 21.56 171.969 21.7 172.429 21.7C172.429 21.7 172.499 21.7 172.639 21.7C172.779 21.7 172.849 21.7 172.849 21.7V22H169.909V20.08ZM165.949 20.5H166.129L166.309 22H164.509V21.7H164.929C165.369 21.7 165.659 21.56 165.799 21.28C165.939 20.98 165.989 20.72 165.949 20.5ZM184.111 3.61C185.711 3.61 187.161 3.83 188.461 4.27C189.761 4.69 190.881 5.31 191.821 6.13C192.761 6.95 193.481 7.94 193.981 9.1C194.501 10.26 194.761 11.57 194.761 13.03C194.761 14.47 194.501 15.77 193.981 16.93C193.481 18.07 192.761 19.05 191.821 19.87C190.881 20.69 189.761 21.32 188.461 21.76C187.161 22.18 185.711 22.39 184.111 22.39C182.531 22.39 181.091 22.18 179.791 21.76C178.491 21.32 177.371 20.69 176.431 19.87C175.491 19.05 174.771 18.07 174.271 16.93C173.771 15.77 173.521 14.47 173.521 13.03C173.521 11.57 173.771 10.26 174.271 9.1C174.771 7.94 175.491 6.95 176.431 6.13C177.371 5.31 178.491 4.69 179.791 4.27C181.091 3.83 182.531 3.61 184.111 3.61ZM184.111 21.22C185.331 21.22 186.391 20.89 187.291 20.23C188.211 19.55 188.911 18.6 189.391 17.38C189.891 16.16 190.141 14.71 190.141 13.03C190.141 11.33 189.891 9.87 189.391 8.65C188.911 7.41 188.211 6.46 187.291 5.8C186.391 5.12 185.331 4.78 184.111 4.78C182.911 4.78 181.861 5.12 180.961 5.8C180.061 6.46 179.361 7.41 178.861 8.65C178.361 9.87 178.111 11.33 178.111 13.03C178.111 14.71 178.361 16.16 178.861 17.38C179.361 18.6 180.061 19.55 180.961 20.23C181.861 20.89 182.911 21.22 184.111 21.22ZM203.019 3.61C203.419 3.61 203.899 3.63 204.459 3.67C205.039 3.71 205.609 3.76 206.169 3.82C206.729 3.86 207.219 3.92 207.639 4C208.079 4.06 208.379 4.12 208.539 4.18L208.149 7.84H207.879C207.879 6.92 207.559 6.19 206.919 5.65C206.279 5.11 205.359 4.84 204.159 4.84C203.199 4.84 202.419 5.05 201.819 5.47C201.239 5.89 200.929 6.45 200.889 7.15C200.849 7.51 200.909 7.84 201.069 8.14C201.249 8.42 201.489 8.67 201.789 8.89C202.109 9.11 202.459 9.33 202.839 9.55L207.549 12.46C208.349 12.86 208.979 13.44 209.439 14.2C209.899 14.96 210.099 15.88 210.039 16.96C209.979 18.08 209.649 19.05 209.049 19.87C208.469 20.69 207.659 21.32 206.619 21.76C205.599 22.18 204.389 22.39 202.989 22.39C202.129 22.39 201.329 22.32 200.589 22.18C199.849 22.04 199.209 21.85 198.669 21.61C198.149 21.37 197.749 21.1 197.469 20.8C197.309 20.4 197.239 19.92 197.259 19.36C197.279 18.78 197.369 18.21 197.529 17.65C197.689 17.07 197.889 16.59 198.129 16.21H198.369C198.309 17.11 198.469 17.94 198.849 18.7C199.249 19.46 199.829 20.07 200.589 20.53C201.349 20.97 202.259 21.19 203.319 21.19C204.479 21.19 205.349 20.92 205.929 20.38C206.509 19.84 206.799 19.21 206.799 18.49C206.799 17.95 206.619 17.47 206.259 17.05C205.919 16.61 205.349 16.18 204.549 15.76L200.289 13.06C199.289 12.54 198.559 11.85 198.099 10.99C197.659 10.13 197.499 9.19 197.619 8.17C197.719 7.21 197.999 6.39 198.459 5.71C198.939 5.03 199.569 4.51 200.349 4.15C201.129 3.79 202.019 3.61 203.019 3.61ZM208.539 3.88L208.509 4.42H205.299V3.88H208.539Z" fill="#F2D8BE"/>
</svg>
